STARTFONT 2.1
FONT -FontForge-Inknut Antiqua-Book-R-Normal--12-90-96-96-P-96-ISO10646-1
SIZE 9 96 96
FONTBOUNDINGBOX 43 29 -15 -10
COMMENT "Generated by fontforge, http://fontforge.sourceforge.net"
COMMENT "Copyright (c) 2014 by Claus Eggers Srensen (es@forthehearts.net)."
STARTPROPERTIES 39
FOUNDRY "FontForge"
FAMILY_NAME "Inknut Antiqua"
WEIGHT_NAME "Book"
SLANT "R"
SETWIDTH_NAME "Normal"
ADD_STYLE_NAME ""
PIXEL_SIZE 12
POINT_SIZE 90
RESOLUTION_X 96
RESOLUTION_Y 96
SPACING "P"
AVERAGE_WIDTH 96
CHARSET_REGISTRY "ISO10646"
CHARSET_ENCODING "1"
FONTNAME_REGISTRY ""
CHARSET_COLLECTIONS "ISO8859-2 ISO8859-9 ISO8859-4 ISO10646-1"
FONT_NAME "InknutAntiqua-Regular"
FACE_NAME "Inknut Antiqua Regular"
COPYRIGHT "Copyright (c) 2014 by Claus Eggers Srensen (es@forthehearts.net)."
FONT_VERSION "1.003"
FONT_ASCENT 10
FONT_DESCENT 2
UNDERLINE_POSITION -2
UNDERLINE_THICKNESS 1
X_HEIGHT 5
CAP_HEIGHT 8
RAW_ASCENT 800
RAW_DESCENT 200
NORM_SPACE 3
RELATIVE_WEIGHT 40
RELATIVE_SETWIDTH 50
SUPERSCRIPT_X 0
SUPERSCRIPT_Y 4
SUPERSCRIPT_SIZE 7
SUBSCRIPT_X 0
SUBSCRIPT_Y 0
SUBSCRIPT_SIZE 7
AVG_LOWERCASE_WIDTH 73
AVG_UPPERCASE_WIDTH 99
ENDPROPERTIES
CHARS 1273
STARTCHAR space
ENCODING 32
SWIDTH 279 0
DWIDTH 3 0
BBX 1 1 0 0
BITMAP
00
ENDCHAR
STARTCHAR exclam
ENCODING 33
SWIDTH 349 0
DWIDTH 4 0
BBX 2 9 1 0
BITMAP
C0
C0
C0
C0
C0
00
00
C0
C0
ENDCHAR
STARTCHAR quotedbl
ENCODING 34
SWIDTH 490 0
DWIDTH 6 0
BBX 4 4 1 5
BITMAP
B0
90
90
90
ENDCHAR
STARTCHAR numbersign
ENCODING 35
SWIDTH 780 0
DWIDTH 9 0
BBX 7 6 2 0
BITMAP
24
FE
40
10
80
20
ENDCHAR
STARTCHAR dollar
ENCODING 36
SWIDTH 700 0
DWIDTH 8 0
BBX 7 10 1 0
BITMAP
38
4C
C4
C0
60
38
0C
06
84
F8
ENDCHAR
STARTCHAR percent
ENCODING 37
SWIDTH 1077 0
DWIDTH 13 0
BBX 11 12 1 -1
BITMAP
3000
9840
8880
8900
D800
0000
0400
0880
1260
0220
2620
4340
ENDCHAR
STARTCHAR ampersand
ENCODING 38
SWIDTH 1255 0
DWIDTH 15 0
BBX 13 9 1 0
BITMAP
0018
0008
3B88
4DF0
8840
9080
E080
C488
78F0
ENDCHAR
STARTCHAR quotesingle
ENCODING 39
SWIDTH 270 0
DWIDTH 3 0
BBX 1 4 1 5
BITMAP
80
80
80
80
ENDCHAR
STARTCHAR parenleft
ENCODING 40
SWIDTH 517 0
DWIDTH 6 0
BBX 4 13 1 -2
BITMAP
10
20
40
40
C0
80
80
C0
C0
C0
40
60
30
ENDCHAR
STARTCHAR parenright
ENCODING 41
SWIDTH 517 0
DWIDTH 6 0
BBX 4 13 1 -2
BITMAP
C0
60
20
30
30
10
10
10
10
30
20
40
80
ENDCHAR
STARTCHAR asterisk
ENCODING 42
SWIDTH 698 0
DWIDTH 8 0
BBX 7 6 1 3
BITMAP
5C
30
8E
00
28
58
ENDCHAR
STARTCHAR plus
ENCODING 43
SWIDTH 528 0
DWIDTH 6 0
BBX 6 1 0 3
BITMAP
FC
ENDCHAR
STARTCHAR comma
ENCODING 44
SWIDTH 370 0
DWIDTH 4 0
BBX 2 4 1 -3
BITMAP
C0
40
00
80
ENDCHAR
STARTCHAR hyphen
ENCODING 45
SWIDTH 513 0
DWIDTH 6 0
BBX 4 1 1 3
BITMAP
F0
ENDCHAR
STARTCHAR period
ENCODING 46
SWIDTH 339 0
DWIDTH 4 0
BBX 2 2 1 0
BITMAP
C0
C0
ENDCHAR
STARTCHAR slash
ENCODING 47
SWIDTH 355 0
DWIDTH 4 0
BBX 4 13 0 -2
BITMAP
10
10
00
20
20
20
00
40
40
40
00
80
80
ENDCHAR
STARTCHAR zero
ENCODING 48
SWIDTH 751 0
DWIDTH 9 0
BBX 7 7 1 0
BITMAP
3C
46
86
82
C2
C4
78
ENDCHAR
STARTCHAR one
ENCODING 49
SWIDTH 494 0
DWIDTH 6 0
BBX 4 7 1 0
BITMAP
F0
60
60
60
60
60
F0
ENDCHAR
STARTCHAR two
ENCODING 50
SWIDTH 590 0
DWIDTH 7 0
BBX 5 7 1 0
BITMAP
70
98
18
10
20
40
F8
ENDCHAR
STARTCHAR three
ENCODING 51
SWIDTH 560 0
DWIDTH 7 0
BBX 6 10 0 -3
BITMAP
30
98
08
10
18
0C
0C
08
10
40
ENDCHAR
STARTCHAR four
ENCODING 52
SWIDTH 698 0
DWIDTH 8 0
BBX 7 9 1 -2
BITMAP
08
18
28
48
48
FE
08
08
08
ENDCHAR
STARTCHAR five
ENCODING 53
SWIDTH 626 0
DWIDTH 8 0
BBX 5 11 1 -3
BITMAP
08
78
F8
80
E0
30
18
18
18
20
C0
ENDCHAR
STARTCHAR six
ENCODING 54
SWIDTH 731 0
DWIDTH 9 0
BBX 7 10 1 0
BITMAP
08
10
60
40
CC
C6
C6
C6
44
78
ENDCHAR
STARTCHAR seven
ENCODING 55
SWIDTH 658 0
DWIDTH 8 0
BBX 6 10 1 -3
BITMAP
FC
FC
00
08
00
10
00
20
40
40
ENDCHAR
STARTCHAR eight
ENCODING 56
SWIDTH 732 0
DWIDTH 9 0
BBX 7 11 1 0
BITMAP
10
6C
44
44
68
38
4C
86
C6
C4
78
ENDCHAR
STARTCHAR nine
ENCODING 57
SWIDTH 731 0
DWIDTH 9 0
BBX 7 10 1 -3
BITMAP
38
4C
86
86
C6
64
0C
18
30
40
ENDCHAR
STARTCHAR colon
ENCODING 58
SWIDTH 339 0
DWIDTH 4 0
BBX 2 6 1 0
BITMAP
C0
00
00
00
C0
C0
ENDCHAR
STARTCHAR semicolon
ENCODING 59
SWIDTH 370 0
DWIDTH 4 0
BBX 2 9 1 -3
BITMAP
C0
00
00
00
00
C0
40
00
80
ENDCHAR
STARTCHAR less
ENCODING 60
SWIDTH 471 0
DWIDTH 6 0
BBX 4 5 1 1
BITMAP
20
00
C0
60
30
ENDCHAR
STARTCHAR equal
ENCODING 61
SWIDTH 527 0
DWIDTH 6 0
BBX 6 1 0 2
BITMAP
FC
ENDCHAR
STARTCHAR greater
ENCODING 62
SWIDTH 471 0
DWIDTH 6 0
BBX 4 5 1 1
BITMAP
C0
60
30
20
80
ENDCHAR
STARTCHAR question
ENCODING 63
SWIDTH 484 0
DWIDTH 6 0
BBX 5 10 0 0
BITMAP
60
B8
18
10
20
60
20
00
20
60
ENDCHAR
STARTCHAR at
ENCODING 64
SWIDTH 1339 0
DWIDTH 16 0
BBX 14 13 1 -3
BITMAP
03C0
1870
2018
404C
C7CC
88C4
88C4
88CC
CCC8
C7F0
6000
7000
1C00
ENDCHAR
STARTCHAR A
ENCODING 65
SWIDTH 870 0
DWIDTH 10 0
BBX 10 10 0 0
BITMAP
0400
0C00
0600
1200
1200
0300
3F00
0180
4080
F1C0
ENDCHAR
STARTCHAR B
ENCODING 66
SWIDTH 789 0
DWIDTH 9 0
BBX 8 10 1 0
BITMAP
18
66
42
42
44
7E
43
43
42
FC
ENDCHAR
STARTCHAR C
ENCODING 67
SWIDTH 820 0
DWIDTH 10 0
BBX 8 10 1 0
BITMAP
0C
27
41
C0
80
80
C0
C0
61
3C
ENDCHAR
STARTCHAR D
ENCODING 68
SWIDTH 889 0
DWIDTH 11 0
BBX 9 10 1 0
BITMAP
1800
6600
4300
4180
4180
4180
4180
4100
4200
FC00
ENDCHAR
STARTCHAR E
ENCODING 69
SWIDTH 814 0
DWIDTH 10 0
BBX 8 9 1 0
BITMAP
42
40
40
48
48
40
41
43
FF
ENDCHAR
STARTCHAR F
ENCODING 70
SWIDTH 774 0
DWIDTH 9 0
BBX 7 9 1 0
BITMAP
42
40
40
48
48
40
40
40
F0
ENDCHAR
STARTCHAR G
ENCODING 71
SWIDTH 910 0
DWIDTH 11 0
BBX 9 10 1 0
BITMAP
0E00
3300
4100
C000
8000
8780
C100
C100
6100
3E00
ENDCHAR
STARTCHAR H
ENCODING 72
SWIDTH 954 0
DWIDTH 11 0
BBX 10 9 1 0
BITMAP
6180
4180
4180
4180
7F80
4180
4180
4180
F3C0
ENDCHAR
STARTCHAR I
ENCODING 73
SWIDTH 434 0
DWIDTH 5 0
BBX 4 9 1 0
BITMAP
60
40
40
40
40
40
40
40
F0
ENDCHAR
STARTCHAR J
ENCODING 74
SWIDTH 424 0
DWIDTH 5 0
BBX 3 12 1 -3
BITMAP
60
40
40
40
40
40
40
40
40
40
00
80
ENDCHAR
STARTCHAR K
ENCODING 75
SWIDTH 860 0
DWIDTH 10 0
BBX 9 9 1 0
BITMAP
6300
4200
4400
4800
5800
4C00
4600
4200
F380
ENDCHAR
STARTCHAR L
ENCODING 76
SWIDTH 784 0
DWIDTH 9 0
BBX 8 9 1 0
BITMAP
60
40
40
40
40
40
41
43
FF
ENDCHAR
STARTCHAR M
ENCODING 77
SWIDTH 1076 0
DWIDTH 13 0
BBX 11 9 1 0
BITMAP
E0C0
6040
7140
7140
5240
5A40
4840
4C40
ECE0
ENDCHAR
STARTCHAR N
ENCODING 78
SWIDTH 874 0
DWIDTH 10 0
BBX 8 9 1 0
BITMAP
C1
61
71
59
4D
4D
47
43
E1
ENDCHAR
STARTCHAR O
ENCODING 79
SWIDTH 929 0
DWIDTH 11 0
BBX 9 10 1 0
BITMAP
0C00
2700
4180
C180
8080
8080
C080
C180
6100
3E00
ENDCHAR
STARTCHAR P
ENCODING 80
SWIDTH 779 0
DWIDTH 9 0
BBX 8 10 1 0
BITMAP
08
66
43
43
42
5C
40
40
40
F0
ENDCHAR
STARTCHAR Q
ENCODING 81
SWIDTH 929 0
DWIDTH 11 0
BBX 11 13 1 -3
BITMAP
0C00
2700
4180
C180
8080
8080
C080
C180
6100
3E00
0300
0180
00E0
ENDCHAR
STARTCHAR R
ENCODING 82
SWIDTH 809 0
DWIDTH 10 0
BBX 9 10 1 0
BITMAP
0800
6600
4600
4200
4600
5800
4C00
4400
4600
E380
ENDCHAR
STARTCHAR S
ENCODING 83
SWIDTH 700 0
DWIDTH 8 0
BBX 7 10 1 0
BITMAP
38
4C
C4
C0
60
38
0C
06
84
F8
ENDCHAR
STARTCHAR T
ENCODING 84
SWIDTH 832 0
DWIDTH 10 0
BBX 8 9 1 0
BITMAP
DB
99
18
18
18
18
18
18
3C
ENDCHAR
STARTCHAR U
ENCODING 85
SWIDTH 898 0
DWIDTH 11 0
BBX 8 9 2 0
BITMAP
C3
80
80
80
80
80
82
C2
7C
ENDCHAR
STARTCHAR V
ENCODING 86
SWIDTH 873 0
DWIDTH 10 0
BBX 9 9 1 0
BITMAP
C180
4100
4100
6000
2200
3000
1400
1800
1800
ENDCHAR
STARTCHAR W
ENCODING 87
SWIDTH 1195 0
DWIDTH 14 0
BBX 13 9 1 0
BITMAP
C618
C210
4210
6300
2520
2520
3180
18C0
1880
ENDCHAR
STARTCHAR X
ENCODING 88
SWIDTH 873 0
DWIDTH 10 0
BBX 10 9 0 0
BITMAP
7180
3100
1A00
0C00
0C00
0600
1300
2180
F3C0
ENDCHAR
STARTCHAR Y
ENCODING 89
SWIDTH 803 0
DWIDTH 10 0
BBX 8 9 1 0
BITMAP
C3
C2
60
24
38
18
18
18
3C
ENDCHAR
STARTCHAR Z
ENCODING 90
SWIDTH 790 0
DWIDTH 9 0
BBX 7 10 1 0
BITMAP
80
C2
86
0C
18
10
30
60
42
FE
ENDCHAR
STARTCHAR bracketleft
ENCODING 91
SWIDTH 435 0
DWIDTH 5 0
BBX 4 14 1 -3
BITMAP
C0
C0
C0
C0
C0
C0
C0
C0
C0
C0
C0
C0
C0
F0
ENDCHAR
STARTCHAR backslash
ENCODING 92
SWIDTH 355 0
DWIDTH 4 0
BBX 4 13 0 -2
BITMAP
80
00
40
40
40
00
20
20
20
00
10
10
10
ENDCHAR
STARTCHAR bracketright
ENCODING 93
SWIDTH 435 0
DWIDTH 5 0
BBX 3 14 1 -3
BITMAP
60
60
60
60
60
60
60
60
60
60
60
60
60
E0
ENDCHAR
STARTCHAR asciicircum
ENCODING 94
SWIDTH 597 0
DWIDTH 7 0
BBX 6 5 1 3
BITMAP
30
50
18
88
0C
ENDCHAR
STARTCHAR underscore
ENCODING 95
SWIDTH 498 0
DWIDTH 6 0
BBX 6 1 0 -2
BITMAP
FC
ENDCHAR
STARTCHAR grave
ENCODING 96
SWIDTH 380 0
DWIDTH 5 0
BBX 3 3 1 8
BITMAP
C0
40
20
ENDCHAR
STARTCHAR a
ENCODING 97
SWIDTH 621 0
DWIDTH 7 0
BBX 6 6 1 0
BITMAP
70
88
F8
88
98
EC
ENDCHAR
STARTCHAR b
ENCODING 98
SWIDTH 705 0
DWIDTH 8 0
BBX 8 10 0 0
BITMAP
E0
60
60
60
7E
62
63
62
62
5C
ENDCHAR
STARTCHAR c
ENCODING 99
SWIDTH 613 0
DWIDTH 7 0
BBX 6 6 1 0
BITMAP
78
C0
80
C0
C4
70
ENDCHAR
STARTCHAR d
ENCODING 100
SWIDTH 705 0
DWIDTH 8 0
BBX 7 10 1 0
BITMAP
0C
04
04
04
7C
C4
84
C4
C4
76
ENDCHAR
STARTCHAR e
ENCODING 101
SWIDTH 643 0
DWIDTH 8 0
BBX 6 6 1 0
BITMAP
38
CC
8C
F0
C4
78
ENDCHAR
STARTCHAR f
ENCODING 102
SWIDTH 439 0
DWIDTH 5 0
BBX 5 11 1 0
BITMAP
18
28
40
40
40
40
40
40
40
40
F0
ENDCHAR
STARTCHAR g
ENCODING 103
SWIDTH 640 0
DWIDTH 8 0
BBX 6 9 1 -3
BITMAP
78
88
88
F0
20
70
1C
88
F0
ENDCHAR
STARTCHAR h
ENCODING 104
SWIDTH 699 0
DWIDTH 8 0
BBX 8 10 0 0
BITMAP
E0
60
60
60
7E
62
62
62
62
73
ENDCHAR
STARTCHAR i
ENCODING 105
SWIDTH 389 0
DWIDTH 5 0
BBX 3 10 1 0
BITMAP
C0
40
00
40
C0
40
40
40
40
E0
ENDCHAR
STARTCHAR j
ENCODING 106
SWIDTH 379 0
DWIDTH 5 0
BBX 2 12 1 -2
BITMAP
C0
40
00
40
C0
40
40
40
40
40
40
80
ENDCHAR
STARTCHAR k
ENCODING 107
SWIDTH 689 0
DWIDTH 8 0
BBX 8 10 0 0
BITMAP
E0
60
60
60
66
64
68
6C
66
77
ENDCHAR
STARTCHAR l
ENCODING 108
SWIDTH 369 0
DWIDTH 4 0
BBX 4 10 0 0
BITMAP
E0
60
60
60
60
60
60
60
60
70
ENDCHAR
STARTCHAR m
ENCODING 109
SWIDTH 1039 0
DWIDTH 12 0
BBX 11 7 1 0
BITMAP
4000
DDC0
4440
4440
4440
4440
E660
ENDCHAR
STARTCHAR n
ENCODING 110
SWIDTH 719 0
DWIDTH 9 0
BBX 7 6 1 0
BITMAP
DC
44
44
44
44
E6
ENDCHAR
STARTCHAR o
ENCODING 111
SWIDTH 671 0
DWIDTH 8 0
BBX 6 6 1 0
BITMAP
7C
CC
84
C4
CC
70
ENDCHAR
STARTCHAR p
ENCODING 112
SWIDTH 735 0
DWIDTH 9 0
BBX 7 9 1 -3
BITMAP
DC
46
46
46
44
78
40
40
F0
ENDCHAR
STARTCHAR q
ENCODING 113
SWIDTH 705 0
DWIDTH 8 0
BBX 7 9 1 -3
BITMAP
7C
C4
84
C4
C4
74
04
04
1E
ENDCHAR
STARTCHAR r
ENCODING 114
SWIDTH 519 0
DWIDTH 6 0
BBX 5 6 1 0
BITMAP
F8
40
40
40
40
F0
ENDCHAR
STARTCHAR s
ENCODING 115
SWIDTH 559 0
DWIDTH 7 0
BBX 5 6 1 0
BITMAP
70
98
48
B0
88
F0
ENDCHAR
STARTCHAR t
ENCODING 116
SWIDTH 456 0
DWIDTH 5 0
BBX 5 9 0 0
BITMAP
20
60
E0
78
60
60
60
20
38
ENDCHAR
STARTCHAR u
ENCODING 117
SWIDTH 699 0
DWIDTH 8 0
BBX 8 7 0 0
BITMAP
22
EE
66
66
66
66
3F
ENDCHAR
STARTCHAR v
ENCODING 118
SWIDTH 620 0
DWIDTH 7 0
BBX 7 6 0 0
BITMAP
C6
60
24
30
38
10
ENDCHAR
STARTCHAR w
ENCODING 119
SWIDTH 899 0
DWIDTH 11 0
BBX 10 6 0 0
BITMAP
CCC0
6440
2600
3280
3B00
1100
ENDCHAR
STARTCHAR x
ENCODING 120
SWIDTH 618 0
DWIDTH 7 0
BBX 7 6 0 0
BITMAP
66
34
10
38
4C
E6
ENDCHAR
STARTCHAR y
ENCODING 121
SWIDTH 620 0
DWIDTH 7 0
BBX 7 9 0 -3
BITMAP
C6
60
24
30
38
10
10
20
40
ENDCHAR
STARTCHAR z
ENCODING 122
SWIDTH 611 0
DWIDTH 7 0
BBX 5 6 1 0
BITMAP
F8
90
00
00
48
F8
ENDCHAR
STARTCHAR braceleft
ENCODING 123
SWIDTH 496 0
DWIDTH 6 0
BBX 4 13 0 -2
BITMAP
10
10
10
10
10
20
C0
20
10
10
10
10
10
ENDCHAR
STARTCHAR bar
ENCODING 124
SWIDTH 373 0
DWIDTH 4 0
BBX 1 14 2 -2
BITMAP
80
80
80
80
80
80
80
80
80
80
80
80
80
80
ENDCHAR
STARTCHAR braceright
ENCODING 125
SWIDTH 496 0
DWIDTH 6 0
BBX 4 14 1 -3
BITMAP
40
40
40
40
40
40
10
20
40
40
40
40
40
80
ENDCHAR
STARTCHAR asciitilde
ENCODING 126
SWIDTH 615 0
DWIDTH 7 0
BBX 5 2 1 3
BITMAP
E0
38
ENDCHAR
STARTCHAR uni00A0
ENCODING 160
SWIDTH 279 0
DWIDTH 3 0
BBX 1 1 0 0
BITMAP
00
ENDCHAR
STARTCHAR exclamdown
ENCODING 161
SWIDTH 349 0
DWIDTH 4 0
BBX 2 9 1 -3
BITMAP
C0
00
00
40
40
C0
C0
C0
C0
ENDCHAR
STARTCHAR cent
ENCODING 162
SWIDTH 613 0
DWIDTH 7 0
BBX 6 6 1 0
BITMAP
78
80
80
C0
C4
70
ENDCHAR
STARTCHAR sterling
ENCODING 163
SWIDTH 721 0
DWIDTH 9 0
BBX 8 10 0 0
BITMAP
0E
12
20
20
20
FC
20
20
41
7F
ENDCHAR
STARTCHAR currency
ENCODING 164
SWIDTH 898 0
DWIDTH 11 0
BBX 9 9 1 0
BITMAP
8080
5F00
6300
4100
4100
4100
6200
7900
8080
ENDCHAR
STARTCHAR yen
ENCODING 165
SWIDTH 803 0
DWIDTH 10 0
BBX 8 9 1 0
BITMAP
C3
C2
60
24
38
18
18
18
3C
ENDCHAR
STARTCHAR brokenbar
ENCODING 166
SWIDTH 373 0
DWIDTH 4 0
BBX 1 14 2 -2
BITMAP
80
80
80
80
80
80
00
00
00
80
80
80
80
80
ENDCHAR
STARTCHAR section
ENCODING 167
SWIDTH 675 0
DWIDTH 8 0
BBX 6 11 1 -1
BITMAP
38
4C
94
90
88
C8
44
24
24
A4
F8
ENDCHAR
STARTCHAR dieresis
ENCODING 168
SWIDTH 600 0
DWIDTH 7 0
BBX 5 2 1 8
BITMAP
D8
88
ENDCHAR
STARTCHAR copyright
ENCODING 169
SWIDTH 1009 0
DWIDTH 12 0
BBX 10 10 1 0
BITMAP
0E00
3380
40C0
9EC0
9240
B040
9840
DC80
6080
3E00
ENDCHAR
STARTCHAR ordfeminine
ENCODING 170
SWIDTH 541 0
DWIDTH 6 0
BBX 5 4 1 5
BITMAP
F0
F0
90
F8
ENDCHAR
STARTCHAR guillemotleft
ENCODING 171
SWIDTH 669 0
DWIDTH 8 0
BBX 6 6 1 0
BITMAP
20
48
D8
C8
64
20
ENDCHAR
STARTCHAR logicalnot
ENCODING 172
SWIDTH 578 0
DWIDTH 7 0
BBX 6 3 0 1
BITMAP
FC
04
04
ENDCHAR
STARTCHAR softhyphen
ENCODING 173
SWIDTH 513 0
DWIDTH 6 0
BBX 4 1 1 3
BITMAP
F0
ENDCHAR
STARTCHAR registered
ENCODING 174
SWIDTH 1009 0
DWIDTH 12 0
BBX 10 10 1 0
BITMAP
0E00
3380
40C0
9AC0
9A40
9C40
9E40
FB80
6080
3E00
ENDCHAR
STARTCHAR macron
ENCODING 175
SWIDTH 600 0
DWIDTH 7 0
BBX 5 1 1 9
BITMAP
F8
ENDCHAR
STARTCHAR degree
ENCODING 176
SWIDTH 431 0
DWIDTH 5 0
BBX 4 4 0 7
BITMAP
20
50
90
70
ENDCHAR
STARTCHAR plusminus
ENCODING 177
SWIDTH 527 0
DWIDTH 6 0
BBX 6 5 0 -1
BITMAP
FC
00
00
00
FC
ENDCHAR
STARTCHAR twosuperior
ENCODING 178
SWIDTH 491 0
DWIDTH 6 0
BBX 4 5 1 5
BITMAP
60
30
20
40
F0
ENDCHAR
STARTCHAR threesuperior
ENCODING 179
SWIDTH 467 0
DWIDTH 6 0
BBX 4 7 1 3
BITMAP
E0
20
20
60
30
20
C0
ENDCHAR
STARTCHAR acute
ENCODING 180
SWIDTH 380 0
DWIDTH 5 0
BBX 3 3 1 8
BITMAP
60
40
80
ENDCHAR
STARTCHAR uni00B5
ENCODING 181
SWIDTH 696 0
DWIDTH 8 0
BBX 6 10 1 -3
BITMAP
44
CC
4C
4C
4C
4C
7C
40
40
40
ENDCHAR
STARTCHAR paragraph
ENCODING 182
SWIDTH 832 0
DWIDTH 10 0
BBX 8 13 1 -3
BITMAP
30
7B
FA
FA
FA
FA
02
02
02
02
02
02
1B
ENDCHAR
STARTCHAR periodcentered
ENCODING 183
SWIDTH 339 0
DWIDTH 4 0
BBX 2 2 1 2
BITMAP
C0
C0
ENDCHAR
STARTCHAR cedilla
ENCODING 184
SWIDTH 600 0
DWIDTH 7 0
BBX 2 3 3 -3
BITMAP
80
40
C0
ENDCHAR
STARTCHAR onesuperior
ENCODING 185
SWIDTH 427 0
DWIDTH 5 0
BBX 3 5 1 5
BITMAP
E0
40
40
40
E0
ENDCHAR
STARTCHAR ordmasculine
ENCODING 186
SWIDTH 591 0
DWIDTH 7 0
BBX 5 5 1 5
BITMAP
30
88
88
88
70
ENDCHAR
STARTCHAR guillemotright
ENCODING 187
SWIDTH 669 0
DWIDTH 8 0
BBX 6 6 1 0
BITMAP
10
48
6C
4C
88
10
ENDCHAR
STARTCHAR onequarter
ENCODING 188
SWIDTH 1044 0
DWIDTH 13 0
BBX 11 13 1 -2
BITMAP
0080
E000
4100
4000
4200
E000
0400
0840
0840
1140
0240
27E0
0040
ENDCHAR
STARTCHAR onehalf
ENCODING 189
SWIDTH 1126 0
DWIDTH 14 0
BBX 12 12 1 -1
BITMAP
0080
E000
4100
4000
4200
E000
0400
08E0
0820
1020
0050
21F0
ENDCHAR
STARTCHAR threequarters
ENCODING 190
SWIDTH 1084 0
DWIDTH 13 0
BBX 11 15 1 -3
BITMAP
0040
0000
E080
2000
2100
6000
3200
2000
C440
08C0
0140
1240
03E0
2040
0040
ENDCHAR
STARTCHAR questiondown
ENCODING 191
SWIDTH 404 0
DWIDTH 5 0
BBX 4 9 0 -3
BITMAP
30
00
00
20
20
40
80
C0
70
ENDCHAR
STARTCHAR Agrave
ENCODING 192
SWIDTH 870 0
DWIDTH 10 0
BBX 10 14 0 0
BITMAP
1800
0800
0400
0000
0400
0C00
0600
1200
1200
0300
3F00
0180
4080
F1C0
ENDCHAR
STARTCHAR Aacute
ENCODING 193
SWIDTH 870 0
DWIDTH 10 0
BBX 10 14 0 0
BITMAP
0200
0600
0000
0000
0400
0C00
0600
1200
1200
0300
3F00
0180
4080
F1C0
ENDCHAR
STARTCHAR Acircumflex
ENCODING 194
SWIDTH 870 0
DWIDTH 10 0
BBX 10 13 0 0
BITMAP
0E00
0300
0000
0400
0C00
0600
1200
1200
0300
3F00
0180
4080
F1C0
ENDCHAR
STARTCHAR Atilde
ENCODING 195
SWIDTH 870 0
DWIDTH 10 0
BBX 10 14 0 0
BITMAP
0800
1E00
0000
0000
0400
0C00
0600
1200
1200
0300
3F00
0180
4080
F1C0
ENDCHAR
STARTCHAR Adieresis
ENCODING 196
SWIDTH 870 0
DWIDTH 10 0
BBX 10 13 0 0
BITMAP
1300
1000
0000
0400
0C00
0600
1200
1200
0300
3F00
0180
4080
F1C0
ENDCHAR
STARTCHAR Aring
ENCODING 197
SWIDTH 870 0
DWIDTH 10 0
BBX 10 14 0 0
BITMAP
0400
0200
0800
0000
0400
0C00
0600
1200
1200
0300
3F00
0180
4080
F1C0
ENDCHAR
STARTCHAR AE
ENCODING 198
SWIDTH 1100 0
DWIDTH 13 0
BBX 12 10 0 0
BITMAP
0010
0630
0A10
0A40
1240
0240
2240
0210
4210
E7F0
ENDCHAR
STARTCHAR Ccedilla
ENCODING 199
SWIDTH 820 0
DWIDTH 10 0
BBX 8 13 1 -3
BITMAP
0C
27
41
C0
80
80
C0
C0
61
3C
08
08
08
ENDCHAR
STARTCHAR Egrave
ENCODING 200
SWIDTH 814 0
DWIDTH 10 0
BBX 8 14 1 0
BITMAP
20
30
08
00
00
42
40
40
48
48
40
41
43
FF
ENDCHAR
STARTCHAR Eacute
ENCODING 201
SWIDTH 814 0
DWIDTH 10 0
BBX 8 14 1 0
BITMAP
0C
08
10
00
00
42
40
40
48
48
40
41
43
FF
ENDCHAR
STARTCHAR Ecircumflex
ENCODING 202
SWIDTH 814 0
DWIDTH 10 0
BBX 8 13 1 0
BITMAP
28
4E
00
00
42
40
40
48
48
40
41
43
FF
ENDCHAR
STARTCHAR Edieresis
ENCODING 203
SWIDTH 814 0
DWIDTH 10 0
BBX 8 13 1 0
BITMAP
66
44
00
00
42
40
40
48
48
40
41
43
FF
ENDCHAR
STARTCHAR Igrave
ENCODING 204
SWIDTH 434 0
DWIDTH 5 0
BBX 5 14 0 0
BITMAP
C0
60
20
00
00
30
20
20
20
20
20
20
20
78
ENDCHAR
STARTCHAR Iacute
ENCODING 205
SWIDTH 434 0
DWIDTH 5 0
BBX 4 14 1 0
BITMAP
30
60
40
00
00
60
40
40
40
40
40
40
40
F0
ENDCHAR
STARTCHAR Icircumflex
ENCODING 206
SWIDTH 434 0
DWIDTH 5 0
BBX 5 14 0 0
BITMAP
20
70
98
00
00
30
20
20
20
20
20
20
20
78
ENDCHAR
STARTCHAR Idieresis
ENCODING 207
SWIDTH 434 0
DWIDTH 5 0
BBX 5 13 0 0
BITMAP
D8
88
00
00
30
20
20
20
20
20
20
20
78
ENDCHAR
STARTCHAR Eth
ENCODING 208
SWIDTH 889 0
DWIDTH 11 0
BBX 9 10 1 0
BITMAP
1800
6600
4300
4180
4180
4180
4180
4100
4200
FC00
ENDCHAR
STARTCHAR Ntilde
ENCODING 209
SWIDTH 874 0
DWIDTH 10 0
BBX 8 14 1 0
BITMAP
10
3C
00
00
00
C1
61
71
59
4D
4D
47
43
E1
ENDCHAR
STARTCHAR Ograve
ENCODING 210
SWIDTH 929 0
DWIDTH 11 0
BBX 9 14 1 0
BITMAP
3000
1800
0800
0000
0C00
2700
4180
C180
8080
8080
C080
C180
6100
3E00
ENDCHAR
STARTCHAR Oacute
ENCODING 211
SWIDTH 929 0
DWIDTH 11 0
BBX 9 14 1 0
BITMAP
0600
0C00
0800
0000
0C00
2700
4180
C180
8080
8080
C080
C180
6100
3E00
ENDCHAR
STARTCHAR Ocircumflex
ENCODING 212
SWIDTH 929 0
DWIDTH 11 0
BBX 9 14 1 0
BITMAP
0800
1C00
2600
0000
0C00
2700
4180
C180
8080
8080
C080
C180
6100
3E00
ENDCHAR
STARTCHAR Otilde
ENCODING 213
SWIDTH 929 0
DWIDTH 11 0
BBX 9 13 1 0
BITMAP
3E00
0000
0000
0C00
2700
4180
C180
8080
8080
C080
C180
6100
3E00
ENDCHAR
STARTCHAR Odieresis
ENCODING 214
SWIDTH 929 0
DWIDTH 11 0
BBX 9 13 1 0
BITMAP
3200
2200
0000
0C00
2700
4180
C180
8080
8080
C080
C180
6100
3E00
ENDCHAR
STARTCHAR multiply
ENCODING 215
SWIDTH 509 0
DWIDTH 6 0
BBX 6 5 0 1
BITMAP
48
30
30
48
84
ENDCHAR
STARTCHAR Oslash
ENCODING 216
SWIDTH 929 0
DWIDTH 11 0
BBX 9 11 1 -1
BITMAP
0D00
2700
4380
C580
8080
8880
C080
D180
6100
3E00
4000
ENDCHAR
STARTCHAR Ugrave
ENCODING 217
SWIDTH 898 0
DWIDTH 11 0
BBX 8 14 2 0
BITMAP
60
30
10
00
00
C3
80
80
80
80
80
82
C2
7C
ENDCHAR
STARTCHAR Uacute
ENCODING 218
SWIDTH 898 0
DWIDTH 11 0
BBX 8 14 2 0
BITMAP
0C
18
10
00
00
C3
80
80
80
80
80
82
C2
7C
ENDCHAR
STARTCHAR Ucircumflex
ENCODING 219
SWIDTH 898 0
DWIDTH 11 0
BBX 8 14 2 0
BITMAP
10
38
4C
00
00
C3
80
80
80
80
80
82
C2
7C
ENDCHAR
STARTCHAR Udieresis
ENCODING 220
SWIDTH 898 0
DWIDTH 11 0
BBX 8 13 2 0
BITMAP
64
44
00
00
C3
80
80
80
80
80
82
C2
7C
ENDCHAR
STARTCHAR Yacute
ENCODING 221
SWIDTH 803 0
DWIDTH 10 0
BBX 8 14 1 0
BITMAP
0C
08
10
00
00
C3
C2
60
24
38
18
18
18
3C
ENDCHAR
STARTCHAR Thorn
ENCODING 222
SWIDTH 779 0
DWIDTH 9 0
BBX 8 9 1 0
BITMAP
60
40
7E
43
43
42
58
40
F0
ENDCHAR
STARTCHAR germandbls
ENCODING 223
SWIDTH 779 0
DWIDTH 9 0
BBX 7 11 1 0
BITMAP
18
2C
44
44
48
58
5C
4E
42
52
DE
ENDCHAR
STARTCHAR agrave
ENCODING 224
SWIDTH 621 0
DWIDTH 7 0
BBX 6 11 1 0
BITMAP
40
E0
20
00
00
70
88
F8
88
98
EC
ENDCHAR
STARTCHAR aacute
ENCODING 225
SWIDTH 621 0
DWIDTH 7 0
BBX 6 11 1 0
BITMAP
18
30
20
00
00
70
88
F8
88
98
EC
ENDCHAR
STARTCHAR acircumflex
ENCODING 226
SWIDTH 621 0
DWIDTH 7 0
BBX 6 11 1 0
BITMAP
20
70
98
00
00
70
88
F8
88
98
EC
ENDCHAR
STARTCHAR atilde
ENCODING 227
SWIDTH 621 0
DWIDTH 7 0
BBX 6 11 1 0
BITMAP
40
78
A0
00
00
70
88
F8
88
98
EC
ENDCHAR
STARTCHAR adieresis
ENCODING 228
SWIDTH 621 0
DWIDTH 7 0
BBX 6 10 1 0
BITMAP
D8
88
00
00
70
88
F8
88
98
EC
ENDCHAR
STARTCHAR aring
ENCODING 229
SWIDTH 621 0
DWIDTH 7 0
BBX 6 11 1 0
BITMAP
30
50
50
20
00
70
88
F8
88
98
EC
ENDCHAR
STARTCHAR ae
ENCODING 230
SWIDTH 916 0
DWIDTH 11 0
BBX 9 6 1 0
BITMAP
FF80
1980
0F80
8800
8C80
EF00
ENDCHAR
STARTCHAR ccedilla
ENCODING 231
SWIDTH 613 0
DWIDTH 7 0
BBX 6 9 1 -3
BITMAP
78
C0
80
C0
C4
70
20
10
30
ENDCHAR
STARTCHAR egrave
ENCODING 232
SWIDTH 643 0
DWIDTH 8 0
BBX 6 11 1 0
BITMAP
40
E0
10
00
00
38
CC
8C
F0
C4
78
ENDCHAR
STARTCHAR eacute
ENCODING 233
SWIDTH 643 0
DWIDTH 8 0
BBX 6 11 1 0
BITMAP
18
10
20
00
00
38
CC
8C
F0
C4
78
ENDCHAR
STARTCHAR ecircumflex
ENCODING 234
SWIDTH 643 0
DWIDTH 8 0
BBX 6 11 1 0
BITMAP
20
70
98
04
00
38
CC
8C
F0
C4
78
ENDCHAR
STARTCHAR edieresis
ENCODING 235
SWIDTH 643 0
DWIDTH 8 0
BBX 6 10 1 0
BITMAP
C8
48
00
00
38
CC
8C
F0
C4
78
ENDCHAR
STARTCHAR igrave
ENCODING 236
SWIDTH 389 0
DWIDTH 5 0
BBX 4 11 0 0
BITMAP
C0
40
20
00
20
60
20
20
20
20
70
ENDCHAR
STARTCHAR iacute
ENCODING 237
SWIDTH 389 0
DWIDTH 5 0
BBX 3 11 1 0
BITMAP
20
60
40
00
40
C0
40
40
40
40
E0
ENDCHAR
STARTCHAR icircumflex
ENCODING 238
SWIDTH 389 0
DWIDTH 5 0
BBX 5 10 0 0
BITMAP
70
98
00
20
60
20
20
20
20
70
ENDCHAR
STARTCHAR idieresis
ENCODING 239
SWIDTH 389 0
DWIDTH 5 0
BBX 5 10 0 0
BITMAP
98
90
00
20
60
20
20
20
20
70
ENDCHAR
STARTCHAR eth
ENCODING 240
SWIDTH 671 0
DWIDTH 8 0
BBX 6 11 1 0
BITMAP
04
E8
30
98
0C
7C
C4
84
C4
C8
70
ENDCHAR
STARTCHAR ntilde
ENCODING 241
SWIDTH 719 0
DWIDTH 9 0
BBX 7 11 1 0
BITMAP
20
78
00
00
00
DC
44
44
44
44
E6
ENDCHAR
STARTCHAR ograve
ENCODING 242
SWIDTH 671 0
DWIDTH 8 0
BBX 6 11 1 0
BITMAP
60
20
10
00
00
7C
CC
84
C4
CC
70
ENDCHAR
STARTCHAR oacute
ENCODING 243
SWIDTH 671 0
DWIDTH 8 0
BBX 6 11 1 0
BITMAP
18
18
20
00
00
7C
CC
84
C4
CC
70
ENDCHAR
STARTCHAR ocircumflex
ENCODING 244
SWIDTH 671 0
DWIDTH 8 0
BBX 6 10 1 0
BITMAP
30
8C
00
00
7C
CC
84
C4
CC
70
ENDCHAR
STARTCHAR otilde
ENCODING 245
SWIDTH 671 0
DWIDTH 8 0
BBX 6 10 1 0
BITMAP
78
10
00
00
7C
CC
84
C4
CC
70
ENDCHAR
STARTCHAR odieresis
ENCODING 246
SWIDTH 671 0
DWIDTH 8 0
BBX 6 10 1 0
BITMAP
48
48
00
00
7C
CC
84
C4
CC
70
ENDCHAR
STARTCHAR divide
ENCODING 247
SWIDTH 527 0
DWIDTH 6 0
BBX 6 6 0 1
BITMAP
30
30
00
FC
00
30
ENDCHAR
STARTCHAR oslash
ENCODING 248
SWIDTH 671 0
DWIDTH 8 0
BBX 6 10 1 -2
BITMAP
04
00
78
9C
84
E4
CC
70
00
80
ENDCHAR
STARTCHAR ugrave
ENCODING 249
SWIDTH 699 0
DWIDTH 8 0
BBX 8 11 0 0
BITMAP
30
10
08
00
22
EE
66
66
66
66
3F
ENDCHAR
STARTCHAR uacute
ENCODING 250
SWIDTH 699 0
DWIDTH 8 0
BBX 8 11 0 0
BITMAP
04
0C
08
00
22
EE
66
66
66
66
3F
ENDCHAR
STARTCHAR ucircumflex
ENCODING 251
SWIDTH 699 0
DWIDTH 8 0
BBX 8 10 0 0
BITMAP
1C
26
00
22
EE
66
66
66
66
3F
ENDCHAR
STARTCHAR udieresis
ENCODING 252
SWIDTH 699 0
DWIDTH 8 0
BBX 8 10 0 0
BITMAP
26
24
00
22
EE
66
66
66
66
3F
ENDCHAR
STARTCHAR yacute
ENCODING 253
SWIDTH 620 0
DWIDTH 7 0
BBX 7 14 0 -3
BITMAP
0C
08
10
00
00
C6
60
24
30
38
10
10
20
40
ENDCHAR
STARTCHAR thorn
ENCODING 254
SWIDTH 714 0
DWIDTH 9 0
BBX 8 13 0 -3
BITMAP
E0
60
60
60
7E
63
63
63
62
7C
60
60
70
ENDCHAR
STARTCHAR ydieresis
ENCODING 255
SWIDTH 620 0
DWIDTH 7 0
BBX 7 13 0 -3
BITMAP
6C
44
00
00
C6
60
24
30
38
10
10
20
40
ENDCHAR
STARTCHAR Amacron
ENCODING 256
SWIDTH 870 0
DWIDTH 10 0
BBX 10 13 0 0
BITMAP
3F00
0000
0000
0400
0C00
0600
1200
1200
0300
3F00
0180
4080
F1C0
ENDCHAR
STARTCHAR amacron
ENCODING 257
SWIDTH 621 0
DWIDTH 7 0
BBX 6 10 1 0
BITMAP
F8
00
00
00
70
88
F8
88
98
EC
ENDCHAR
STARTCHAR Abreve
ENCODING 258
SWIDTH 870 0
DWIDTH 10 0
BBX 10 13 0 0
BITMAP
1A00
0400
0000
0400
0C00
0600
1200
1200
0300
3F00
0180
4080
F1C0
ENDCHAR
STARTCHAR abreve
ENCODING 259
SWIDTH 621 0
DWIDTH 7 0
BBX 6 10 1 0
BITMAP
C8
30
00
00
70
88
F8
88
98
EC
ENDCHAR
STARTCHAR Aogonek
ENCODING 260
SWIDTH 870 0
DWIDTH 10 0
BBX 10 13 0 -3
BITMAP
0400
0C00
0600
1200
1200
0300
3F00
0180
4080
F1C0
0040
0080
00C0
ENDCHAR
STARTCHAR aogonek
ENCODING 261
SWIDTH 621 0
DWIDTH 7 0
BBX 6 9 1 -3
BITMAP
70
88
F8
88
98
EC
08
18
08
ENDCHAR
STARTCHAR Cacute
ENCODING 262
SWIDTH 820 0
DWIDTH 10 0
BBX 8 14 1 0
BITMAP
04
0C
00
00
0C
27
41
C0
80
80
C0
C0
61
3C
ENDCHAR
STARTCHAR cacute
ENCODING 263
SWIDTH 613 0
DWIDTH 7 0
BBX 6 11 1 0
BITMAP
18
10
20
00
00
78
C0
80
C0
C4
70
ENDCHAR
STARTCHAR Cdotaccent
ENCODING 266
SWIDTH 820 0
DWIDTH 10 0
BBX 8 13 1 0
BITMAP
18
08
00
0C
27
41
C0
80
80
C0
C0
61
3C
ENDCHAR
STARTCHAR cdotaccent
ENCODING 267
SWIDTH 613 0
DWIDTH 7 0
BBX 6 10 1 0
BITMAP
30
20
00
00
78
C0
80
C0
C4
70
ENDCHAR
STARTCHAR Ccaron
ENCODING 268
SWIDTH 820 0
DWIDTH 10 0
BBX 8 14 1 0
BITMAP
22
34
08
00
0C
27
41
C0
80
80
C0
C0
61
3C
ENDCHAR
STARTCHAR ccaron
ENCODING 269
SWIDTH 613 0
DWIDTH 7 0
BBX 6 11 1 0
BITMAP
40
68
20
00
00
78
C0
80
C0
C4
70
ENDCHAR
STARTCHAR Dcaron
ENCODING 270
SWIDTH 889 0
DWIDTH 11 0
BBX 9 14 1 0
BITMAP
6000
3400
1000
0000
1800
6600
4300
4180
4180
4180
4180
4100
4200
FC00
ENDCHAR
STARTCHAR dcaron
ENCODING 271
SWIDTH 705 0
DWIDTH 8 0
BBX 9 10 1 0
BITMAP
0D80
0480
0500
0400
7C00
C400
8400
C400
C400
7600
ENDCHAR
STARTCHAR Dcroat
ENCODING 272
SWIDTH 889 0
DWIDTH 11 0
BBX 9 10 1 0
BITMAP
1800
6600
4300
4180
4180
4180
4180
4100
4200
FC00
ENDCHAR
STARTCHAR dcroat
ENCODING 273
SWIDTH 705 0
DWIDTH 8 0
BBX 7 11 1 0
BITMAP
04
04
3E
04
04
7C
C4
84
C4
C4
76
ENDCHAR
STARTCHAR Emacron
ENCODING 274
SWIDTH 814 0
DWIDTH 10 0
BBX 8 13 1 0
BITMAP
7E
00
00
00
42
40
40
48
48
40
41
43
FF
ENDCHAR
STARTCHAR emacron
ENCODING 275
SWIDTH 643 0
DWIDTH 8 0
BBX 6 10 1 0
BITMAP
F8
00
00
00
38
CC
8C
F0
C4
78
ENDCHAR
STARTCHAR Edotaccent
ENCODING 278
SWIDTH 814 0
DWIDTH 10 0
BBX 8 13 1 0
BITMAP
18
10
00
00
42
40
40
48
48
40
41
43
FF
ENDCHAR
STARTCHAR edotaccent
ENCODING 279
SWIDTH 643 0
DWIDTH 8 0
BBX 6 10 1 0
BITMAP
30
20
00
00
38
CC
8C
F0
C4
78
ENDCHAR
STARTCHAR Eogonek
ENCODING 280
SWIDTH 814 0
DWIDTH 10 0
BBX 8 12 1 -3
BITMAP
42
40
40
48
48
40
41
43
FF
02
04
06
ENDCHAR
STARTCHAR eogonek
ENCODING 281
SWIDTH 643 0
DWIDTH 8 0
BBX 6 9 1 -3
BITMAP
38
CC
8C
F0
C4
78
20
20
20
ENDCHAR
STARTCHAR Ecaron
ENCODING 282
SWIDTH 814 0
DWIDTH 10 0
BBX 8 14 1 0
BITMAP
60
34
10
00
00
42
40
40
48
48
40
41
43
FF
ENDCHAR
STARTCHAR ecaron
ENCODING 283
SWIDTH 643 0
DWIDTH 8 0
BBX 6 11 1 0
BITMAP
48
EC
30
00
00
38
CC
8C
F0
C4
78
ENDCHAR
STARTCHAR Gbreve
ENCODING 286
SWIDTH 910 0
DWIDTH 11 0
BBX 9 13 1 0
BITMAP
3200
0800
0000
0E00
3300
4100
C000
8000
8780
C100
C100
6100
3E00
ENDCHAR
STARTCHAR gbreve
ENCODING 287
SWIDTH 640 0
DWIDTH 8 0
BBX 6 13 1 -3
BITMAP
C8
20
00
00
78
88
88
F0
20
70
1C
88
F0
ENDCHAR
STARTCHAR Gdotaccent
ENCODING 288
SWIDTH 910 0
DWIDTH 11 0
BBX 9 13 1 0
BITMAP
0C00
0800
0000
0E00
3300
4100
C000
8000
8780
C100
C100
6100
3E00
ENDCHAR
STARTCHAR gdotaccent
ENCODING 289
SWIDTH 640 0
DWIDTH 8 0
BBX 6 13 1 -3
BITMAP
30
20
00
00
78
88
88
F0
20
70
1C
88
F0
ENDCHAR
STARTCHAR Gcommaaccent
ENCODING 290
SWIDTH 910 0
DWIDTH 11 0
BBX 9 14 1 -4
BITMAP
0E00
3300
4100
C000
8000
8780
C100
C100
6100
3E00
0000
0C00
0800
0800
ENDCHAR
STARTCHAR gcommaaccent
ENCODING 291
SWIDTH 640 0
DWIDTH 8 0
BBX 6 14 1 -3
BITMAP
20
20
70
00
00
78
88
88
F0
20
70
1C
88
F0
ENDCHAR
STARTCHAR Hbar
ENCODING 294
SWIDTH 954 0
DWIDTH 11 0
BBX 10 9 1 0
BITMAP
6180
4180
4180
4180
7F80
4180
4180
4180
F3C0
ENDCHAR
STARTCHAR hbar
ENCODING 295
SWIDTH 699 0
DWIDTH 8 0
BBX 8 11 0 0
BITMAP
20
60
F8
60
60
7E
62
62
62
62
73
ENDCHAR
STARTCHAR Imacron
ENCODING 298
SWIDTH 434 0
DWIDTH 5 0
BBX 5 13 0 0
BITMAP
F8
00
00
00
30
20
20
20
20
20
20
20
78
ENDCHAR
STARTCHAR imacron
ENCODING 299
SWIDTH 389 0
DWIDTH 5 0
BBX 5 10 0 0
BITMAP
F8
00
00
20
60
20
20
20
20
70
ENDCHAR
STARTCHAR Iogonek
ENCODING 302
SWIDTH 434 0
DWIDTH 5 0
BBX 4 12 1 -3
BITMAP
60
40
40
40
40
40
40
40
F0
20
40
60
ENDCHAR
STARTCHAR iogonek
ENCODING 303
SWIDTH 389 0
DWIDTH 5 0
BBX 3 13 1 -3
BITMAP
C0
40
00
40
C0
40
40
40
40
E0
00
40
40
ENDCHAR
STARTCHAR Idotaccent
ENCODING 304
SWIDTH 434 0
DWIDTH 5 0
BBX 4 13 1 0
BITMAP
60
40
00
00
60
40
40
40
40
40
40
40
F0
ENDCHAR
STARTCHAR dotlessi
ENCODING 305
SWIDTH 389 0
DWIDTH 5 0
BBX 3 7 1 0
BITMAP
40
C0
40
40
40
40
E0
ENDCHAR
STARTCHAR IJ
ENCODING 306
SWIDTH 858 0
DWIDTH 10 0
BBX 8 12 1 -3
BITMAP
63
43
43
43
43
43
43
43
F3
02
02
04
ENDCHAR
STARTCHAR ij
ENCODING 307
SWIDTH 768 0
DWIDTH 9 0
BBX 7 13 1 -3
BITMAP
C6
44
00
42
CE
46
46
46
46
E6
06
04
08
ENDCHAR
STARTCHAR Kcommaaccent
ENCODING 310
SWIDTH 860 0
DWIDTH 10 0
BBX 9 12 1 -3
BITMAP
6300
4200
4400
4800
5800
4C00
4600
4200
F380
0000
1C00
0800
ENDCHAR
STARTCHAR kcommaaccent
ENCODING 311
SWIDTH 689 0
DWIDTH 8 0
BBX 8 13 0 -3
BITMAP
E0
60
60
60
66
64
68
6C
66
77
00
1C
08
ENDCHAR
STARTCHAR Lacute
ENCODING 313
SWIDTH 784 0
DWIDTH 9 0
BBX 8 14 1 0
BITMAP
30
20
40
00
00
60
40
40
40
40
40
41
43
FF
ENDCHAR
STARTCHAR lacute
ENCODING 314
SWIDTH 369 0
DWIDTH 4 0
BBX 4 14 0 0
BITMAP
30
20
00
00
E0
60
60
60
60
60
60
60
60
70
ENDCHAR
STARTCHAR Lcommaaccent
ENCODING 315
SWIDTH 784 0
DWIDTH 9 0
BBX 8 13 1 -4
BITMAP
60
40
40
40
40
40
41
43
FF
00
18
10
10
ENDCHAR
STARTCHAR lcommaaccent
ENCODING 316
SWIDTH 369 0
DWIDTH 4 0
BBX 4 13 0 -3
BITMAP
E0
60
60
60
60
60
60
60
60
70
00
70
20
ENDCHAR
STARTCHAR Lcaron
ENCODING 317
SWIDTH 784 0
DWIDTH 9 0
BBX 8 9 1 0
BITMAP
6C
44
48
40
40
40
41
43
FF
ENDCHAR
STARTCHAR lcaron
ENCODING 318
SWIDTH 369 0
DWIDTH 4 0
BBX 6 10 0 0
BITMAP
EC
6C
68
60
60
60
60
60
60
70
ENDCHAR
STARTCHAR Ldot
ENCODING 319
SWIDTH 784 0
DWIDTH 9 0
BBX 8 9 1 0
BITMAP
60
40
42
42
40
40
41
43
FF
ENDCHAR
STARTCHAR ldot
ENCODING 320
SWIDTH 507 0
DWIDTH 6 0
BBX 6 10 0 0
BITMAP
E0
60
60
60
6C
6C
60
60
60
70
ENDCHAR
STARTCHAR Lslash
ENCODING 321
SWIDTH 784 0
DWIDTH 9 0
BBX 9 9 0 0
BITMAP
3000
2000
2200
2800
3000
6000
A080
2180
7F80
ENDCHAR
STARTCHAR lslash
ENCODING 322
SWIDTH 359 0
DWIDTH 4 0
BBX 5 10 0 0
BITMAP
E0
60
68
70
60
E0
60
60
60
70
ENDCHAR
STARTCHAR Nacute
ENCODING 323
SWIDTH 874 0
DWIDTH 10 0
BBX 8 14 1 0
BITMAP
04
0C
00
00
00
C1
61
71
59
4D
4D
47
43
E1
ENDCHAR
STARTCHAR nacute
ENCODING 324
SWIDTH 719 0
DWIDTH 9 0
BBX 7 11 1 0
BITMAP
08
18
00
00
00
DC
44
44
44
44
E6
ENDCHAR
STARTCHAR Ncommaaccent
ENCODING 325
SWIDTH 874 0
DWIDTH 10 0
BBX 8 12 1 -3
BITMAP
C1
61
71
59
4D
4D
47
43
E1
00
1C
08
ENDCHAR
STARTCHAR ncommaaccent
ENCODING 326
SWIDTH 719 0
DWIDTH 9 0
BBX 7 10 1 -4
BITMAP
DC
44
44
44
44
E6
00
18
10
10
ENDCHAR
STARTCHAR Ncaron
ENCODING 327
SWIDTH 874 0
DWIDTH 10 0
BBX 8 14 1 0
BITMAP
32
14
08
00
00
C1
61
71
59
4D
4D
47
43
E1
ENDCHAR
STARTCHAR ncaron
ENCODING 328
SWIDTH 719 0
DWIDTH 9 0
BBX 7 11 1 0
BITMAP
44
68
10
00
00
DC
44
44
44
44
E6
ENDCHAR
STARTCHAR Eng
ENCODING 330
SWIDTH 874 0
DWIDTH 10 0
BBX 8 12 1 -3
BITMAP
C1
61
71
59
4D
4D
47
43
E1
01
02
04
ENDCHAR
STARTCHAR eng
ENCODING 331
SWIDTH 719 0
DWIDTH 9 0
BBX 6 9 1 -3
BITMAP
DC
44
44
44
44
E4
04
00
08
ENDCHAR
STARTCHAR Omacron
ENCODING 332
SWIDTH 929 0
DWIDTH 11 0
BBX 9 13 1 0
BITMAP
3E00
0000
0000
0C00
2700
4180
C180
8080
8080
C080
C180
6100
3E00
ENDCHAR
STARTCHAR omacron
ENCODING 333
SWIDTH 671 0
DWIDTH 8 0
BBX 6 10 1 0
BITMAP
7C
00
00
00
7C
CC
84
C4
CC
70
ENDCHAR
STARTCHAR Ohungarumlaut
ENCODING 336
SWIDTH 929 0
DWIDTH 11 0
BBX 9 14 1 0
BITMAP
1100
3300
2200
0000
0C00
2700
4180
C180
8080
8080
C080
C180
6100
3E00
ENDCHAR
STARTCHAR ohungarumlaut
ENCODING 337
SWIDTH 671 0
DWIDTH 8 0
BBX 6 11 1 0
BITMAP
24
6C
48
00
00
7C
CC
84
C4
CC
70
ENDCHAR
STARTCHAR OE
ENCODING 338
SWIDTH 1240 0
DWIDTH 15 0
BBX 13 10 1 0
BITMAP
0C08
2318
4308
C320
8320
8360
C320
C308
6318
3FF8
ENDCHAR
STARTCHAR oe
ENCODING 339
SWIDTH 972 0
DWIDTH 12 0
BBX 10 6 1 0
BITMAP
7F80
CCC0
8FC0
CC00
CC40
7780
ENDCHAR
STARTCHAR Racute
ENCODING 340
SWIDTH 809 0
DWIDTH 10 0
BBX 9 14 1 0
BITMAP
0C00
1800
1000
0000
0800
6600
4600
4200
4600
5800
4C00
4400
4600
E380
ENDCHAR
STARTCHAR racute
ENCODING 341
SWIDTH 519 0
DWIDTH 6 0
BBX 5 11 1 0
BITMAP
10
30
00
00
00
F8
40
40
40
40
F0
ENDCHAR
STARTCHAR Rcommaaccent
ENCODING 342
SWIDTH 809 0
DWIDTH 10 0
BBX 9 13 1 -3
BITMAP
0800
6600
4600
4200
4600
5800
4C00
4400
4600
E380
0000
1C00
0800
ENDCHAR
STARTCHAR rcommaaccent
ENCODING 343
SWIDTH 519 0
DWIDTH 6 0
BBX 5 10 1 -4
BITMAP
F8
40
40
40
40
F0
00
E0
40
40
ENDCHAR
STARTCHAR Rcaron
ENCODING 344
SWIDTH 809 0
DWIDTH 10 0
BBX 9 14 1 0
BITMAP
6000
3800
1000
0000
0800
6600
4600
4200
4600
5800
4C00
4400
4600
E380
ENDCHAR
STARTCHAR rcaron
ENCODING 345
SWIDTH 519 0
DWIDTH 6 0
BBX 5 11 1 0
BITMAP
88
D0
20
00
00
F8
40
40
40
40
F0
ENDCHAR
STARTCHAR Sacute
ENCODING 346
SWIDTH 700 0
DWIDTH 8 0
BBX 7 14 1 0
BITMAP
18
18
20
00
38
4C
C4
C0
60
38
0C
06
84
F8
ENDCHAR
STARTCHAR sacute
ENCODING 347
SWIDTH 559 0
DWIDTH 7 0
BBX 5 11 1 0
BITMAP
10
38
20
00
00
70
98
48
B0
88
F0
ENDCHAR
STARTCHAR Scedilla
ENCODING 350
SWIDTH 700 0
DWIDTH 8 0
BBX 7 13 1 -3
BITMAP
38
4C
C4
C0
60
38
0C
06
84
F8
00
10
10
ENDCHAR
STARTCHAR scedilla
ENCODING 351
SWIDTH 559 0
DWIDTH 7 0
BBX 5 9 1 -3
BITMAP
70
98
48
B0
88
F0
20
30
60
ENDCHAR
STARTCHAR Scaron
ENCODING 352
SWIDTH 700 0
DWIDTH 8 0
BBX 7 14 1 0
BITMAP
44
68
10
00
38
4C
C4
C0
60
38
0C
06
84
F8
ENDCHAR
STARTCHAR scaron
ENCODING 353
SWIDTH 559 0
DWIDTH 7 0
BBX 5 11 1 0
BITMAP
C8
70
20
00
00
70
98
48
B0
88
F0
ENDCHAR
STARTCHAR uni0162
ENCODING 354
SWIDTH 832 0
DWIDTH 10 0
BBX 8 12 1 -3
BITMAP
DB
99
18
18
18
18
18
18
3C
00
08
08
ENDCHAR
STARTCHAR uni0163
ENCODING 355
SWIDTH 456 0
DWIDTH 5 0
BBX 5 12 0 -3
BITMAP
20
60
E0
78
60
60
60
20
38
10
30
30
ENDCHAR
STARTCHAR Tcaron
ENCODING 356
SWIDTH 832 0
DWIDTH 10 0
BBX 8 14 1 0
BITMAP
20
34
08
00
00
DB
99
18
18
18
18
18
18
3C
ENDCHAR
STARTCHAR tcaron
ENCODING 357
SWIDTH 456 0
DWIDTH 5 0
BBX 6 10 0 0
BITMAP
0C
2C
68
E0
78
60
60
60
20
38
ENDCHAR
STARTCHAR Tbar
ENCODING 358
SWIDTH 832 0
DWIDTH 10 0
BBX 8 9 1 0
BITMAP
DB
99
18
18
7E
18
18
18
3C
ENDCHAR
STARTCHAR tbar
ENCODING 359
SWIDTH 456 0
DWIDTH 5 0
BBX 5 9 0 0
BITMAP
20
60
E0
78
60
60
60
20
38
ENDCHAR
STARTCHAR Umacron
ENCODING 362
SWIDTH 898 0
DWIDTH 11 0
BBX 8 13 2 0
BITMAP
7C
00
00
00
C3
80
80
80
80
80
82
C2
7C
ENDCHAR
STARTCHAR umacron
ENCODING 363
SWIDTH 699 0
DWIDTH 8 0
BBX 8 10 0 0
BITMAP
3E
00
00
22
EE
66
66
66
66
3F
ENDCHAR
STARTCHAR Uring
ENCODING 366
SWIDTH 898 0
DWIDTH 11 0
BBX 8 14 2 0
BITMAP
18
28
28
00
00
C3
80
80
80
80
80
82
C2
7C
ENDCHAR
STARTCHAR uring
ENCODING 367
SWIDTH 699 0
DWIDTH 8 0
BBX 8 11 0 0
BITMAP
08
04
14
00
22
EE
66
66
66
66
3F
ENDCHAR
STARTCHAR Uhungarumlaut
ENCODING 368
SWIDTH 898 0
DWIDTH 11 0
BBX 8 14 2 0
BITMAP
26
66
44
00
00
C3
80
80
80
80
80
82
C2
7C
ENDCHAR
STARTCHAR uhungarumlaut
ENCODING 369
SWIDTH 699 0
DWIDTH 8 0
BBX 8 11 0 0
BITMAP
12
36
24
00
22
EE
66
66
66
66
3F
ENDCHAR
STARTCHAR Uogonek
ENCODING 370
SWIDTH 898 0
DWIDTH 11 0
BBX 8 12 2 -3
BITMAP
C3
80
80
80
80
80
82
C2
7C
08
18
18
ENDCHAR
STARTCHAR uogonek
ENCODING 371
SWIDTH 699 0
DWIDTH 8 0
BBX 8 10 0 -3
BITMAP
22
EE
66
66
66
66
3F
02
06
06
ENDCHAR
STARTCHAR Wcircumflex
ENCODING 372
SWIDTH 1195 0
DWIDTH 14 0
BBX 13 14 1 0
BITMAP
0200
0700
0980
0000
0000
C618
C210
4210
6300
2520
2520
3180
18C0
1880
ENDCHAR
STARTCHAR wcircumflex
ENCODING 373
SWIDTH 899 0
DWIDTH 11 0
BBX 10 10 0 0
BITMAP
0E00
1300
0000
0000
CCC0
6440
2600
3280
3B00
1100
ENDCHAR
STARTCHAR Ycircumflex
ENCODING 374
SWIDTH 803 0
DWIDTH 10 0
BBX 8 13 1 0
BITMAP
38
4E
00
00
C3
C2
60
24
38
18
18
18
3C
ENDCHAR
STARTCHAR ycircumflex
ENCODING 375
SWIDTH 620 0
DWIDTH 7 0
BBX 7 14 0 -3
BITMAP
10
38
4C
00
00
C6
60
24
30
38
10
10
20
40
ENDCHAR
STARTCHAR Ydieresis
ENCODING 376
SWIDTH 803 0
DWIDTH 10 0
BBX 8 13 1 0
BITMAP
66
44
00
00
C3
C2
60
24
38
18
18
18
3C
ENDCHAR
STARTCHAR Zacute
ENCODING 377
SWIDTH 790 0
DWIDTH 9 0
BBX 7 14 1 0
BITMAP
0C
08
10
00
80
C2
86
0C
18
10
30
60
42
FE
ENDCHAR
STARTCHAR zacute
ENCODING 378
SWIDTH 611 0
DWIDTH 7 0
BBX 5 11 1 0
BITMAP
18
10
20
00
00
F8
90
00
00
48
F8
ENDCHAR
STARTCHAR Zdotaccent
ENCODING 379
SWIDTH 790 0
DWIDTH 9 0
BBX 7 13 1 0
BITMAP
18
10
00
80
C2
86
0C
18
10
30
60
42
FE
ENDCHAR
STARTCHAR zdotaccent
ENCODING 380
SWIDTH 611 0
DWIDTH 7 0
BBX 5 10 1 0
BITMAP
30
20
00
00
F8
90
00
00
48
F8
ENDCHAR
STARTCHAR Zcaron
ENCODING 381
SWIDTH 790 0
DWIDTH 9 0
BBX 7 14 1 0
BITMAP
60
34
10
00
80
C2
86
0C
18
10
30
60
42
FE
ENDCHAR
STARTCHAR zcaron
ENCODING 382
SWIDTH 611 0
DWIDTH 7 0
BBX 5 11 1 0
BITMAP
C0
68
20
00
00
F8
90
00
00
48
F8
ENDCHAR
STARTCHAR longs
ENCODING 383
SWIDTH 439 0
DWIDTH 5 0
BBX 5 11 1 0
BITMAP
18
28
40
40
40
40
40
40
40
40
F0
ENDCHAR
STARTCHAR florin
ENCODING 402
SWIDTH 619 0
DWIDTH 7 0
BBX 7 13 0 -3
BITMAP
0E
16
20
20
20
FC
20
20
20
20
20
20
40
ENDCHAR
STARTCHAR Scommaaccent
ENCODING 536
SWIDTH 700 0
DWIDTH 8 0
BBX 7 13 1 -3
BITMAP
38
4C
C4
C0
60
38
0C
06
84
F8
00
30
10
ENDCHAR
STARTCHAR scommaaccent
ENCODING 537
SWIDTH 559 0
DWIDTH 7 0
BBX 5 10 1 -4
BITMAP
70
98
48
B0
88
F0
00
70
20
40
ENDCHAR
STARTCHAR uni021A
ENCODING 538
SWIDTH 832 0
DWIDTH 10 0
BBX 8 13 1 -4
BITMAP
DB
99
18
18
18
18
18
18
3C
00
18
08
10
ENDCHAR
STARTCHAR uni021B
ENCODING 539
SWIDTH 456 0
DWIDTH 5 0
BBX 5 13 0 -4
BITMAP
20
60
E0
78
60
60
60
20
38
00
38
10
20
ENDCHAR
STARTCHAR dotlessj
ENCODING 567
SWIDTH 379 0
DWIDTH 5 0
BBX 2 9 1 -2
BITMAP
40
C0
40
40
40
40
40
40
80
ENDCHAR
STARTCHAR uni02BC
ENCODING 700
SWIDTH 580 0
DWIDTH 7 0
BBX 2 4 2 6
BITMAP
40
C0
C0
80
ENDCHAR
STARTCHAR circumflex
ENCODING 710
SWIDTH 568 0
DWIDTH 7 0
BBX 5 2 1 8
BITMAP
70
98
ENDCHAR
STARTCHAR caron
ENCODING 711
SWIDTH 568 0
DWIDTH 7 0
BBX 4 3 1 8
BITMAP
C0
50
20
ENDCHAR
STARTCHAR breve
ENCODING 728
SWIDTH 489 0
DWIDTH 6 0
BBX 4 2 1 8
BITMAP
90
60
ENDCHAR
STARTCHAR dotaccent
ENCODING 729
SWIDTH 339 0
DWIDTH 4 0
BBX 2 2 1 8
BITMAP
C0
C0
ENDCHAR
STARTCHAR ring
ENCODING 730
SWIDTH 411 0
DWIDTH 5 0
BBX 3 3 1 8
BITMAP
40
A0
A0
ENDCHAR
STARTCHAR ogonek
ENCODING 731
SWIDTH 332 0
DWIDTH 4 0
BBX 2 3 1 -3
BITMAP
40
80
C0
ENDCHAR
STARTCHAR tilde
ENCODING 732
SWIDTH 545 0
DWIDTH 7 0
BBX 4 1 1 9
BITMAP
F0
ENDCHAR
STARTCHAR hungarumlaut
ENCODING 733
SWIDTH 590 0
DWIDTH 7 0
BBX 5 3 1 8
BITMAP
48
D8
90
ENDCHAR
STARTCHAR uni0326
ENCODING 806
SWIDTH 0 0
DWIDTH 0 0
BBX 3 2 -4 -3
BITMAP
E0
40
ENDCHAR
STARTCHAR Delta
ENCODING 916
SWIDTH 867 0
DWIDTH 10 0
BBX 9 10 1 0
BITMAP
0800
1800
1C00
2400
2400
0600
4200
0300
8100
FF80
ENDCHAR
STARTCHAR Omega
ENCODING 937
SWIDTH 929 0
DWIDTH 11 0
BBX 9 10 1 0
BITMAP
0C00
2300
4180
8080
C080
C180
6300
3400
9480
F780
ENDCHAR
STARTCHAR mu
ENCODING 956
SWIDTH 696 0
DWIDTH 8 0
BBX 6 10 1 -3
BITMAP
44
CC
4C
4C
4C
4C
7C
40
40
40
ENDCHAR
STARTCHAR pi
ENCODING 960
SWIDTH 786 0
DWIDTH 9 0
BBX 8 6 1 0
BITMAP
FF
24
24
24
24
66
ENDCHAR
STARTCHAR uni0900
ENCODING 2304
SWIDTH 0 0
DWIDTH 0 0
BBX 7 5 -8 11
BITMAP
38
66
C2
5A
08
ENDCHAR
STARTCHAR candraBindudeva
ENCODING 2305
SWIDTH 0 0
DWIDTH 0 0
BBX 7 5 -7 11
BITMAP
20
B0
86
8C
38
ENDCHAR
STARTCHAR anusvaradeva
ENCODING 2306
SWIDTH 0 0
DWIDTH 0 0
BBX 1 1 -2 12
BITMAP
80
ENDCHAR
STARTCHAR visargadeva
ENCODING 2307
SWIDTH 260 0
DWIDTH 3 0
BBX 4 8 -1 1
BITMAP
F0
00
20
20
00
00
20
20
ENDCHAR
STARTCHAR uni0904
ENCODING 2308
SWIDTH 1014 0
DWIDTH 12 0
BBX 15 15 -2 0
BITMAP
8000
4000
1F80
0040
0010
0408
0F3E
0108
0308
0318
01B8
09A8
0708
0008
0008
ENDCHAR
STARTCHAR adeva
ENCODING 2309
SWIDTH 1014 0
DWIDTH 12 0
BBX 11 10 2 0
BITMAP
4000
F3E0
1080
3080
3180
1B80
9A80
7080
0080
0080
ENDCHAR
STARTCHAR aadeva
ENCODING 2310
SWIDTH 1342 0
DWIDTH 16 0
BBX 15 10 2 0
BITMAP
4000
F3FE
1088
3088
3188
1B88
9A88
7088
0088
0088
ENDCHAR
STARTCHAR ideva
ENCODING 2311
SWIDTH 713 0
DWIDTH 9 0
BBX 10 12 0 -3
BITMAP
FFC0
0200
3E00
3000
2400
5F00
6100
6300
1E00
0800
0400
03C0
ENDCHAR
STARTCHAR iideva
ENCODING 2312
SWIDTH 713 0
DWIDTH 9 0
BBX 10 18 0 -3
BITMAP
0700
0C40
0800
0800
0400
0200
FFC0
0200
3E00
3000
2400
5F00
6100
6300
1E00
0800
0400
03C0
ENDCHAR
STARTCHAR udeva
ENCODING 2313
SWIDTH 604 0
DWIDTH 7 0
BBX 8 9 0 0
BITMAP
FF
0C
0C
1C
08
04
42
22
1E
ENDCHAR
STARTCHAR uudeva
ENCODING 2314
SWIDTH 1061 0
DWIDTH 13 0
BBX 13 9 0 0
BITMAP
FFF8
0C00
0C80
1F20
0E20
0430
4260
2200
1E00
ENDCHAR
STARTCHAR rvocalicdeva
ENCODING 2315
SWIDTH 1245 0
DWIDTH 15 0
BBX 16 10 0 -1
BITMAP
FFFF
0300
0338
7B78
47E0
1F30
1360
0364
032C
0018
ENDCHAR
STARTCHAR lvocalicdeva
ENCODING 2316
SWIDTH 919 0
DWIDTH 11 0
BBX 12 10 0 -1
BITMAP
FFF0
0300
1300
6680
64C0
20C0
1180
0300
0360
01C0
ENDCHAR
STARTCHAR ecandradeva
ENCODING 2317
SWIDTH 613 0
DWIDTH 7 0
BBX 10 18 0 -3
BITMAP
1000
30C0
1180
0700
0000
0000
FF00
6600
6600
6600
6600
2400
1000
0800
0400
0200
0200
0200
ENDCHAR
STARTCHAR eshortdeva
ENCODING 2318
SWIDTH 613 0
DWIDTH 7 0
BBX 14 18 -6 -3
BITMAP
8000
4000
3F80
0040
0020
0010
03FC
0198
0198
0198
0198
0090
0040
0020
0010
0008
0008
0008
ENDCHAR
STARTCHAR edeva
ENCODING 2319
SWIDTH 613 0
DWIDTH 7 0
BBX 8 12 0 -3
BITMAP
FF
66
66
66
66
24
10
08
04
02
02
02
ENDCHAR
STARTCHAR aideva
ENCODING 2320
SWIDTH 613 0
DWIDTH 7 0
BBX 9 17 -1 -3
BITMAP
C000
F000
0800
0400
0200
7F80
3300
3300
3300
3300
1200
0800
0400
0200
0100
0100
0100
ENDCHAR
STARTCHAR ocandradeva
ENCODING 2321
SWIDTH 1342 0
DWIDTH 16 0
BBX 16 15 2 0
BITMAP
0040
0061
0023
001E
0000
4000
F3FE
1088
3088
3188
1B88
9A88
7088
0088
0088
ENDCHAR
STARTCHAR oshortdeva
ENCODING 2322
SWIDTH 1342 0
DWIDTH 16 0
BBX 15 15 2 0
BITMAP
8000
4000
1F80
0040
0010
4008
F3FE
1088
3088
3188
1B88
9A88
7088
0088
0088
ENDCHAR
STARTCHAR odeva
ENCODING 2323
SWIDTH 1342 0
DWIDTH 16 0
BBX 15 14 2 0
BITMAP
0600
0380
0040
0010
4008
F3FE
1088
3088
3188
1B88
9A88
7088
0088
0088
ENDCHAR
STARTCHAR audeva
ENCODING 2324
SWIDTH 1342 0
DWIDTH 16 0
BBX 15 15 2 0
BITMAP
0700
0080
0640
0580
0048
4024
F3FE
1088
3088
3188
1B88
9A88
7088
0088
0088
ENDCHAR
STARTCHAR kadeva
ENCODING 2325
SWIDTH 1037 0
DWIDTH 12 0
BBX 13 9 0 0
BITMAP
FFF8
0600
1780
7740
6620
6660
1EE0
0600
0200
ENDCHAR
STARTCHAR khadeva
ENCODING 2326
SWIDTH 1084 0
DWIDTH 13 0
BBX 15 9 -1 0
BITMAP
FFFE
0808
0C48
0CE8
3D88
1898
0878
0408
0208
ENDCHAR
STARTCHAR gadeva
ENCODING 2327
SWIDTH 768 0
DWIDTH 9 0
BBX 11 9 -1 0
BITMAP
FFE0
0880
0880
0880
3880
1880
0080
0080
0080
ENDCHAR
STARTCHAR ghadeva
ENCODING 2328
SWIDTH 854 0
DWIDTH 10 0
BBX 11 9 0 0
BITMAP
FFE0
7080
4080
2880
3C80
2180
3380
0E80
0080
ENDCHAR
STARTCHAR ngadeva
ENCODING 2329
SWIDTH 832 0
DWIDTH 10 0
BBX 13 9 -1 0
BITMAP
FFF8
0100
1F00
1820
1200
0F80
0080
1180
0F00
ENDCHAR
STARTCHAR cadeva
ENCODING 2330
SWIDTH 838 0
DWIDTH 10 0
BBX 11 9 0 0
BITMAP
FFE0
0080
FC80
7E80
1880
0980
0780
0080
0080
ENDCHAR
STARTCHAR chadeva
ENCODING 2331
SWIDTH 994 0
DWIDTH 12 0
BBX 13 9 0 0
BITMAP
FFF8
00C0
70C0
61A0
3DA0
38B0
3070
10E0
0F80
ENDCHAR
STARTCHAR jadeva
ENCODING 2332
SWIDTH 828 0
DWIDTH 10 0
BBX 11 9 0 0
BITMAP
FFE0
0080
0080
0080
1F80
0880
0480
4480
3C80
ENDCHAR
STARTCHAR jhadeva
ENCODING 2333
SWIDTH 1030 0
DWIDTH 12 0
BBX 13 12 0 -3
BITMAP
FFF8
0230
3E30
3070
26F0
5F30
6130
6330
1E30
0800
0400
03C0
ENDCHAR
STARTCHAR nyadeva
ENCODING 2334
SWIDTH 798 0
DWIDTH 10 0
BBX 11 9 0 0
BITMAP
FFE0
0180
3180
6980
0F80
0D80
3D80
0180
0080
ENDCHAR
STARTCHAR ttadeva
ENCODING 2335
SWIDTH 698 0
DWIDTH 8 0
BBX 9 9 0 0
BITMAP
FF80
0400
0400
3C00
6000
6000
6000
2300
1E00
ENDCHAR
STARTCHAR tthadeva
ENCODING 2336
SWIDTH 814 0
DWIDTH 10 0
BBX 10 9 0 0
BITMAP
FFC0
0400
0400
3E00
6100
6180
6180
2300
1E00
ENDCHAR
STARTCHAR ddadeva
ENCODING 2337
SWIDTH 712 0
DWIDTH 9 0
BBX 11 9 -1 0
BITMAP
FFE0
0100
1F00
1800
1200
0F80
0080
1180
0F00
ENDCHAR
STARTCHAR ddhadeva
ENCODING 2338
SWIDTH 698 0
DWIDTH 8 0
BBX 9 9 0 0
BITMAP
FF80
0400
0400
3C00
6000
6600
2D00
2500
0F00
ENDCHAR
STARTCHAR nnadeva
ENCODING 2339
SWIDTH 889 0
DWIDTH 11 0
BBX 12 9 0 0
BITMAP
FFF0
64C0
64C0
64C0
64C0
38C0
00C0
00C0
0040
ENDCHAR
STARTCHAR tadeva
ENCODING 2340
SWIDTH 662 0
DWIDTH 8 0
BBX 9 9 0 0
BITMAP
FF80
0200
0200
0200
7E00
6200
4200
2200
1200
ENDCHAR
STARTCHAR thadeva
ENCODING 2341
SWIDTH 782 0
DWIDTH 9 0
BBX 9 10 1 0
BITMAP
4000
E780
9300
F300
3300
E300
C700
3F00
0300
0300
ENDCHAR
STARTCHAR dadeva
ENCODING 2342
SWIDTH 678 0
DWIDTH 8 0
BBX 9 11 0 -2
BITMAP
FF80
0400
0400
3C00
6000
6000
2600
2600
0E00
0200
0100
ENDCHAR
STARTCHAR dhadeva
ENCODING 2343
SWIDTH 852 0
DWIDTH 10 0
BBX 10 11 1 0
BITMAP
2000
F800
DBC0
4100
3900
3100
2300
3700
0D00
0100
0100
ENDCHAR
STARTCHAR nadeva
ENCODING 2344
SWIDTH 668 0
DWIDTH 8 0
BBX 10 9 -1 0
BITMAP
FFC0
0100
0100
0100
3F00
3900
0100
0100
0100
ENDCHAR
STARTCHAR nnnadeva
ENCODING 2345
SWIDTH 668 0
DWIDTH 8 0
BBX 10 10 -1 -1
BITMAP
FFC0
0100
0100
0100
3F00
3900
0100
0100
1900
1800
ENDCHAR
STARTCHAR padeva
ENCODING 2346
SWIDTH 648 0
DWIDTH 8 0
BBX 9 9 0 0
BITMAP
FF80
6200
6200
6600
6600
1E00
0200
0200
0200
ENDCHAR
STARTCHAR uni092B
ENCODING 2347
SWIDTH 1038 0
DWIDTH 12 0
BBX 13 9 0 0
BITMAP
FFF8
6200
6380
6760
6620
1E60
02E0
0200
0200
ENDCHAR
STARTCHAR uni092C
ENCODING 2348
SWIDTH 648 0
DWIDTH 8 0
BBX 9 9 0 0
BITMAP
FF80
0600
1600
7600
7600
6E00
3E00
0200
0200
ENDCHAR
STARTCHAR bhadeva
ENCODING 2349
SWIDTH 758 0
DWIDTH 9 0
BBX 9 10 1 0
BITMAP
C000
A780
A200
7200
3200
FE00
6200
0200
0200
0200
ENDCHAR
STARTCHAR madeva
ENCODING 2350
SWIDTH 784 0
DWIDTH 9 0
BBX 11 9 -1 0
BITMAP
FFE0
08C0
08C0
08C0
3FC0
38C0
00C0
00C0
00C0
ENDCHAR
STARTCHAR uni092F
ENCODING 2351
SWIDTH 732 0
DWIDTH 9 0
BBX 10 9 0 0
BITMAP
FFC0
1300
1300
3300
6300
3F00
0300
0300
0100
ENDCHAR
STARTCHAR radeva
ENCODING 2352
SWIDTH 446 0
DWIDTH 5 0
BBX 7 9 -1 0
BITMAP
FE
08
0C
0C
3C
18
08
04
02
ENDCHAR
STARTCHAR rradeva
ENCODING 2353
SWIDTH 446 0
DWIDTH 5 0
BBX 7 10 -1 -1
BITMAP
FE
08
0C
0C
3C
18
08
04
32
30
ENDCHAR
STARTCHAR uni0932
ENCODING 2354
SWIDTH 867 0
DWIDTH 10 0
BBX 11 9 0 0
BITMAP
FFE0
00C0
10C0
65C0
67C0
26C0
10C0
00C0
00C0
ENDCHAR
STARTCHAR lladeva
ENCODING 2355
SWIDTH 1037 0
DWIDTH 12 0
BBX 13 7 0 2
BITMAP
FFF8
0080
1180
7B40
6220
6660
3CE0
ENDCHAR
STARTCHAR llladeva
ENCODING 2356
SWIDTH 1037 0
DWIDTH 12 0
BBX 13 10 0 -1
BITMAP
FFF8
0080
1180
7B40
6220
6660
3CE0
0000
0200
0200
ENDCHAR
STARTCHAR vadeva
ENCODING 2357
SWIDTH 648 0
DWIDTH 8 0
BBX 9 9 0 0
BITMAP
FF80
0600
1600
7600
6600
6600
3E00
0200
0200
ENDCHAR
STARTCHAR shadeva
ENCODING 2358
SWIDTH 829 0
DWIDTH 10 0
BBX 10 10 1 0
BITMAP
6000
D3C0
5100
3100
1100
7100
7100
0500
0100
0100
ENDCHAR
STARTCHAR ssadeva
ENCODING 2359
SWIDTH 648 0
DWIDTH 8 0
BBX 9 9 0 0
BITMAP
FF80
6200
6200
6600
6600
1E00
0200
0200
0200
ENDCHAR
STARTCHAR sadeva
ENCODING 2360
SWIDTH 824 0
DWIDTH 10 0
BBX 12 9 -1 0
BITMAP
FFF0
0840
0C40
0CC0
3FC0
1840
0840
0440
0240
ENDCHAR
STARTCHAR hadeva
ENCODING 2361
SWIDTH 578 0
DWIDTH 7 0
BBX 7 12 1 -3
BITMAP
FE
18
78
C0
40
70
C8
CC
4C
20
10
08
ENDCHAR
STARTCHAR uni093A
ENCODING 2362
SWIDTH 0 0
DWIDTH 0 0
BBX 1 4 -2 9
BITMAP
80
80
80
80
ENDCHAR
STARTCHAR uni093B
ENCODING 2363
SWIDTH 328 0
DWIDTH 4 0
BBX 4 13 1 0
BITMAP
40
40
40
40
F0
40
40
40
40
40
40
40
40
ENDCHAR
STARTCHAR nuktadeva
ENCODING 2364
SWIDTH 0 0
DWIDTH 0 0
BBX 1 2 -2 -3
BITMAP
80
80
ENDCHAR
STARTCHAR avagrahadeva
ENCODING 2365
SWIDTH 628 0
DWIDTH 8 0
BBX 8 9 1 0
BITMAP
3F
60
60
20
10
0C
84
4C
3C
ENDCHAR
STARTCHAR uni093E
ENCODING 2366
SWIDTH 328 0
DWIDTH 4 0
BBX 4 9 1 0
BITMAP
F0
40
40
40
40
40
40
40
40
ENDCHAR
STARTCHAR uni093F
ENCODING 2367
SWIDTH 328 0
DWIDTH 4 0
BBX 6 13 0 0
BITMAP
60
D0
48
04
60
20
20
20
20
20
20
20
20
ENDCHAR
STARTCHAR uni0940
ENCODING 2368
SWIDTH 328 0
DWIDTH 4 0
BBX 8 13 -3 0
BITMAP
E0
90
88
40
0F
04
04
04
04
04
04
04
04
ENDCHAR
STARTCHAR uvowelsigndeva
ENCODING 2369
SWIDTH 0 0
DWIDTH 0 0
BBX 6 5 -7 -6
BITMAP
10
14
84
44
3C
ENDCHAR
STARTCHAR uuvowelsigndeva
ENCODING 2370
SWIDTH 0 0
DWIDTH 0 0
BBX 6 5 -7 -6
BITMAP
30
F8
C4
80
70
ENDCHAR
STARTCHAR rvocalicvowelsigndeva
ENCODING 2371
SWIDTH 0 0
DWIDTH 0 0
BBX 5 4 -6 -6
BITMAP
E0
C0
C0
78
ENDCHAR
STARTCHAR rrvocalicvowelsigndeva
ENCODING 2372
SWIDTH 0 0
DWIDTH 0 0
BBX 5 6 -5 -7
BITMAP
20
E0
80
E0
C0
78
ENDCHAR
STARTCHAR ecandravowelsigndeva
ENCODING 2373
SWIDTH 0 0
DWIDTH 0 0
BBX 7 4 -7 11
BITMAP
80
86
8C
38
ENDCHAR
STARTCHAR eshortvowelsigndeva
ENCODING 2374
SWIDTH 0 0
DWIDTH 0 0
BBX 11 5 -15 10
BITMAP
8000
4000
3F80
0040
0020
ENDCHAR
STARTCHAR evowelsigndeva
ENCODING 2375
SWIDTH 0 0
DWIDTH 0 0
BBX 8 5 -6 9
BITMAP
C0
70
08
02
01
ENDCHAR
STARTCHAR aivowelsigndeva
ENCODING 2376
SWIDTH 0 0
DWIDTH 0 0
BBX 9 6 -7 9
BITMAP
E000
1000
E800
9200
0900
0480
ENDCHAR
STARTCHAR ocandravowelsigndeva
ENCODING 2377
SWIDTH 328 0
DWIDTH 4 0
BBX 7 15 -1 0
BITMAP
80
86
CE
38
00
00
3C
10
10
10
10
10
10
10
10
ENDCHAR
STARTCHAR uni094A
ENCODING 2378
SWIDTH 328 0
DWIDTH 4 0
BBX 15 15 -10 0
BITMAP
8000
4000
3F80
0040
0020
0008
001E
0008
0008
0008
0008
0008
0008
0008
0008
ENDCHAR
STARTCHAR ovowelsigndeva
ENCODING 2379
SWIDTH 328 0
DWIDTH 4 0
BBX 10 14 -5 0
BITMAP
C000
F000
0800
0400
0100
03C0
0100
0100
0100
0100
0100
0100
0100
0100
ENDCHAR
STARTCHAR uni094C
ENCODING 2380
SWIDTH 328 0
DWIDTH 4 0
BBX 11 15 -6 0
BITMAP
F000
0800
E400
5A00
0400
0240
01E0
0080
0080
0080
0080
0080
0080
0080
0080
ENDCHAR
STARTCHAR viramadeva
ENCODING 2381
SWIDTH 0 0
DWIDTH 0 0
BBX 3 3 -3 -5
BITMAP
80
40
20
ENDCHAR
STARTCHAR uni094E
ENCODING 2382
SWIDTH 328 0
DWIDTH 4 0
BBX 3 9 2 0
BITMAP
E0
80
80
80
80
80
80
80
80
ENDCHAR
STARTCHAR uni094F
ENCODING 2383
SWIDTH 328 0
DWIDTH 4 0
BBX 15 15 -10 0
BITMAP
8000
4018
3F90
0048
0026
000E
001E
0008
0008
0008
0008
0008
0008
0008
0008
ENDCHAR
STARTCHAR omdeva
ENCODING 2384
SWIDTH 1186 0
DWIDTH 14 0
BBX 14 15 1 0
BITMAP
0100
0920
0C20
0460
0180
2000
7800
4CF0
0C88
198C
0B0C
061C
8610
2600
1C00
ENDCHAR
STARTCHAR udattadeva
ENCODING 2385
SWIDTH 0 0
DWIDTH 0 0
BBX 1 5 -2 11
BITMAP
80
80
80
80
80
ENDCHAR
STARTCHAR anudattadeva
ENCODING 2386
SWIDTH 0 0
DWIDTH 0 0
BBX 7 1 -6 -2
BITMAP
FE
ENDCHAR
STARTCHAR gravedeva
ENCODING 2387
SWIDTH 0 0
DWIDTH 0 0
BBX 3 3 -6 10
BITMAP
80
40
20
ENDCHAR
STARTCHAR acutedeva
ENCODING 2388
SWIDTH 0 0
DWIDTH 0 0
BBX 5 3 -6 11
BITMAP
18
30
E0
ENDCHAR
STARTCHAR uni0955
ENCODING 2389
SWIDTH 0 0
DWIDTH 0 0
BBX 7 5 -7 11
BITMAP
80
86
CC
18
FE
ENDCHAR
STARTCHAR uni0956
ENCODING 2390
SWIDTH 0 0
DWIDTH 0 0
BBX 4 2 -5 -3
BITMAP
30
F0
ENDCHAR
STARTCHAR uni0957
ENCODING 2391
SWIDTH 0 0
DWIDTH 0 0
BBX 5 5 -6 -6
BITMAP
18
78
00
F8
70
ENDCHAR
STARTCHAR qadeva
ENCODING 2392
SWIDTH 1037 0
DWIDTH 12 0
BBX 13 10 0 -1
BITMAP
FFF8
0600
1780
7740
6620
6660
1EE0
0600
2200
2000
ENDCHAR
STARTCHAR khhadeva
ENCODING 2393
SWIDTH 1084 0
DWIDTH 13 0
BBX 15 10 -1 -1
BITMAP
FFFE
0808
0C48
0CE8
3D88
1898
0878
0408
2208
2000
ENDCHAR
STARTCHAR ghhadeva
ENCODING 2394
SWIDTH 768 0
DWIDTH 9 0
BBX 11 10 -1 -1
BITMAP
FFE0
0880
0880
0880
3880
1880
0080
0080
1880
1800
ENDCHAR
STARTCHAR zadeva
ENCODING 2395
SWIDTH 828 0
DWIDTH 10 0
BBX 11 13 0 -4
BITMAP
FFE0
0080
0080
0080
1F80
0880
0480
4480
3C80
0000
0000
1800
0800
ENDCHAR
STARTCHAR dddhadeva
ENCODING 2396
SWIDTH 712 0
DWIDTH 9 0
BBX 11 11 -1 -2
BITMAP
FFE0
0100
1F00
1800
1200
0F80
0080
1180
0F00
6000
6000
ENDCHAR
STARTCHAR rhadeva
ENCODING 2397
SWIDTH 698 0
DWIDTH 8 0
BBX 9 11 0 -2
BITMAP
FF80
0400
0400
3C00
6000
6600
2D00
2500
0F00
0000
2000
ENDCHAR
STARTCHAR fadeva
ENCODING 2398
SWIDTH 1038 0
DWIDTH 12 0
BBX 13 9 0 0
BITMAP
FFF8
6200
6380
6760
6620
1E60
02E0
2200
2200
ENDCHAR
STARTCHAR yyadeva
ENCODING 2399
SWIDTH 732 0
DWIDTH 9 0
BBX 10 10 0 -1
BITMAP
FFC0
1300
1300
3300
6300
3F00
0300
0300
2100
2000
ENDCHAR
STARTCHAR rrvocalicdeva
ENCODING 2400
SWIDTH 1245 0
DWIDTH 15 0
BBX 16 11 0 -2
BITMAP
FFFF
0300
0338
7B78
47E0
1F30
1360
0330
0370
0024
001C
ENDCHAR
STARTCHAR llvocalicdeva
ENCODING 2401
SWIDTH 919 0
DWIDTH 11 0
BBX 12 11 0 -2
BITMAP
FFF0
0300
1300
6680
64C0
20C0
1180
0300
0180
0300
0360
ENDCHAR
STARTCHAR lvocalicvowelsigndeva
ENCODING 2402
SWIDTH 0 0
DWIDTH 0 0
BBX 9 8 -10 -9
BITMAP
6400
FD00
8900
C380
0700
0600
0480
0380
ENDCHAR
STARTCHAR llvocalicvowelsigndeva
ENCODING 2403
SWIDTH 0 0
DWIDTH 0 0
BBX 9 9 -10 -10
BITMAP
4400
FD00
8900
C380
4600
0400
0700
0480
0780
ENDCHAR
STARTCHAR dandadeva
ENCODING 2404
SWIDTH 600 0
DWIDTH 7 0
BBX 1 9 3 0
BITMAP
80
80
80
80
80
80
80
80
80
ENDCHAR
STARTCHAR dbldandadeva
ENCODING 2405
SWIDTH 861 0
DWIDTH 10 0
BBX 4 10 3 0
BITMAP
10
90
90
90
90
90
90
90
90
90
ENDCHAR
STARTCHAR zerodeva
ENCODING 2406
SWIDTH 651 0
DWIDTH 8 0
BBX 6 5 1 2
BITMAP
70
C8
CC
4C
38
ENDCHAR
STARTCHAR onedeva
ENCODING 2407
SWIDTH 550 0
DWIDTH 7 0
BBX 5 10 0 0
BITMAP
20
50
D0
58
18
18
18
10
10
10
ENDCHAR
STARTCHAR twodeva
ENCODING 2408
SWIDTH 642 0
DWIDTH 8 0
BBX 7 9 1 1
BITMAP
20
F0
08
08
18
F8
70
08
02
ENDCHAR
STARTCHAR threedeva
ENCODING 2409
SWIDTH 726 0
DWIDTH 9 0
BBX 7 12 1 -2
BITMAP
20
F8
0C
0C
18
18
84
C6
46
3C
10
08
ENDCHAR
STARTCHAR fourdeva
ENCODING 2410
SWIDTH 710 0
DWIDTH 9 0
BBX 6 10 1 0
BITMAP
C4
CC
48
38
30
68
C8
C4
4C
38
ENDCHAR
STARTCHAR fivedeva
ENCODING 2411
SWIDTH 744 0
DWIDTH 9 0
BBX 8 12 2 -2
BITMAP
10
98
98
78
18
18
18
18
70
38
02
01
ENDCHAR
STARTCHAR sixdeva
ENCODING 2412
SWIDTH 790 0
DWIDTH 9 0
BBX 10 10 1 0
BITMAP
6000
C000
8000
7400
C600
C600
4E00
3900
0080
0040
ENDCHAR
STARTCHAR sevendeva
ENCODING 2413
SWIDTH 938 0
DWIDTH 11 0
BBX 9 11 1 0
BITMAP
4000
6000
C000
C700
CD80
C580
C380
C180
4100
2300
1E00
ENDCHAR
STARTCHAR eightdeva
ENCODING 2414
SWIDTH 720 0
DWIDTH 9 0
BBX 8 9 0 0
BITMAP
FF
60
60
60
30
0C
03
03
03
ENDCHAR
STARTCHAR ninedeva
ENCODING 2415
SWIDTH 690 0
DWIDTH 8 0
BBX 6 10 1 0
BITMAP
20
68
58
40
30
78
C0
C0
4C
38
ENDCHAR
STARTCHAR abbreviationsigndeva
ENCODING 2416
SWIDTH 571 0
DWIDTH 7 0
BBX 5 4 1 3
BITMAP
F0
D8
D8
30
ENDCHAR
STARTCHAR uni0971
ENCODING 2417
SWIDTH 485 0
DWIDTH 6 0
BBX 1 2 3 8
BITMAP
80
80
ENDCHAR
STARTCHAR uni0972
ENCODING 2418
SWIDTH 1014 0
DWIDTH 12 0
BBX 12 15 2 0
BITMAP
0400
0610
0230
01E0
0000
4000
F3E0
1080
3080
3180
1B80
9A80
7080
0080
0080
ENDCHAR
STARTCHAR uni0973
ENCODING 2419
SWIDTH 1014 0
DWIDTH 12 0
BBX 11 16 2 0
BITMAP
0080
0080
0080
0080
0080
0000
4000
F3E0
1080
3080
3180
1B80
9A80
7080
0080
0080
ENDCHAR
STARTCHAR uni0974
ENCODING 2420
SWIDTH 1342 0
DWIDTH 16 0
BBX 15 13 2 0
BITMAP
0008
0008
0008
4008
F3FE
1088
3088
3188
1B88
9A88
7088
0088
0088
ENDCHAR
STARTCHAR uni0975
ENCODING 2421
SWIDTH 1342 0
DWIDTH 16 0
BBX 16 15 1 0
BITMAP
4000
200C
0FCC
0024
000B
2007
79FF
4844
1844
18C4
8DC4
4D44
3844
0044
0044
ENDCHAR
STARTCHAR uni0976
ENCODING 2422
SWIDTH 1014 0
DWIDTH 12 0
BBX 11 13 2 -3
BITMAP
4000
F3E0
1080
3080
3180
1B80
9A80
7080
0080
0080
0000
1180
0F00
ENDCHAR
STARTCHAR uni0977
ENCODING 2423
SWIDTH 1014 0
DWIDTH 12 0
BBX 11 16 2 -6
BITMAP
4000
F3E0
1080
3080
3180
1B80
9A80
7080
0080
0080
0000
1180
0F00
0000
0F80
0600
ENDCHAR
STARTCHAR uni0979
ENCODING 2425
SWIDTH 788 0
DWIDTH 9 0
BBX 11 13 0 -4
BITMAP
FFE0
0080
0080
0080
1F80
0880
0480
4480
3C80
0000
4400
5400
1000
ENDCHAR
STARTCHAR uni097B
ENCODING 2427
SWIDTH 746 0
DWIDTH 9 0
BBX 11 11 -1 -2
BITMAP
FFE0
0880
0880
0880
3880
1880
0080
0080
0080
0080
3F80
ENDCHAR
STARTCHAR uni097C
ENCODING 2428
SWIDTH 846 0
DWIDTH 10 0
BBX 11 11 0 -2
BITMAP
FFE0
0080
0080
0080
1F80
0880
0480
4480
3C80
0080
7F80
ENDCHAR
STARTCHAR uni097D
ENCODING 2429
SWIDTH 758 0
DWIDTH 9 0
BBX 8 10 0 0
BITMAP
18
66
42
C3
03
06
1C
10
10
10
ENDCHAR
STARTCHAR uni097E
ENCODING 2430
SWIDTH 712 0
DWIDTH 9 0
BBX 11 11 -1 -2
BITMAP
FFE0
0100
1F00
1800
1200
0F80
0080
1180
0F00
0000
1FC0
ENDCHAR
STARTCHAR uni097F
ENCODING 2431
SWIDTH 648 0
DWIDTH 8 0
BBX 9 11 0 -2
BITMAP
FF80
0600
1600
7600
7600
6E00
3E00
0200
0200
0200
7E00
ENDCHAR
STARTCHAR uni0FD5
ENCODING 4053
SWIDTH 1136 0
DWIDTH 14 0
BBX 10 9 2 0
BITMAP
47C0
4400
4400
4400
7FC0
0440
0440
0440
FC40
ENDCHAR
STARTCHAR uni0FD6
ENCODING 4054
SWIDTH 1136 0
DWIDTH 14 0
BBX 9 9 3 0
BITMAP
F880
0880
0880
0880
FF80
8800
8800
8800
8F80
ENDCHAR
STARTCHAR uni0FD7
ENCODING 4055
SWIDTH 1136 0
DWIDTH 14 0
BBX 10 9 2 0
BITMAP
47C0
5500
7500
4400
7FC0
1540
3540
0440
FC40
ENDCHAR
STARTCHAR uni0FD8
ENCODING 4056
SWIDTH 1136 0
DWIDTH 14 0
BBX 9 9 3 0
BITMAP
F880
2A80
2A80
0880
FF80
AA00
EA00
8800
8F80
ENDCHAR
STARTCHAR Wgrave
ENCODING 7808
SWIDTH 1195 0
DWIDTH 14 0
BBX 13 14 1 0
BITMAP
0C00
0600
0200
0000
0000
C618
C210
4210
6300
2520
2520
3180
18C0
1880
ENDCHAR
STARTCHAR wgrave
ENCODING 7809
SWIDTH 899 0
DWIDTH 11 0
BBX 10 11 0 0
BITMAP
1800
0C00
0400
0000
0000
CCC0
6440
2600
3280
3B00
1100
ENDCHAR
STARTCHAR Wacute
ENCODING 7810
SWIDTH 1195 0
DWIDTH 14 0
BBX 13 14 1 0
BITMAP
0180
0300
0200
0000
0000
C618
C210
4210
6300
2520
2520
3180
18C0
1880
ENDCHAR
STARTCHAR wacute
ENCODING 7811
SWIDTH 899 0
DWIDTH 11 0
BBX 10 11 0 0
BITMAP
0200
0600
0400
0000
0000
CCC0
6440
2600
3280
3B00
1100
ENDCHAR
STARTCHAR Wdieresis
ENCODING 7812
SWIDTH 1195 0
DWIDTH 14 0
BBX 13 13 1 0
BITMAP
0880
0880
0000
0000
C618
C210
4210
6300
2520
2520
3180
18C0
1880
ENDCHAR
STARTCHAR wdieresis
ENCODING 7813
SWIDTH 899 0
DWIDTH 11 0
BBX 10 10 0 0
BITMAP
1B00
1200
0000
0000
CCC0
6440
2600
3280
3B00
1100
ENDCHAR
STARTCHAR uni1E9E
ENCODING 7838
SWIDTH 896 0
DWIDTH 11 0
BBX 9 10 1 0
BITMAP
1E00
2700
4200
4400
4F80
4F00
4200
4400
4880
DF80
ENDCHAR
STARTCHAR Ygrave
ENCODING 7922
SWIDTH 803 0
DWIDTH 10 0
BBX 8 14 1 0
BITMAP
20
30
08
00
00
C3
C2
60
24
38
18
18
18
3C
ENDCHAR
STARTCHAR ygrave
ENCODING 7923
SWIDTH 620 0
DWIDTH 7 0
BBX 7 14 0 -3
BITMAP
20
30
10
00
00
C6
60
24
30
38
10
10
20
40
ENDCHAR
STARTCHAR zerowidthspace
ENCODING 8203
SWIDTH 0 0
DWIDTH 0 0
BBX 1 1 0 0
BITMAP
00
ENDCHAR
STARTCHAR uni200C
ENCODING 8204
SWIDTH 0 0
DWIDTH 0 0
BBX 1 1 0 0
BITMAP
00
ENDCHAR
STARTCHAR uni200D
ENCODING 8205
SWIDTH 0 0
DWIDTH 0 0
BBX 1 1 0 0
BITMAP
00
ENDCHAR
STARTCHAR endash
ENCODING 8211
SWIDTH 719 0
DWIDTH 9 0
BBX 8 1 0 3
BITMAP
FF
ENDCHAR
STARTCHAR emdash
ENCODING 8212
SWIDTH 1039 0
DWIDTH 12 0
BBX 12 1 0 3
BITMAP
FFF0
ENDCHAR
STARTCHAR quoteleft
ENCODING 8216
SWIDTH 363 0
DWIDTH 4 0
BBX 3 5 1 5
BITMAP
20
40
C0
E0
80
ENDCHAR
STARTCHAR quoteright
ENCODING 8217
SWIDTH 370 0
DWIDTH 4 0
BBX 2 4 1 6
BITMAP
40
C0
40
80
ENDCHAR
STARTCHAR quotesinglbase
ENCODING 8218
SWIDTH 363 0
DWIDTH 4 0
BBX 2 4 1 -3
BITMAP
C0
40
00
80
ENDCHAR
STARTCHAR quotedblleft
ENCODING 8220
SWIDTH 623 0
DWIDTH 7 0
BBX 6 5 1 5
BITMAP
24
48
C8
FC
90
ENDCHAR
STARTCHAR quotedblright
ENCODING 8221
SWIDTH 630 0
DWIDTH 8 0
BBX 5 4 1 6
BITMAP
48
D8
48
90
ENDCHAR
STARTCHAR quotedblbase
ENCODING 8222
SWIDTH 623 0
DWIDTH 7 0
BBX 5 4 1 -3
BITMAP
D8
48
08
90
ENDCHAR
STARTCHAR dagger
ENCODING 8224
SWIDTH 656 0
DWIDTH 8 0
BBX 6 12 1 -1
BITMAP
10
70
30
30
DC
C4
30
30
30
30
30
20
ENDCHAR
STARTCHAR daggerdbl
ENCODING 8225
SWIDTH 661 0
DWIDTH 8 0
BBX 7 14 1 -3
BITMAP
10
70
30
30
DC
C4
30
30
A0
FE
04
30
30
30
ENDCHAR
STARTCHAR bullet
ENCODING 8226
SWIDTH 498 0
DWIDTH 6 0
BBX 4 4 1 1
BITMAP
70
F0
F0
60
ENDCHAR
STARTCHAR ellipsis
ENCODING 8230
SWIDTH 1259 0
DWIDTH 15 0
BBX 11 2 2 0
BITMAP
C420
C460
ENDCHAR
STARTCHAR perthousand
ENCODING 8240
SWIDTH 1677 0
DWIDTH 20 0
BBX 18 12 1 -1
BITMAP
300000
984000
888000
890000
D80000
000000
040000
088180
1264C0
022440
262440
4346C0
ENDCHAR
STARTCHAR minute
ENCODING 8242
SWIDTH 389 0
DWIDTH 5 0
BBX 3 4 1 6
BITMAP
60
60
C0
80
ENDCHAR
STARTCHAR second
ENCODING 8243
SWIDTH 639 0
DWIDTH 8 0
BBX 6 4 1 6
BITMAP
6C
6C
D8
90
ENDCHAR
STARTCHAR uni2034
ENCODING 8244
SWIDTH 889 0
DWIDTH 11 0
BBX 9 4 1 6
BITMAP
6D80
6D80
DB00
9200
ENDCHAR
STARTCHAR guilsinglleft
ENCODING 8249
SWIDTH 409 0
DWIDTH 5 0
BBX 3 6 1 0
BITMAP
20
40
C0
C0
60
20
ENDCHAR
STARTCHAR guilsinglright
ENCODING 8250
SWIDTH 409 0
DWIDTH 5 0
BBX 3 5 1 1
BITMAP
80
40
60
60
C0
ENDCHAR
STARTCHAR asterism
ENCODING 8258
SWIDTH 1598 0
DWIDTH 19 0
BBX 17 15 1 -3
BITMAP
036000
014000
043000
071000
004000
036000
000000
000000
000000
0C0300
200A00
9E2780
421680
280B00
6C0B00
ENDCHAR
STARTCHAR fraction
ENCODING 8260
SWIDTH 228 0
DWIDTH 3 0
BBX 7 12 -2 -1
BITMAP
02
00
04
08
08
10
00
20
00
40
00
80
ENDCHAR
STARTCHAR uni2051
ENCODING 8273
SWIDTH 698 0
DWIDTH 8 0
BBX 7 15 1 -3
BITMAP
48
50
BC
D2
28
68
00
00
00
58
70
9E
D0
28
48
ENDCHAR
STARTCHAR uni2055
ENCODING 8277
SWIDTH 754 0
DWIDTH 9 0
BBX 6 7 2 0
BITMAP
30
A4
CC
20
CC
A4
30
ENDCHAR
STARTCHAR uni2057
ENCODING 8279
SWIDTH 1139 0
DWIDTH 14 0
BBX 12 4 1 6
BITMAP
6DB0
6DB0
DB60
9240
ENDCHAR
STARTCHAR zerosuperior
ENCODING 8304
SWIDTH 629 0
DWIDTH 8 0
BBX 6 5 1 5
BITMAP
38
88
8C
88
70
ENDCHAR
STARTCHAR foursuperior
ENCODING 8308
SWIDTH 569 0
DWIDTH 7 0
BBX 6 7 0 3
BITMAP
08
18
28
48
FC
08
08
ENDCHAR
STARTCHAR fivesuperior
ENCODING 8309
SWIDTH 536 0
DWIDTH 6 0
BBX 4 7 1 3
BITMAP
F0
80
C0
30
10
20
C0
ENDCHAR
STARTCHAR sixsuperior
ENCODING 8310
SWIDTH 617 0
DWIDTH 7 0
BBX 6 7 1 5
BITMAP
10
60
40
98
8C
C8
70
ENDCHAR
STARTCHAR sevensuperior
ENCODING 8311
SWIDTH 552 0
DWIDTH 7 0
BBX 5 6 1 4
BITMAP
F8
00
10
00
20
40
ENDCHAR
STARTCHAR eightsuperior
ENCODING 8312
SWIDTH 613 0
DWIDTH 7 0
BBX 5 7 1 5
BITMAP
58
C8
70
78
88
88
70
ENDCHAR
STARTCHAR ninesuperior
ENCODING 8313
SWIDTH 607 0
DWIDTH 7 0
BBX 5 7 1 3
BITMAP
70
88
88
C8
68
10
40
ENDCHAR
STARTCHAR zeroinferior
ENCODING 8320
SWIDTH 629 0
DWIDTH 8 0
BBX 6 5 1 -1
BITMAP
78
8C
8C
88
70
ENDCHAR
STARTCHAR oneinferior
ENCODING 8321
SWIDTH 393 0
DWIDTH 5 0
BBX 3 5 1 -1
BITMAP
E0
40
40
40
E0
ENDCHAR
STARTCHAR twoinferior
ENCODING 8322
SWIDTH 491 0
DWIDTH 6 0
BBX 4 5 1 -1
BITMAP
E0
30
20
40
F0
ENDCHAR
STARTCHAR threeinferior
ENCODING 8323
SWIDTH 467 0
DWIDTH 6 0
BBX 4 7 1 -3
BITMAP
E0
20
20
60
30
20
80
ENDCHAR
STARTCHAR fourinferior
ENCODING 8324
SWIDTH 569 0
DWIDTH 7 0
BBX 6 6 0 -2
BITMAP
08
18
28
48
FC
08
ENDCHAR
STARTCHAR fiveinferior
ENCODING 8325
SWIDTH 536 0
DWIDTH 6 0
BBX 4 8 1 -3
BITMAP
10
F0
80
C0
30
10
20
C0
ENDCHAR
STARTCHAR sixinferior
ENCODING 8326
SWIDTH 617 0
DWIDTH 7 0
BBX 6 7 1 -1
BITMAP
10
60
50
88
8C
C8
70
ENDCHAR
STARTCHAR seveninferior
ENCODING 8327
SWIDTH 552 0
DWIDTH 7 0
BBX 5 6 1 -2
BITMAP
F8
00
10
00
20
40
ENDCHAR
STARTCHAR eightinferior
ENCODING 8328
SWIDTH 613 0
DWIDTH 7 0
BBX 6 7 1 -1
BITMAP
58
C8
70
78
8C
88
70
ENDCHAR
STARTCHAR nineinferior
ENCODING 8329
SWIDTH 607 0
DWIDTH 7 0
BBX 5 7 1 -3
BITMAP
70
88
88
C8
78
30
40
ENDCHAR
STARTCHAR Euro
ENCODING 8364
SWIDTH 884 0
DWIDTH 11 0
BBX 10 10 0 0
BITMAP
0300
0980
1000
2000
FE00
2000
2000
3000
38C0
1F00
ENDCHAR
STARTCHAR uni20B9
ENCODING 8377
SWIDTH 679 0
DWIDTH 8 0
BBX 6 9 1 0
BITMAP
30
18
18
10
E0
30
10
18
0C
ENDCHAR
STARTCHAR uni2113
ENCODING 8467
SWIDTH 572 0
DWIDTH 7 0
BBX 6 11 0 0
BITMAP
08
2C
24
64
68
70
60
E0
60
20
38
ENDCHAR
STARTCHAR uni2116
ENCODING 8470
SWIDTH 1528 0
DWIDTH 18 0
BBX 17 10 1 0
BITMAP
000600
C11300
611100
711100
591900
4D0C00
4D0000
473F80
430000
E10000
ENDCHAR
STARTCHAR uni2117
ENCODING 8471
SWIDTH 1009 0
DWIDTH 12 0
BBX 10 10 1 0
BITMAP
0E00
3380
40C0
9AC0
9B40
9E40
9840
DC80
6080
3E00
ENDCHAR
STARTCHAR trademark
ENCODING 8482
SWIDTH 1073 0
DWIDTH 13 0
BBX 10 3 1 6
BITMAP
A240
23C0
2140
ENDCHAR
STARTCHAR Ohm
ENCODING 8486
SWIDTH 929 0
DWIDTH 11 0
BBX 9 10 1 0
BITMAP
0C00
2300
4180
8080
C080
C180
6300
3400
9480
F780
ENDCHAR
STARTCHAR estimated
ENCODING 8494
SWIDTH 968 0
DWIDTH 12 0
BBX 10 10 1 0
BITMAP
1C00
6100
4080
C080
C0C0
FFC0
C000
C080
4180
3E00
ENDCHAR
STARTCHAR uni2153
ENCODING 8531
SWIDTH 1122 0
DWIDTH 13 0
BBX 12 14 1 -3
BITMAP
0080
E000
4100
4000
4200
E000
0400
08E0
0820
1000
0060
2030
0020
0080
ENDCHAR
STARTCHAR uni2154
ENCODING 8532
SWIDTH 1186 0
DWIDTH 14 0
BBX 12 14 1 -3
BITMAP
0040
6080
3000
2100
4000
F200
0000
0460
0010
0820
0030
1010
0010
00C0
ENDCHAR
STARTCHAR oneeighth
ENCODING 8539
SWIDTH 1268 0
DWIDTH 15 0
BBX 13 12 1 -1
BITMAP
0080
E000
4100
4000
4200
E058
04C8
0870
0878
1088
0088
2070
ENDCHAR
STARTCHAR threeeighths
ENCODING 8540
SWIDTH 1308 0
DWIDTH 16 0
BBX 14 14 1 -2
BITMAP
0040
0000
E080
2000
2100
6000
3248
2048
C468
0858
008C
10C4
0078
2000
ENDCHAR
STARTCHAR fiveeighths
ENCODING 8541
SWIDTH 1377 0
DWIDTH 17 0
BBX 15 14 1 -2
BITMAP
0020
0000
F040
8080
C080
3100
1024
2224
C038
042C
0046
0864
0038
1000
ENDCHAR
STARTCHAR seveneighths
ENCODING 8542
SWIDTH 1323 0
DWIDTH 16 0
BBX 14 14 1 -2
BITMAP
0040
0000
F880
0000
1100
0000
2248
4048
0468
0058
08C4
00C4
1078
2000
ENDCHAR
STARTCHAR Oneroman
ENCODING 8544
SWIDTH 494 0
DWIDTH 6 0
BBX 4 7 1 0
BITMAP
F0
60
60
60
60
60
F0
ENDCHAR
STARTCHAR Tworoman
ENCODING 8545
SWIDTH 988 0
DWIDTH 12 0
BBX 10 7 1 0
BITMAP
F3C0
6180
6180
6180
6180
6180
F3C0
ENDCHAR
STARTCHAR Threeroman
ENCODING 8546
SWIDTH 1482 0
DWIDTH 18 0
BBX 16 7 1 0
BITMAP
F3CF
6186
6186
6186
6186
6186
F3CF
ENDCHAR
STARTCHAR Fourroman
ENCODING 8547
SWIDTH 1265 0
DWIDTH 15 0
BBX 14 7 1 0
BITMAP
F7BC
6308
6108
6190
6080
60E0
F040
ENDCHAR
STARTCHAR Fiveroman
ENCODING 8548
SWIDTH 771 0
DWIDTH 9 0
BBX 9 7 0 0
BITMAP
F380
6100
2100
3200
1200
1C00
0800
ENDCHAR
STARTCHAR Sixroman
ENCODING 8549
SWIDTH 1265 0
DWIDTH 15 0
BBX 14 7 0 0
BITMAP
F3BC
6118
2118
3218
1218
1C18
083C
ENDCHAR
STARTCHAR Sevenroman
ENCODING 8550
SWIDTH 1759 0
DWIDTH 21 0
BBX 20 7 0 0
BITMAP
F3BCF0
611860
211860
321860
121860
1C1860
083CF0
ENDCHAR
STARTCHAR Eightroman
ENCODING 8551
SWIDTH 2253 0
DWIDTH 27 0
BBX 26 7 0 0
BITMAP
F3BCF3C0
61186180
21186180
32186180
12186180
1C186180
083CF3C0
ENDCHAR
STARTCHAR Nineroman
ENCODING 8552
SWIDTH 1267 0
DWIDTH 15 0
BBX 14 7 1 0
BITMAP
F7BC
6190
60A0
60E0
60E0
6130
F7BC
ENDCHAR
STARTCHAR Tenroman
ENCODING 8553
SWIDTH 773 0
DWIDTH 9 0
BBX 9 7 0 0
BITMAP
F780
3000
1C00
0C00
1600
2200
F780
ENDCHAR
STARTCHAR Elevenroman
ENCODING 8554
SWIDTH 1265 0
DWIDTH 15 0
BBX 14 7 0 0
BITMAP
F3BC
6118
2118
3218
1218
1C18
083C
ENDCHAR
STARTCHAR Twelveroman
ENCODING 8555
SWIDTH 1761 0
DWIDTH 21 0
BBX 20 7 0 0
BITMAP
F7BCF0
300860
1C0860
0C0860
160860
220860
F79CF0
ENDCHAR
STARTCHAR uni216C
ENCODING 8556
SWIDTH 754 0
DWIDTH 9 0
BBX 7 7 1 0
BITMAP
E0
40
40
40
42
42
FE
ENDCHAR
STARTCHAR uni216D
ENCODING 8557
SWIDTH 780 0
DWIDTH 9 0
BBX 8 7 1 0
BITMAP
1E
42
C0
80
C0
C3
7C
ENDCHAR
STARTCHAR uni216E
ENCODING 8558
SWIDTH 849 0
DWIDTH 10 0
BBX 8 7 1 0
BITMAP
FE
43
43
41
41
42
FC
ENDCHAR
STARTCHAR uni216F
ENCODING 8559
SWIDTH 966 0
DWIDTH 12 0
BBX 10 7 1 0
BITMAP
E1C0
6180
7380
7180
5D80
5980
EBC0
ENDCHAR
STARTCHAR arrowleft
ENCODING 8592
SWIDTH 762 0
DWIDTH 9 0
BBX 8 5 0 1
BITMAP
10
63
FE
31
10
ENDCHAR
STARTCHAR arrowup
ENCODING 8593
SWIDTH 584 0
DWIDTH 7 0
BBX 5 8 1 0
BITMAP
20
20
70
A8
20
20
70
50
ENDCHAR
STARTCHAR arrowright
ENCODING 8594
SWIDTH 762 0
DWIDTH 9 0
BBX 8 5 1 1
BITMAP
08
C6
7F
84
08
ENDCHAR
STARTCHAR arrowdown
ENCODING 8595
SWIDTH 584 0
DWIDTH 7 0
BBX 5 8 1 -1
BITMAP
50
20
20
20
F8
70
20
20
ENDCHAR
STARTCHAR uni2194
ENCODING 8596
SWIDTH 1118 0
DWIDTH 13 0
BBX 13 6 0 1
BITMAP
0040
1020
6330
FFF8
3420
1040
ENDCHAR
STARTCHAR arrowupdn
ENCODING 8597
SWIDTH 584 0
DWIDTH 7 0
BBX 5 13 1 -3
BITMAP
20
70
70
20
20
60
30
20
20
F8
70
20
20
ENDCHAR
STARTCHAR uni2196
ENCODING 8598
SWIDTH 665 0
DWIDTH 8 0
BBX 6 5 1 1
BITMAP
F0
C0
B0
9C
10
ENDCHAR
STARTCHAR uni2197
ENCODING 8599
SWIDTH 666 0
DWIDTH 8 0
BBX 6 5 1 1
BITMAP
3C
0C
34
E4
20
ENDCHAR
STARTCHAR uni2198
ENCODING 8600
SWIDTH 666 0
DWIDTH 8 0
BBX 7 5 0 0
BITMAP
90
32
0A
0E
1E
ENDCHAR
STARTCHAR uni2199
ENCODING 8601
SWIDTH 666 0
DWIDTH 8 0
BBX 5 5 1 0
BITMAP
10
98
A0
E0
F0
ENDCHAR
STARTCHAR partialdiff
ENCODING 8706
SWIDTH 671 0
DWIDTH 8 0
BBX 6 10 1 0
BITMAP
E0
30
18
0C
7C
C4
84
C4
C8
70
ENDCHAR
STARTCHAR increment
ENCODING 8710
SWIDTH 867 0
DWIDTH 10 0
BBX 9 10 1 0
BITMAP
0800
1800
1C00
2400
2400
0600
4200
0300
8100
FF80
ENDCHAR
STARTCHAR product
ENCODING 8719
SWIDTH 934 0
DWIDTH 11 0
BBX 9 10 1 -1
BITMAP
4180
4100
4100
4100
4100
4100
4100
4100
4100
E380
ENDCHAR
STARTCHAR summation
ENCODING 8721
SWIDTH 789 0
DWIDTH 9 0
BBX 7 10 1 -1
BITMAP
C2
62
30
10
18
18
30
60
42
C6
ENDCHAR
STARTCHAR minus
ENCODING 8722
SWIDTH 527 0
DWIDTH 6 0
BBX 6 1 0 3
BITMAP
FC
ENDCHAR
STARTCHAR divisionslash
ENCODING 8725
SWIDTH 355 0
DWIDTH 4 0
BBX 4 13 0 -2
BITMAP
10
10
00
20
20
20
00
40
40
40
00
80
80
ENDCHAR
STARTCHAR bulletoperator
ENCODING 8729
SWIDTH 339 0
DWIDTH 4 0
BBX 2 2 1 3
BITMAP
40
C0
ENDCHAR
STARTCHAR radical
ENCODING 8730
SWIDTH 563 0
DWIDTH 7 0
BBX 10 13 0 0
BITMAP
0040
0040
0000
0080
0000
0100
0000
0200
0200
F000
3400
1000
1800
ENDCHAR
STARTCHAR infinity
ENCODING 8734
SWIDTH 987 0
DWIDTH 12 0
BBX 10 5 1 1
BITMAP
7180
DCC0
8CC0
D680
6300
ENDCHAR
STARTCHAR integral
ENCODING 8747
SWIDTH 420 0
DWIDTH 5 0
BBX 5 14 0 -3
BITMAP
08
18
20
20
20
20
20
20
20
20
20
20
20
C0
ENDCHAR
STARTCHAR approxequal
ENCODING 8776
SWIDTH 615 0
DWIDTH 7 0
BBX 4 4 1 2
BITMAP
C0
10
40
20
ENDCHAR
STARTCHAR notequal
ENCODING 8800
SWIDTH 527 0
DWIDTH 6 0
BBX 6 7 0 0
BITMAP
08
00
10
00
FC
00
40
ENDCHAR
STARTCHAR lessequal
ENCODING 8804
SWIDTH 507 0
DWIDTH 6 0
BBX 6 7 0 -1
BITMAP
10
20
60
30
18
00
FC
ENDCHAR
STARTCHAR greaterequal
ENCODING 8805
SWIDTH 507 0
DWIDTH 6 0
BBX 6 7 0 -1
BITMAP
60
38
08
10
40
00
FC
ENDCHAR
STARTCHAR lozenge
ENCODING 9674
SWIDTH 629 0
DWIDTH 8 0
BBX 5 10 1 0
BITMAP
30
50
58
08
88
C8
48
60
70
30
ENDCHAR
STARTCHAR dottedcircle
ENCODING 9676
SWIDTH 1144 0
DWIDTH 14 0
BBX 10 10 2 0
BITMAP
0800
0D00
6180
0000
C0C0
C0C0
0000
6180
6D80
0C00
ENDCHAR
STARTCHAR uni2619
ENCODING 9753
SWIDTH 964 0
DWIDTH 12 0
BBX 11 9 0 0
BITMAP
00E0
0120
0D20
DC80
5D60
3A20
7F20
3F40
1E40
ENDCHAR
STARTCHAR uni261A
ENCODING 9754
SWIDTH 1787 0
DWIDTH 21 0
BBX 19 10 1 -2
BITMAP
000040
01E0E0
7BF9C0
FFFCC0
07BDE0
04BDC0
035CC0
00D9E0
0000E0
000040
ENDCHAR
STARTCHAR uni261B
ENCODING 9755
SWIDTH 1787 0
DWIDTH 21 0
BBX 18 10 2 -2
BITMAP
800000
C1E000
F7FBC0
D7FBC0
F73C00
F7E800
D7B000
F7E000
E00000
800000
ENDCHAR
STARTCHAR pointingindexleftwhite
ENCODING 9756
SWIDTH 1787 0
DWIDTH 21 0
BBX 19 10 1 -2
BITMAP
000040
01E0A0
620800
FF8340
004220
040200
030740
00D920
0000A0
000040
ENDCHAR
STARTCHAR pointingindexupwhite
ENCODING 9757
SWIDTH 877 0
DWIDTH 11 0
BBX 7 14 2 -3
BITMAP
08
0C
0C
0C
18
28
48
DA
BA
D2
80
A4
84
78
ENDCHAR
STARTCHAR pointingindexrightwhite
ENCODING 9758
SWIDTH 1787 0
DWIDTH 21 0
BBX 18 10 2 -2
BITMAP
800000
01E000
9608C0
887BC0
48A400
884800
A8B000
97E000
E00000
800000
ENDCHAR
STARTCHAR pointingindexdownwhite
ENCODING 9759
SWIDTH 877 0
DWIDTH 11 0
BBX 7 14 2 -3
BITMAP
44
44
80
90
90
2A
10
34
B0
10
20
20
20
60
ENDCHAR
STARTCHAR uni2638
ENCODING 9784
SWIDTH 1059 0
DWIDTH 13 0
BBX 10 10 2 0
BITMAP
1C00
7B00
C980
EAC0
8C40
F040
9240
C1C0
6180
1F00
ENDCHAR
STARTCHAR uni2761
ENCODING 10081
SWIDTH 1052 0
DWIDTH 13 0
BBX 12 13 0 -3
BITMAP
0180
05E0
1C60
1260
2260
3E60
E260
2260
25E0
3960
3160
1360
0FF0
ENDCHAR
STARTCHAR uni2766
ENCODING 10086
SWIDTH 1090 0
DWIDTH 13 0
BBX 12 11 1 0
BITMAP
0400
0A00
9AF0
EA20
0400
3300
7700
7F00
7E00
3C00
1E00
ENDCHAR
STARTCHAR uni2767
ENCODING 10087
SWIDTH 987 0
DWIDTH 12 0
BBX 11 9 0 0
BITMAP
3000
4800
4B00
73A0
1BA0
2FA0
4FE0
CFC0
CF80
ENDCHAR
STARTCHAR uniA8F2
ENCODING 43250
SWIDTH 1181 0
DWIDTH 14 0
BBX 7 4 4 7
BITMAP
30
B4
86
7C
ENDCHAR
STARTCHAR uniA8F3
ENCODING 43251
SWIDTH 1266 0
DWIDTH 15 0
BBX 13 15 4 -4
BITMAP
3000
B400
8600
7C00
0000
0000
0000
7800
0400
0200
0100
0080
0020
0010
0008
ENDCHAR
STARTCHAR uniA8F4
ENCODING 43252
SWIDTH 1237 0
DWIDTH 15 0
BBX 7 16 4 -5
BITMAP
30
B4
86
7C
00
00
30
B4
86
7C
00
00
E0
10
04
02
ENDCHAR
STARTCHAR uniA8F5
ENCODING 43253
SWIDTH 1181 0
DWIDTH 14 0
BBX 7 15 4 -4
BITMAP
30
B4
86
7C
00
00
00
70
68
0C
0C
78
38
04
02
ENDCHAR
STARTCHAR uniA8F6
ENCODING 43254
SWIDTH 1181 0
DWIDTH 14 0
BBX 7 15 4 -4
BITMAP
30
B4
86
7C
00
00
00
70
08
1C
C8
4C
3C
10
08
ENDCHAR
STARTCHAR uniA8F7
ENCODING 43255
SWIDTH 1215 0
DWIDTH 15 0
BBX 8 14 3 -3
BITMAP
18
5A
43
3E
00
00
00
1E
30
20
10
88
4C
3C
ENDCHAR
STARTCHAR uniA8F8
ENCODING 43256
SWIDTH 994 0
DWIDTH 12 0
BBX 11 7 1 0
BITMAP
E180
C340
7B40
7160
60E0
21C0
1F00
ENDCHAR
STARTCHAR uniA8F9
ENCODING 43257
SWIDTH 894 0
DWIDTH 11 0
BBX 9 7 1 0
BITMAP
0300
0680
6280
C080
C180
C380
3E00
ENDCHAR
STARTCHAR uniA8FA
ENCODING 43258
SWIDTH 0 0
DWIDTH 0 0
BBX 5 4 -4 9
BITMAP
88
58
38
10
ENDCHAR
STARTCHAR uniA8FB
ENCODING 43259
SWIDTH 837 0
DWIDTH 10 0
BBX 6 1 2 8
BITMAP
FC
ENDCHAR
STARTCHAR fi
ENCODING 64257
SWIDTH 777 0
DWIDTH 9 0
BBX 8 11 1 0
BITMAP
18
2E
44
40
42
4E
46
46
46
46
F7
ENDCHAR
STARTCHAR fl
ENCODING 64258
SWIDTH 777 0
DWIDTH 9 0
BBX 8 11 1 0
BITMAP
0C
2E
46
46
46
46
46
46
46
46
F7
ENDCHAR
STARTCHAR .notdef
ENCODING -1
SWIDTH 1396 0
DWIDTH 17 0
BBX 15 15 1 -3
BITMAP
0100
0380
07C0
0FE0
1C70
3F38
7F7C
FEFE
7EFC
3FF8
1CF0
0EE0
07C0
0380
0100
ENDCHAR
STARTCHAR Iacute_J.loclNLD
ENCODING -1
SWIDTH 858 0
DWIDTH 10 0
BBX 9 17 1 -3
BITMAP
3180
6100
4200
0000
0000
6300
4300
4300
4300
4300
4300
4300
4300
F300
0200
0200
0400
ENDCHAR
STARTCHAR a.ss01
ENCODING -1
SWIDTH 715 0
DWIDTH 9 0
BBX 7 6 1 0
BITMAP
7C
C4
84
C4
C4
76
ENDCHAR
STARTCHAR aacute.ss01
ENCODING -1
SWIDTH 715 0
DWIDTH 9 0
BBX 7 11 1 0
BITMAP
08
18
00
00
00
7C
C4
84
C4
C4
76
ENDCHAR
STARTCHAR abreve.ss01
ENCODING -1
SWIDTH 715 0
DWIDTH 9 0
BBX 7 10 1 0
BITMAP
68
30
00
00
7C
C4
84
C4
C4
76
ENDCHAR
STARTCHAR acircumflex.ss01
ENCODING -1
SWIDTH 715 0
DWIDTH 9 0
BBX 7 10 1 0
BITMAP
38
8C
00
00
7C
C4
84
C4
C4
76
ENDCHAR
STARTCHAR adieresis.ss01
ENCODING -1
SWIDTH 715 0
DWIDTH 9 0
BBX 7 10 1 0
BITMAP
4C
48
00
00
7C
C4
84
C4
C4
76
ENDCHAR
STARTCHAR agrave.ss01
ENCODING -1
SWIDTH 715 0
DWIDTH 9 0
BBX 7 11 1 0
BITMAP
60
20
10
00
00
7C
C4
84
C4
C4
76
ENDCHAR
STARTCHAR amacron.ss01
ENCODING -1
SWIDTH 715 0
DWIDTH 9 0
BBX 7 10 1 0
BITMAP
7C
00
00
00
7C
C4
84
C4
C4
76
ENDCHAR
STARTCHAR aogonek.ss01
ENCODING -1
SWIDTH 715 0
DWIDTH 9 0
BBX 7 9 1 -3
BITMAP
7C
C4
84
C4
C4
76
00
0C
04
ENDCHAR
STARTCHAR aring.ss01
ENCODING -1
SWIDTH 715 0
DWIDTH 9 0
BBX 7 11 1 0
BITMAP
10
08
20
00
00
7C
C4
84
C4
C4
76
ENDCHAR
STARTCHAR atilde.ss01
ENCODING -1
SWIDTH 715 0
DWIDTH 9 0
BBX 7 11 1 0
BITMAP
20
78
00
00
00
7C
C4
84
C4
C4
76
ENDCHAR
STARTCHAR ae.ss01
ENCODING -1
SWIDTH 971 0
DWIDTH 12 0
BBX 10 7 1 0
BITMAP
0400
7F80
8CC0
8FC0
8C00
CC40
7F80
ENDCHAR
STARTCHAR g.ss02
ENCODING -1
SWIDTH 688 0
DWIDTH 8 0
BBX 6 9 1 -3
BITMAP
7C
80
88
CC
DC
24
44
C4
F8
ENDCHAR
STARTCHAR gbreve.ss02
ENCODING -1
SWIDTH 688 0
DWIDTH 8 0
BBX 6 13 1 -3
BITMAP
68
30
00
00
7C
80
88
CC
DC
24
44
C4
F8
ENDCHAR
STARTCHAR gcommaaccent.ss02
ENCODING -1
SWIDTH 684 0
DWIDTH 8 0
BBX 6 14 1 -3
BITMAP
10
20
30
00
00
7C
80
88
CC
DC
24
44
C4
F8
ENDCHAR
STARTCHAR gdotaccent.ss02
ENCODING -1
SWIDTH 688 0
DWIDTH 8 0
BBX 6 13 1 -3
BITMAP
30
30
00
00
7C
80
88
CC
DC
24
44
C4
F8
ENDCHAR
STARTCHAR iacute_j.loclNLD
ENCODING -1
SWIDTH 768 0
DWIDTH 9 0
BBX 8 14 1 -3
BITMAP
23
62
44
00
42
CE
46
46
46
46
E6
06
04
08
ENDCHAR
STARTCHAR i.loclTRK
ENCODING -1
SWIDTH 389 0
DWIDTH 5 0
BBX 3 10 1 0
BITMAP
C0
40
00
40
C0
40
40
40
40
E0
ENDCHAR
STARTCHAR germandbls.calt
ENCODING -1
SWIDTH 896 0
DWIDTH 11 0
BBX 9 10 1 0
BITMAP
1E00
2700
4200
4400
4F80
4F00
4200
4400
4880
DF80
ENDCHAR
STARTCHAR T_h
ENCODING -1
SWIDTH 1382 0
DWIDTH 17 0
BBX 15 10 1 0
BITMAP
00C0
D8C0
9840
1840
185C
1844
1844
1844
1844
3CE6
ENDCHAR
STARTCHAR c_t
ENCODING -1
SWIDTH 1069 0
DWIDTH 13 0
BBX 12 11 1 0
BITMAP
0200
0F80
1880
1980
7980
C8E0
8080
C080
C480
7880
00F0
ENDCHAR
STARTCHAR f_adieresis.liga
ENCODING -1
SWIDTH 1063 0
DWIDTH 13 0
BBX 12 11 0 0
BITMAP
0400
1B20
2120
2000
2000
F9E0
2220
21E0
2320
2320
79F0
ENDCHAR
STARTCHAR f_b.liga
ENCODING -1
SWIDTH 1122 0
DWIDTH 13 0
BBX 12 11 1 0
BITMAP
0C00
2E00
4600
4600
4600
47E0
4620
4630
4620
4620
F5C0
ENDCHAR
STARTCHAR f_eth.liga
ENCODING -1
SWIDTH 1100 0
DWIDTH 13 0
BBX 11 11 1 0
BITMAP
0E00
3740
4180
42C0
4060
43E0
4620
4620
4620
4660
F3C0
ENDCHAR
STARTCHAR f_f.liga
ENCODING -1
SWIDTH 827 0
DWIDTH 10 0
BBX 10 11 1 0
BITMAP
00C0
3FC0
4200
4600
4600
4600
4600
4600
4600
4600
F700
ENDCHAR
STARTCHAR f_f_adieresis.liga
ENCODING -1
SWIDTH 1452 0
DWIDTH 17 0
BBX 17 11 0 0
BITMAP
006000
1FBB00
211100
230000
230000
FFCE00
231100
231F00
231100
231300
7BDD80
ENDCHAR
STARTCHAR f_f_b.liga
ENCODING -1
SWIDTH 1511 0
DWIDTH 18 0
BBX 16 11 1 0
BITMAP
00E0
3F60
4220
4620
4620
462F
4623
4621
4621
4633
F73E
ENDCHAR
STARTCHAR f_f_eth.liga
ENCODING -1
SWIDTH 1489 0
DWIDTH 18 0
BBX 16 11 1 0
BITMAP
0060
3F3A
420C
4226
4602
461F
4623
4623
4623
4632
F71C
ENDCHAR
STARTCHAR f_f_h.liga
ENCODING -1
SWIDTH 1497 0
DWIDTH 18 0
BBX 17 11 1 0
BITMAP
00E000
3F6000
422000
462000
462000
462E00
462300
462300
462300
462300
F73B80
ENDCHAR
STARTCHAR f_f_i.liga
ENCODING -1
SWIDTH 1166 0
DWIDTH 14 0
BBX 13 11 1 0
BITMAP
00C0
3F70
4220
4600
4600
4660
4620
4620
4620
4620
F738
ENDCHAR
STARTCHAR f_f_idieresis.liga
ENCODING -1
SWIDTH 1196 0
DWIDTH 14 0
BBX 13 11 1 0
BITMAP
0080
3FC8
4248
4600
4610
4670
4630
4630
4630
4630
F738
ENDCHAR
STARTCHAR f_f_igrave.liga
ENCODING -1
SWIDTH 1166 0
DWIDTH 14 0
BBX 13 11 1 0
BITMAP
00C0
3F60
4220
4600
4600
4660
4620
4620
4620
4620
F738
ENDCHAR
STARTCHAR f_f_iogonek.liga
ENCODING -1
SWIDTH 1166 0
DWIDTH 14 0
BBX 13 14 1 -3
BITMAP
00C0
3F70
4220
4600
4600
4660
4620
4620
4620
4620
F738
0010
0020
0030
ENDCHAR
STARTCHAR f_f_j.liga
ENCODING -1
SWIDTH 1156 0
DWIDTH 14 0
BBX 12 14 1 -3
BITMAP
00C0
3F70
4220
4600
4600
4660
4620
4620
4620
4620
F730
0020
0020
0040
ENDCHAR
STARTCHAR f_f_k.liga
ENCODING -1
SWIDTH 1487 0
DWIDTH 18 0
BBX 17 11 1 0
BITMAP
00E000
3F6000
422000
462000
462000
462300
462200
462C00
462400
462600
F73B80
ENDCHAR
STARTCHAR f_f_kcommaaccent.liga
ENCODING -1
SWIDTH 1487 0
DWIDTH 18 0
BBX 17 14 1 -3
BITMAP
00E000
3F6000
422000
462000
462000
462300
462200
462C00
462400
462600
F73B80
000000
000E00
000400
ENDCHAR
STARTCHAR f_f_l.liga
ENCODING -1
SWIDTH 1166 0
DWIDTH 14 0
BBX 13 11 1 0
BITMAP
00E0
3F60
4220
4620
4620
4620
4620
4620
4620
4620
F738
ENDCHAR
STARTCHAR f_f_lcaron.liga
ENCODING -1
SWIDTH 1166 0
DWIDTH 14 0
BBX 14 11 1 0
BITMAP
00E0
3F64
4224
4620
4620
4620
4620
4620
4620
4620
F738
ENDCHAR
STARTCHAR f_f_lcommaaccent.liga
ENCODING -1
SWIDTH 1166 0
DWIDTH 14 0
BBX 13 15 1 -4
BITMAP
00E0
3F60
4220
4620
4620
4620
4620
4620
4620
4620
F738
0000
0030
0010
0020
ENDCHAR
STARTCHAR f_f_odieresis.liga
ENCODING -1
SWIDTH 1465 0
DWIDTH 18 0
BBX 16 11 1 0
BITMAP
00C0
3F76
4222
4600
4600
461E
4623
4663
4663
4632
F73C
ENDCHAR
STARTCHAR f_h.liga
ENCODING -1
SWIDTH 1108 0
DWIDTH 13 0
BBX 12 11 1 0
BITMAP
0C00
2E00
4600
4600
4600
47E0
4660
4660
4660
4660
F770
ENDCHAR
STARTCHAR f_idieresis.liga
ENCODING -1
SWIDTH 807 0
DWIDTH 10 0
BBX 9 11 1 0
BITMAP
1800
2D80
4900
4000
4200
4600
4200
4200
4200
4200
F700
ENDCHAR
STARTCHAR f_igrave.liga
ENCODING -1
SWIDTH 777 0
DWIDTH 9 0
BBX 8 11 1 0
BITMAP
1C
2C
42
40
42
4E
46
46
46
46
F7
ENDCHAR
STARTCHAR f_iogonek.liga
ENCODING -1
SWIDTH 777 0
DWIDTH 9 0
BBX 8 14 1 -3
BITMAP
18
2E
44
40
42
4E
46
46
46
46
F7
02
06
06
ENDCHAR
STARTCHAR f_j.liga
ENCODING -1
SWIDTH 767 0
DWIDTH 9 0
BBX 7 14 1 -3
BITMAP
18
2E
44
40
42
4E
46
46
46
46
F6
06
04
08
ENDCHAR
STARTCHAR f_k.liga
ENCODING -1
SWIDTH 1098 0
DWIDTH 13 0
BBX 12 11 1 0
BITMAP
0C00
2E00
4600
4600
4600
4660
4640
4680
46C0
4640
F770
ENDCHAR
STARTCHAR f_kcommaaccent.liga
ENCODING -1
SWIDTH 1098 0
DWIDTH 13 0
BBX 12 15 1 -4
BITMAP
0C00
2E00
4600
4600
4600
4660
4640
4680
46C0
4640
F770
0000
01C0
0080
0080
ENDCHAR
STARTCHAR f_lcaron.liga
ENCODING -1
SWIDTH 777 0
DWIDTH 9 0
BBX 10 11 1 0
BITMAP
0C00
2EC0
46C0
4680
4600
4600
4600
4600
4600
4600
F700
ENDCHAR
STARTCHAR f_lcommaaccent.liga
ENCODING -1
SWIDTH 777 0
DWIDTH 9 0
BBX 8 14 1 -3
BITMAP
0C
2E
46
46
46
46
46
46
46
46
F7
00
07
02
ENDCHAR
STARTCHAR f_odieresis.liga
ENCODING -1
SWIDTH 1076 0
DWIDTH 13 0
BBX 11 11 1 0
BITMAP
0800
2640
4240
4000
4000
43C0
4460
4460
4420
4640
F380
ENDCHAR
STARTCHAR longs_t.liga
ENCODING -1
SWIDTH 869 0
DWIDTH 10 0
BBX 10 11 0 0
BITMAP
0400
1E00
2300
2300
E700
23C0
2300
2300
2300
7900
01C0
ENDCHAR
STARTCHAR s_t
ENCODING -1
SWIDTH 1015 0
DWIDTH 12 0
BBX 11 11 1 0
BITMAP
0200
1D00
1180
1380
3B80
79E0
9980
C980
B180
8980
F0E0
ENDCHAR
STARTCHAR longs_b.liga
ENCODING -1
SWIDTH 1123 0
DWIDTH 13 0
BBX 12 11 1 0
BITMAP
0C00
2E00
4600
4600
4600
47E0
4620
4630
4620
4620
F5C0
ENDCHAR
STARTCHAR longs_h.liga
ENCODING -1
SWIDTH 1108 0
DWIDTH 13 0
BBX 12 11 1 0
BITMAP
0C00
2E00
4600
4600
4600
47E0
4660
4660
4660
4660
F770
ENDCHAR
STARTCHAR longs_i.liga
ENCODING -1
SWIDTH 777 0
DWIDTH 9 0
BBX 8 11 1 0
BITMAP
18
2E
44
40
42
4E
46
46
46
46
F7
ENDCHAR
STARTCHAR longs_k.liga
ENCODING -1
SWIDTH 1097 0
DWIDTH 13 0
BBX 12 11 1 0
BITMAP
0C00
2E00
4600
4600
4600
4660
4640
4680
46C0
4640
F770
ENDCHAR
STARTCHAR longs_l.liga
ENCODING -1
SWIDTH 777 0
DWIDTH 9 0
BBX 8 11 1 0
BITMAP
0C
2E
46
46
46
46
46
46
46
46
F7
ENDCHAR
STARTCHAR longs_longs.liga
ENCODING -1
SWIDTH 827 0
DWIDTH 10 0
BBX 10 11 1 0
BITMAP
00C0
3FC0
4200
4600
4600
4600
4600
4600
4600
4600
F700
ENDCHAR
STARTCHAR longs_longs_i.liga
ENCODING -1
SWIDTH 1166 0
DWIDTH 14 0
BBX 13 11 1 0
BITMAP
00C0
3F70
4220
4600
4610
4670
4630
4630
4630
4630
F738
ENDCHAR
STARTCHAR longs_longs_l.liga
ENCODING -1
SWIDTH 1166 0
DWIDTH 14 0
BBX 13 11 1 0
BITMAP
00E0
3F60
4220
4620
4620
4620
4620
4620
4620
4620
F738
ENDCHAR
STARTCHAR uni0972.ss11
ENCODING -1
SWIDTH 1031 0
DWIDTH 12 0
BBX 15 15 0 0
BITMAP
0104
0186
008C
0038
0000
0000
FFF8
0230
0230
7A30
47F0
1CF0
1330
0630
0430
ENDCHAR
STARTCHAR uni0904.ss11
ENCODING -1
SWIDTH 1031 0
DWIDTH 12 0
BBX 15 15 -2 0
BITMAP
8000
2000
1F80
0020
0010
0008
3FFE
008C
008C
1E8C
11FC
073C
04CC
018C
010C
ENDCHAR
STARTCHAR adeva.ss11
ENCODING -1
SWIDTH 1031 0
DWIDTH 12 0
BBX 13 9 0 0
BITMAP
FFF8
0230
0230
7A30
47F0
1CF0
1330
0630
0430
ENDCHAR
STARTCHAR aadeva.ss11
ENCODING -1
SWIDTH 1359 0
DWIDTH 16 0
BBX 17 9 0 0
BITMAP
FFFF80
023200
023200
7A3200
47F200
1CF200
133200
063200
043200
ENDCHAR
STARTCHAR rvocalicdeva.ss11
ENCODING -1
SWIDTH 1031 0
DWIDTH 12 0
BBX 13 13 0 -4
BITMAP
FFF8
0230
0230
7A30
47F0
1E30
1230
0230
0270
0060
0040
0048
0010
ENDCHAR
STARTCHAR rrvocalicdeva.ss11
ENCODING -1
SWIDTH 1031 0
DWIDTH 12 0
BBX 13 14 0 -5
BITMAP
FFF8
0230
0230
7A30
47F0
1E30
1230
0230
0270
00C0
0060
00E0
00C8
0038
ENDCHAR
STARTCHAR uni0973.ss11
ENCODING -1
SWIDTH 1031 0
DWIDTH 12 0
BBX 13 16 0 0
BITMAP
0030
0030
0030
0030
0030
0000
0000
FFF8
0230
0230
7A30
47F0
1CF0
1330
0630
0430
ENDCHAR
STARTCHAR uni0976.ss11
ENCODING -1
SWIDTH 1031 0
DWIDTH 12 0
BBX 13 12 0 -3
BITMAP
FFF8
0230
0230
7A30
47F0
1CF0
1330
0630
0430
0000
0030
00F0
ENDCHAR
STARTCHAR uni0977.ss11
ENCODING -1
SWIDTH 1031 0
DWIDTH 12 0
BBX 13 12 0 -3
BITMAP
FFF8
0230
0230
7A30
47F0
1CF0
1330
0630
0430
0000
0030
00F0
ENDCHAR
STARTCHAR uni093F.01
ENCODING -1
SWIDTH 328 0
DWIDTH 4 0
BBX 6 13 1 0
BITMAP
E0
90
88
44
C0
40
40
40
40
40
40
40
40
ENDCHAR
STARTCHAR uni093F.02
ENCODING -1
SWIDTH 328 0
DWIDTH 4 0
BBX 7 13 1 0
BITMAP
38
6C
42
42
C0
40
40
40
40
40
40
40
40
ENDCHAR
STARTCHAR uni093F.03
ENCODING -1
SWIDTH 328 0
DWIDTH 4 0
BBX 8 13 1 0
BITMAP
38
64
42
41
C0
40
40
40
40
40
40
40
40
ENDCHAR
STARTCHAR uni093F.04
ENCODING -1
SWIDTH 328 0
DWIDTH 4 0
BBX 10 13 1 0
BITMAP
1C00
3300
6080
4040
C000
4000
4000
4000
4000
4000
4000
4000
4000
ENDCHAR
STARTCHAR uni093F.05
ENCODING -1
SWIDTH 328 0
DWIDTH 4 0
BBX 11 13 1 0
BITMAP
0E00
3980
6040
4020
C000
4000
4000
4000
4000
4000
4000
4000
4000
ENDCHAR
STARTCHAR uni093F.06
ENCODING -1
SWIDTH 328 0
DWIDTH 4 0
BBX 10 13 1 0
BITMAP
0E00
3980
6040
4000
C000
4000
4000
4000
4000
4000
4000
4000
4000
ENDCHAR
STARTCHAR uni093F.07
ENCODING -1
SWIDTH 328 0
DWIDTH 4 0
BBX 12 13 1 0
BITMAP
0F00
38C0
6020
4010
C000
4000
4000
4000
4000
4000
4000
4000
4000
ENDCHAR
STARTCHAR uni093F.08
ENCODING -1
SWIDTH 328 0
DWIDTH 4 0
BBX 11 13 1 0
BITMAP
0F00
38C0
6020
4000
C000
4000
4000
4000
4000
4000
4000
4000
4000
ENDCHAR
STARTCHAR uni093F.09
ENCODING -1
SWIDTH 328 0
DWIDTH 4 0
BBX 13 13 1 0
BITMAP
0F00
3CC0
6010
4008
C000
4000
4000
4000
4000
4000
4000
4000
4000
ENDCHAR
STARTCHAR uni093F.10
ENCODING -1
SWIDTH 328 0
DWIDTH 4 0
BBX 14 13 1 0
BITMAP
0F80
1CE0
7010
4004
C000
4000
4000
4000
4000
4000
4000
4000
4000
ENDCHAR
STARTCHAR uni093F.11
ENCODING -1
SWIDTH 328 0
DWIDTH 4 0
BBX 14 13 1 0
BITMAP
0780
1C60
7008
6004
C000
4000
4000
4000
4000
4000
4000
4000
4000
ENDCHAR
STARTCHAR uni093F.12
ENCODING -1
SWIDTH 328 0
DWIDTH 4 0
BBX 15 13 1 0
BITMAP
0780
1C70
3008
6002
C000
4000
4000
4000
4000
4000
4000
4000
4000
ENDCHAR
STARTCHAR uni093F.13
ENCODING -1
SWIDTH 328 0
DWIDTH 4 0
BBX 14 13 1 0
BITMAP
07C0
1C70
3004
6000
C000
4000
4000
4000
4000
4000
4000
4000
4000
ENDCHAR
STARTCHAR uni093F.14
ENCODING -1
SWIDTH 328 0
DWIDTH 4 0
BBX 16 13 1 0
BITMAP
07C0
1C38
3004
6001
C000
4000
4000
4000
4000
4000
4000
4000
4000
ENDCHAR
STARTCHAR uni093F.15
ENCODING -1
SWIDTH 328 0
DWIDTH 4 0
BBX 17 13 1 0
BITMAP
07C000
1E3800
300600
600080
C00000
400000
400000
400000
400000
400000
400000
400000
400000
ENDCHAR
STARTCHAR uni093F.16
ENCODING -1
SWIDTH 328 0
DWIDTH 4 0
BBX 17 13 1 0
BITMAP
07E000
1E3800
300200
600080
C00000
400000
400000
400000
400000
400000
400000
400000
400000
ENDCHAR
STARTCHAR uni093F.17
ENCODING -1
SWIDTH 328 0
DWIDTH 4 0
BBX 18 13 1 0
BITMAP
07E000
1E3C00
300300
600040
C00000
400000
400000
400000
400000
400000
400000
400000
400000
ENDCHAR
STARTCHAR uni093F.18
ENCODING -1
SWIDTH 328 0
DWIDTH 4 0
BBX 18 13 1 0
BITMAP
03E000
1E1C00
300100
600040
C00000
400000
400000
400000
400000
400000
400000
400000
400000
ENDCHAR
STARTCHAR uni093F.19
ENCODING -1
SWIDTH 328 0
DWIDTH 4 0
BBX 19 13 1 0
BITMAP
03F000
1E1E00
300180
600020
C00000
400000
400000
400000
400000
400000
400000
400000
400000
ENDCHAR
STARTCHAR uni093F.20
ENCODING -1
SWIDTH 328 0
DWIDTH 4 0
BBX 19 13 1 0
BITMAP
03F000
1E1E00
3000C0
600020
C00000
400000
400000
400000
400000
400000
400000
400000
400000
ENDCHAR
STARTCHAR uni093F.21
ENCODING -1
SWIDTH 328 0
DWIDTH 4 0
BBX 20 13 1 0
BITMAP
03F000
1F0F00
3000C0
600010
C00000
400000
400000
400000
400000
400000
400000
400000
400000
ENDCHAR
STARTCHAR uni093F.22
ENCODING -1
SWIDTH 328 0
DWIDTH 4 0
BBX 21 13 1 0
BITMAP
03F800
1F0F00
300060
600018
C00000
400000
400000
400000
400000
400000
400000
400000
400000
ENDCHAR
STARTCHAR uni093F.23
ENCODING -1
SWIDTH 328 0
DWIDTH 4 0
BBX 21 13 1 0
BITMAP
03F800
1F0F80
300060
600008
C00000
400000
400000
400000
400000
400000
400000
400000
400000
ENDCHAR
STARTCHAR uni093F.24
ENCODING -1
SWIDTH 328 0
DWIDTH 4 0
BBX 22 13 1 0
BITMAP
03F800
1F0780
300030
60000C
C00000
400000
400000
400000
400000
400000
400000
400000
400000
ENDCHAR
STARTCHAR uni093F.25
ENCODING -1
SWIDTH 328 0
DWIDTH 4 0
BBX 22 13 1 0
BITMAP
01FC00
0F0780
300030
600004
C00000
400000
400000
400000
400000
400000
400000
400000
400000
ENDCHAR
STARTCHAR uni093F.26
ENCODING -1
SWIDTH 328 0
DWIDTH 4 0
BBX 23 13 1 0
BITMAP
01FC00
0F07C0
380038
600002
C00000
400000
400000
400000
400000
400000
400000
400000
400000
ENDCHAR
STARTCHAR uni093F.27
ENCODING -1
SWIDTH 328 0
DWIDTH 4 0
BBX 23 13 1 0
BITMAP
01FC00
0F87C0
380018
600002
C00000
400000
400000
400000
400000
400000
400000
400000
400000
ENDCHAR
STARTCHAR uni093F.28
ENCODING -1
SWIDTH 328 0
DWIDTH 4 0
BBX 24 13 1 0
BITMAP
01FE00
0F83E0
38001C
600001
C00000
400000
400000
400000
400000
400000
400000
400000
400000
ENDCHAR
STARTCHAR uni093F.29
ENCODING -1
SWIDTH 328 0
DWIDTH 4 0
BBX 25 13 1 0
BITMAP
01FE0000
0F83E000
38000C00
60000180
C0000000
40000000
40000000
40000000
40000000
40000000
40000000
40000000
40000000
ENDCHAR
STARTCHAR uni093F.30
ENCODING -1
SWIDTH 328 0
DWIDTH 4 0
BBX 25 13 1 0
BITMAP
01FE0000
0F83F000
38000E00
60000080
C0000000
40000000
40000000
40000000
40000000
40000000
40000000
40000000
40000000
ENDCHAR
STARTCHAR uni0940.01
ENCODING -1
SWIDTH 328 0
DWIDTH 4 0
BBX 9 13 -4 0
BITMAP
7000
D800
4400
4000
0780
0200
0200
0200
0200
0200
0200
0200
0200
ENDCHAR
STARTCHAR uni0940.02
ENCODING -1
SWIDTH 328 0
DWIDTH 4 0
BBX 9 13 -4 0
BITMAP
7000
C800
8400
8000
0780
0200
0200
0200
0200
0200
0200
0200
0200
ENDCHAR
STARTCHAR uni0940.03
ENCODING -1
SWIDTH 328 0
DWIDTH 4 0
BBX 10 13 -5 0
BITMAP
7000
CC00
8200
8000
03C0
0100
0100
0100
0100
0100
0100
0100
0100
ENDCHAR
STARTCHAR uni0940.04
ENCODING -1
SWIDTH 328 0
DWIDTH 4 0
BBX 12 13 -7 0
BITMAP
1C00
7200
4100
C000
40F0
0040
0040
0040
0040
0040
0040
0040
0040
ENDCHAR
STARTCHAR uni0940.07
ENCODING -1
SWIDTH 328 0
DWIDTH 4 0
BBX 14 13 -9 0
BITMAP
1E00
3980
6040
C000
003C
0010
0010
0010
0010
0010
0010
0010
0010
ENDCHAR
STARTCHAR uni0940.09
ENCODING -1
SWIDTH 328 0
DWIDTH 4 0
BBX 15 13 -10 0
BITMAP
1E00
39C0
6020
C000
001E
0008
0008
0008
0008
0008
0008
0008
0008
ENDCHAR
STARTCHAR jhadeva.ss11
ENCODING -1
SWIDTH 1128 0
DWIDTH 14 0
BBX 15 9 0 0
BITMAP
F7FE
1100
1100
1100
7FF0
3118
0118
0118
0118
ENDCHAR
STARTCHAR nnadeva.ss11
ENCODING -1
SWIDTH 943 0
DWIDTH 11 0
BBX 13 11 -1 -2
BITMAP
FFF8
0DA0
0DA0
3DA0
19A0
09A0
04A0
0220
0120
0080
0040
ENDCHAR
STARTCHAR uni0932.loclMAR
ENCODING -1
SWIDTH 919 0
DWIDTH 11 0
BBX 12 7 0 2
BITMAP
FFF0
0300
1300
6680
64C0
20C0
1180
ENDCHAR
STARTCHAR uni0932.ss11
ENCODING -1
SWIDTH 867 0
DWIDTH 10 0
BBX 11 9 0 0
BITMAP
FFE0
00C0
10C0
65C0
67C0
26C0
10C0
00C0
00C0
ENDCHAR
STARTCHAR shadeva.loclMAR
ENCODING -1
SWIDTH 848 0
DWIDTH 10 0
BBX 11 10 0 -1
BITMAP
FFE0
1080
3080
6880
6880
1880
2C80
3880
1C80
0200
ENDCHAR
STARTCHAR kadeva_radeva
ENCODING -1
SWIDTH 1037 0
DWIDTH 12 0
BBX 13 9 0 0
BITMAP
FFF8
0600
1780
7740
6620
6660
1EE0
1E00
3200
ENDCHAR
STARTCHAR uni0915094D091A
ENCODING -1
SWIDTH 1107 0
DWIDTH 13 0
BBX 14 12 0 -3
BITMAP
FFFC
0300
03C0
3BA0
3310
3330
1F60
3300
7300
CF00
0300
0100
ENDCHAR
STARTCHAR uni0915094D0923
ENCODING -1
SWIDTH 1546 0
DWIDTH 19 0
BBX 20 9 0 0
BITMAP
FFFFF0
0644C0
17C4C0
7744C0
664CC0
6638C0
1E00C0
0600C0
060040
ENDCHAR
STARTCHAR uni0915094D0923.ss11
ENCODING -1
SWIDTH 1560 0
DWIDTH 19 0
BBX 20 12 0 -3
BITMAP
FFFFF0
0616C0
1796C0
77F6C0
6666C0
6626C0
1E12C0
0608C0
020040
000100
000080
000040
ENDCHAR
STARTCHAR uni0915094D0924
ENCODING -1
SWIDTH 1157 0
DWIDTH 14 0
BBX 15 9 0 0
BITMAP
FFFE
0100
FFC0
7FF0
1118
1118
0930
0100
0100
ENDCHAR
STARTCHAR uni0915094D09240930
ENCODING -1
SWIDTH 1257 0
DWIDTH 15 0
BBX 16 9 0 0
BITMAP
FFFF
00C0
FFE0
7FC8
13CC
16CC
08D8
00C0
00C0
ENDCHAR
STARTCHAR uni0915094D0924094D0924
ENCODING -1
SWIDTH 1157 0
DWIDTH 14 0
BBX 15 10 0 -1
BITMAP
FFFE
0100
FFC0
7FF0
0118
7F18
1130
1100
0900
0100
ENDCHAR
STARTCHAR uni0915094D0924094D092F
ENCODING -1
SWIDTH 1509 0
DWIDTH 18 0
BBX 19 9 0 0
BITMAP
FFFFE0
008080
008080
7FF880
108880
10B980
089380
058E80
008080
ENDCHAR
STARTCHAR uni0915094D0924094D0935
ENCODING -1
SWIDTH 1559 0
DWIDTH 19 0
BBX 20 9 0 0
BITMAP
FFFFF0
0600C0
1780C0
776EC0
667CC0
664CC0
1E47C0
0620C0
021040
ENDCHAR
STARTCHAR uni0915094D0925
ENCODING -1
SWIDTH 1569 0
DWIDTH 19 0
BBX 20 10 0 0
BITMAP
001800
FFF5F0
063440
179E40
776C40
6638C0
2611C0
1E0740
060040
020040
ENDCHAR
STARTCHAR uni0915094D092A
ENCODING -1
SWIDTH 1305 0
DWIDTH 16 0
BBX 17 9 0 0
BITMAP
FFFF80
064600
17C600
774600
666600
663E00
1E0600
060600
060200
ENDCHAR
STARTCHAR uni0915094D092A0930
ENCODING -1
SWIDTH 1305 0
DWIDTH 16 0
BBX 17 9 0 0
BITMAP
FFFF80
064600
17C600
774600
666600
663E00
1E1E00
063600
066200
ENDCHAR
STARTCHAR uni0915094D092B
ENCODING -1
SWIDTH 1695 0
DWIDTH 20 0
BBX 21 9 0 0
BITMAP
FFFFF8
064600
17C780
774740
666620
663E60
1E06E0
060600
060200
ENDCHAR
STARTCHAR uni0915094D092E
ENCODING -1
SWIDTH 1255 0
DWIDTH 15 0
BBX 16 9 0 0
BITMAP
FFFF
0604
1784
7744
6624
66FC
1EE4
0604
0604
ENDCHAR
STARTCHAR uni0915094D092F
ENCODING -1
SWIDTH 1295 0
DWIDTH 16 0
BBX 17 9 0 0
BITMAP
FFFF80
060600
178600
776600
662600
666600
1EEE00
067E00
020200
ENDCHAR
STARTCHAR uni0915094D0930
ENCODING -1
SWIDTH 627 0
DWIDTH 8 0
BBX 11 9 0 0
BITMAP
FFE0
0600
1780
7740
6600
6600
1E00
1E00
3200
ENDCHAR
STARTCHAR uni0915094D0937
ENCODING -1
SWIDTH 864 0
DWIDTH 10 0
BBX 10 12 1 -2
BITMAP
3000
6BC0
6900
3900
3300
6F00
C100
D900
5D00
3D00
0800
0200
ENDCHAR
STARTCHAR uni0915094D0937.ss11
ENCODING -1
SWIDTH 1013 0
DWIDTH 12 0
BBX 13 11 0 -2
BITMAP
FFF8
0020
0020
7FE0
1020
1020
1320
0BA0
07A0
0100
0080
ENDCHAR
STARTCHAR uni0915094D09370930
ENCODING -1
SWIDTH 934 0
DWIDTH 11 0
BBX 11 12 1 -2
BITMAP
2000
51E0
D880
7080
7380
DE80
8180
B380
BA80
3880
0800
0400
ENDCHAR
STARTCHAR uni0915094D0937094D
ENCODING -1
SWIDTH 536 0
DWIDTH 6 0
BBX 8 12 1 -2
BITMAP
30
68
68
38
33
6E
C0
D8
5C
3C
08
02
ENDCHAR
STARTCHAR uni0915094D0937094D092E
ENCODING -1
SWIDTH 1270 0
DWIDTH 15 0
BBX 15 12 1 -2
BITMAP
2000
57FE
D888
7088
7088
DBF8
8788
B008
B808
3808
0800
0400
ENDCHAR
STARTCHAR uni0915094D0937094D092F
ENCODING -1
SWIDTH 1258 0
DWIDTH 15 0
BBX 15 12 1 -2
BITMAP
2000
57FE
D888
70C8
7188
DB18
87F8
B008
B808
7808
0800
0400
ENDCHAR
STARTCHAR uni0915094D0937094D0935
ENCODING -1
SWIDTH 1164 0
DWIDTH 14 0
BBX 14 12 1 -2
BITMAP
2000
57FC
D810
7090
7390
DB10
8730
B0F0
B810
7810
0800
0400
ENDCHAR
STARTCHAR uni0915094D0938094D091F
ENCODING -1
SWIDTH 1791 0
DWIDTH 21 0
BBX 23 9 0 0
BITMAP
FFFFFE
063020
179020
7751E0
66FB00
667F00
1E2100
061118
0208F0
ENDCHAR
STARTCHAR uni0915094D0938094D0921
ENCODING -1
SWIDTH 1805 0
DWIDTH 22 0
BBX 23 9 0 0
BITMAP
FFFFFE
063010
1691F0
775380
66FFA0
6670F8
1E2208
061118
0208F0
ENDCHAR
STARTCHAR uni0915094D0938094D0924
ENCODING -1
SWIDTH 1795 0
DWIDTH 22 0
BBX 23 9 0 0
BITMAP
FFFFFE
063018
17B018
777018
66FBF8
667F18
1E2118
061098
020848
ENDCHAR
STARTCHAR uni0915094D0938094D092A094D0932
ENCODING -1
SWIDTH 2210 0
DWIDTH 27 0
BBX 28 9 0 0
BITMAP
FFFFFFF0
063200C0
179210C0
777265C0
66FA67C0
667FE6C0
1E2010C0
061000C0
02080040
ENDCHAR
STARTCHAR khadeva_radeva
ENCODING -1
SWIDTH 1084 0
DWIDTH 13 0
BBX 15 9 -1 0
BITMAP
FFFE
0808
0C48
0CE8
3D88
1898
0878
0468
02C8
ENDCHAR
STARTCHAR uni0916094D0916
ENCODING -1
SWIDTH 1920 0
DWIDTH 23 0
BBX 25 9 -1 0
BITMAP
FFFFFF80
08020200
0C431200
0CE33A00
3D8F6200
189E2600
08721E00
04010200
02008200
ENDCHAR
STARTCHAR uni0916094D0928
ENCODING -1
SWIDTH 1504 0
DWIDTH 18 0
BBX 20 9 -1 0
BITMAP
FFFFF0
080040
0C4040
0CE040
3D8FC0
189E40
087040
040040
020040
ENDCHAR
STARTCHAR uni0916094D092E
ENCODING -1
SWIDTH 1620 0
DWIDTH 19 0
BBX 22 9 -1 0
BITMAP
FFFFFC
080230
0C4230
0CE230
3D8FF0
189E30
087030
040030
020030
ENDCHAR
STARTCHAR uni0916094D092F
ENCODING -1
SWIDTH 1568 0
DWIDTH 19 0
BBX 21 9 -1 0
BITMAP
FFFFF8
080220
0C4220
0CE620
3D8C60
189FE0
087020
040020
020020
ENDCHAR
STARTCHAR uni0916094D0930
ENCODING -1
SWIDTH 756 0
DWIDTH 9 0
BBX 13 9 -1 0
BITMAP
FFF8
0800
0C40
0CE0
3D80
1898
0870
0460
02C0
ENDCHAR
STARTCHAR uni0916094D0936
ENCODING -1
SWIDTH 1587 0
DWIDTH 19 0
BBX 21 10 -1 0
BITMAP
000C00
FFFA78
080A20
0C4620
0CC220
3D8E20
189E20
0870A0
040020
020020
ENDCHAR
STARTCHAR gadeva_radeva
ENCODING -1
SWIDTH 768 0
DWIDTH 9 0
BBX 11 9 -1 0
BITMAP
FFE0
0880
0880
0880
3880
1980
0380
0680
0C80
ENDCHAR
STARTCHAR uni09170930092F
ENCODING -1
SWIDTH 1142 0
DWIDTH 14 0
BBX 16 10 -1 -1
BITMAP
FFFF
084C
084C
08CC
398C
1BFC
060C
0E0C
0C04
0800
ENDCHAR
STARTCHAR uni0917094D0928
ENCODING -1
SWIDTH 768 0
DWIDTH 9 0
BBX 11 9 -1 0
BITMAP
FFE0
0880
0880
0880
3980
1B80
0680
0E80
0680
ENDCHAR
STARTCHAR uni0917094D092D
ENCODING -1
SWIDTH 1133 0
DWIDTH 14 0
BBX 16 9 -1 0
BITMAP
FF9F
084C
084C
084C
39FC
19CC
000C
000C
0004
ENDCHAR
STARTCHAR uni0917094D092D094D092F
ENCODING -1
SWIDTH 1537 0
DWIDTH 18 0
BBX 21 9 -1 0
BITMAP
FFBFF8
084660
084660
084E60
39F8E0
19C7E0
000060
000060
000060
ENDCHAR
STARTCHAR uni0917094D0930
ENCODING -1
SWIDTH 440 0
DWIDTH 5 0
BBX 9 9 -1 0
BITMAP
FE00
0800
0800
0800
3800
1980
0300
0600
0C00
ENDCHAR
STARTCHAR ghadeva_radeva
ENCODING -1
SWIDTH 854 0
DWIDTH 10 0
BBX 11 11 0 -2
BITMAP
FFE0
7080
4080
2880
3C80
2180
3380
0E80
0680
0C00
1800
ENDCHAR
STARTCHAR uni0918094D0930
ENCODING -1
SWIDTH 526 0
DWIDTH 6 0
BBX 9 11 0 -2
BITMAP
FF80
7000
4000
2800
3C00
2180
3300
0F00
0600
0C00
1800
ENDCHAR
STARTCHAR uni0919094D0915
ENCODING -1
SWIDTH 792 0
DWIDTH 10 0
BBX 12 15 -1 -6
BITMAP
FFF0
0100
1F40
1060
1F00
4580
1380
0E00
3380
7360
6620
6660
1EC0
0200
0200
ENDCHAR
STARTCHAR uni0919094D09150930
ENCODING -1
SWIDTH 792 0
DWIDTH 10 0
BBX 12 15 -1 -6
BITMAP
FFF0
0100
1F40
1060
1F00
4580
1380
0E00
3380
7340
6620
6660
1EC0
1A00
3200
ENDCHAR
STARTCHAR uni0919094D0915094D0937
ENCODING -1
SWIDTH 792 0
DWIDTH 10 0
BBX 12 17 -1 -8
BITMAP
FFF0
0100
1F40
1860
1700
4580
1380
6F80
D180
9F80
7F80
6180
D980
5D80
1D80
0400
0200
ENDCHAR
STARTCHAR uni0919094D0915094D0937.ss11
ENCODING -1
SWIDTH 792 0
DWIDTH 10 0
BBX 13 16 -2 -7
BITMAP
7FF8
0080
0FA0
0C30
0F80
22C0
09C0
07C0
00C0
FFC0
30C0
24C0
1EC0
0EC0
02C0
0100
ENDCHAR
STARTCHAR uni0919094D0916
ENCODING -1
SWIDTH 1142 0
DWIDTH 14 0
BBX 16 15 -1 -6
BITMAP
FFFF
010C
1F0C
182C
170C
458C
138C
0E0C
066C
1ECC
1ECC
0C5C
020C
010C
0004
ENDCHAR
STARTCHAR uni0919094D0917
ENCODING -1
SWIDTH 792 0
DWIDTH 10 0
BBX 12 12 -1 -3
BITMAP
FFF0
0100
1F40
1860
1F00
4580
1380
1F00
1900
7900
3100
0100
ENDCHAR
STARTCHAR uni0919094D09170930
ENCODING -1
SWIDTH 792 0
DWIDTH 10 0
BBX 12 13 -1 -4
BITMAP
FFF0
0100
1F40
1860
1F00
4580
1380
1F00
1900
7900
3300
0700
0400
ENDCHAR
STARTCHAR uni0919094D0918
ENCODING -1
SWIDTH 868 0
DWIDTH 10 0
BBX 13 13 -1 -4
BITMAP
FFF8
0080
0FA0
0830
0F80
26C0
39C0
67C0
60C0
1CC0
31C0
13C0
0640
ENDCHAR
STARTCHAR uni0919094D09180930
ENCODING -1
SWIDTH 868 0
DWIDTH 10 0
BBX 13 15 -1 -6
BITMAP
FFF8
0080
0FA0
0830
0F80
26C0
39C0
67C0
60C0
1CC0
31C0
13C0
0640
0E00
0400
ENDCHAR
STARTCHAR uni0919094D092E
ENCODING -1
SWIDTH 1114 0
DWIDTH 13 0
BBX 15 13 -1 -4
BITMAP
FFFE
010C
1F4C
186C
1F0C
458C
138C
0F0C
010C
07FC
070C
000C
0004
ENDCHAR
STARTCHAR uni0919094D092F
ENCODING -1
SWIDTH 1160 0
DWIDTH 14 0
BBX 16 9 -1 0
BITMAP
FFFF
0104
1F04
1024
1204
0F8C
00FC
1184
0F04
ENDCHAR
STARTCHAR uni0919094D0930
ENCODING -1
SWIDTH 832 0
DWIDTH 10 0
BBX 13 15 -1 -6
BITMAP
FFF8
0100
1F00
1020
1200
0F80
0080
1180
0F00
0700
0480
0C40
0100
0080
0040
ENDCHAR
STARTCHAR cadeva_radeva
ENCODING -1
SWIDTH 838 0
DWIDTH 10 0
BBX 11 9 0 0
BITMAP
FFE0
0080
FC80
7E80
1880
0980
0780
0680
0C80
ENDCHAR
STARTCHAR uni091A094D091A
ENCODING -1
SWIDTH 1108 0
DWIDTH 13 0
BBX 14 9 0 0
BITMAP
FFFC
0010
FF90
7FD0
1110
1330
0EF0
0010
0010
ENDCHAR
STARTCHAR uni091A094D091B
ENCODING -1
SWIDTH 1504 0
DWIDTH 18 0
BBX 19 9 0 0
BITMAP
FFFFE0
000300
F9E300
7D8680
10F6C0
10E2C0
0FC1C0
004380
003F00
ENDCHAR
STARTCHAR uni091A094D0928
ENCODING -1
SWIDTH 1168 0
DWIDTH 14 0
BBX 15 9 0 0
BITMAP
FFFE
0008
F808
7C08
11F8
11C8
0F08
0008
0008
ENDCHAR
STARTCHAR uni091A094D092E
ENCODING -1
SWIDTH 1284 0
DWIDTH 15 0
BBX 16 9 0 0
BITMAP
FFFF
0046
F846
7C46
11FE
11C6
0F06
0006
0006
ENDCHAR
STARTCHAR uni091A094D092F
ENCODING -1
SWIDTH 1232 0
DWIDTH 15 0
BBX 16 9 0 0
BITMAP
FFFF
004C
F84C
7CCC
118C
11FC
0F0C
000C
0004
ENDCHAR
STARTCHAR uni091A094D0930
ENCODING -1
SWIDTH 510 0
DWIDTH 6 0
BBX 9 9 0 0
BITMAP
FF80
0000
FC00
7E00
1880
0980
0700
0600
0C00
ENDCHAR
STARTCHAR uni091B094D092F
ENCODING -1
SWIDTH 1412 0
DWIDTH 17 0
BBX 18 9 0 0
BITMAP
FFFFC0
00C100
70C100
61A100
3DA100
38B300
307700
10FD00
0F8100
ENDCHAR
STARTCHAR uni091B094D0930
ENCODING -1
SWIDTH 994 0
DWIDTH 12 0
BBX 13 15 0 -6
BITMAP
FFF8
0000
70C0
61A0
3DA0
38B0
3070
10E0
0F80
0380
0240
0620
0080
0040
0020
ENDCHAR
STARTCHAR jadeva_radeva
ENCODING -1
SWIDTH 828 0
DWIDTH 10 0
BBX 11 11 0 -2
BITMAP
FFE0
0080
0080
0080
1F80
0880
0480
4480
3D80
0300
0600
ENDCHAR
STARTCHAR uni091C094D0915
ENCODING -1
SWIDTH 1477 0
DWIDTH 18 0
BBX 18 9 0 0
BITMAP
FFFFC0
001000
009400
01D900
3F1100
113180
08F700
8C1000
381000
ENDCHAR
STARTCHAR uni091C094D091C
ENCODING -1
SWIDTH 1358 0
DWIDTH 16 0
BBX 17 9 0 0
BITMAP
FFFF80
000200
000200
000200
3FFE00
102200
081200
8D1A00
387200
ENDCHAR
STARTCHAR uni091C094D091C094D091E
ENCODING -1
SWIDTH 1298 0
DWIDTH 16 0
BBX 17 9 0 0
BITMAP
FFFF80
000600
000600
000600
3FFE00
104600
083600
8DF600
38E200
ENDCHAR
STARTCHAR uni091C094D091C094D092F
ENCODING -1
SWIDTH 1632 0
DWIDTH 20 0
BBX 21 9 0 0
BITMAP
FFFFF8
000260
000660
000E60
3FFCE0
1027E0
081060
8D1060
38F020
ENDCHAR
STARTCHAR uni091C094D091C094D0935
ENCODING -1
SWIDTH 1548 0
DWIDTH 19 0
BBX 20 9 0 0
BITMAP
FFFFF0
0000C0
0004C0
000EC0
3FF8C0
1028C0
0817C0
8D10C0
38F040
ENDCHAR
STARTCHAR uni091C094D091D
ENCODING -1
SWIDTH 1530 0
DWIDTH 18 0
BBX 19 12 0 -3
BITMAP
FFFFE0
0008C0
00F8C0
0081C0
3F9BC0
117CC0
0984C0
CD8CC0
3878C0
002000
001000
000E00
ENDCHAR
STARTCHAR uni091C094D091D.ss11
ENCODING -1
SWIDTH 1558 0
DWIDTH 19 0
BBX 20 9 0 0
BITMAP
FFBFF0
008800
00C800
00C800
3FFF80
118840
080840
8C08C0
3808C0
ENDCHAR
STARTCHAR uni091C094D091E
ENCODING -1
SWIDTH 758 0
DWIDTH 9 0
BBX 10 11 0 -2
BITMAP
FFC0
0100
0100
0100
3F00
1100
0900
7900
7900
0400
0200
ENDCHAR
STARTCHAR uni091C094D091E094D
ENCODING -1
SWIDTH 430 0
DWIDTH 5 0
BBX 8 11 0 -2
BITMAP
FF
00
00
00
3F
10
08
78
78
04
02
ENDCHAR
STARTCHAR uni091C094D091E094D092F
ENCODING -1
SWIDTH 1062 0
DWIDTH 13 0
BBX 14 11 0 -2
BITMAP
FFFC
0130
0130
0330
3E30
13F0
0830
7830
7810
0400
0200
ENDCHAR
STARTCHAR uni091C094D091F
ENCODING -1
SWIDTH 1133 0
DWIDTH 14 0
BBX 15 9 0 0
BITMAP
FFFE
0020
0020
01E0
3F80
1300
0908
8D18
38F0
ENDCHAR
STARTCHAR uni091C094D0921
ENCODING -1
SWIDTH 1212 0
DWIDTH 15 0
BBX 16 9 0 0
BITMAP
FFFF
0008
00F8
0080
3F90
107C
0904
CC8C
3878
ENDCHAR
STARTCHAR uni091C094D0924
ENCODING -1
SWIDTH 1162 0
DWIDTH 14 0
BBX 15 9 0 0
BITMAP
FFFE
0008
0008
0008
3FF8
1188
0908
8C88
3848
ENDCHAR
STARTCHAR uni091C094D0926
ENCODING -1
SWIDTH 1118 0
DWIDTH 13 0
BBX 15 10 0 -1
BITMAP
FFFE
0020
0020
01E0
3F00
1100
0930
8CB8
3878
0010
ENDCHAR
STARTCHAR uni091C094D0928
ENCODING -1
SWIDTH 1098 0
DWIDTH 13 0
BBX 14 9 0 0
BITMAP
FFFC
0010
0010
0010
3FF0
1190
0810
8C10
3810
ENDCHAR
STARTCHAR uni091C094D092C
ENCODING -1
SWIDTH 1088 0
DWIDTH 13 0
BBX 14 9 0 0
BITMAP
FFFC
0010
0090
01D0
3F90
1170
08F0
8C10
3810
ENDCHAR
STARTCHAR uni091C094D092E
ENCODING -1
SWIDTH 1214 0
DWIDTH 15 0
BBX 16 9 0 0
BITMAP
FFFF
008C
008C
008C
3FFC
118C
080C
8C0C
3804
ENDCHAR
STARTCHAR uni091C094D092F
ENCODING -1
SWIDTH 1132 0
DWIDTH 14 0
BBX 15 9 0 0
BITMAP
FFFE
0098
0198
0398
1F38
09F8
0418
4418
3C08
ENDCHAR
STARTCHAR uni091C094D0930
ENCODING -1
SWIDTH 500 0
DWIDTH 6 0
BBX 9 11 0 -2
BITMAP
FF80
0000
0000
0000
1F80
0800
0400
4400
3D80
0300
0600
ENDCHAR
STARTCHAR uni091C094D0935
ENCODING -1
SWIDTH 1088 0
DWIDTH 13 0
BBX 14 9 0 0
BITMAP
FFFC
0010
0090
01D0
3F10
1130
08F0
8C10
3810
ENDCHAR
STARTCHAR jhadeva_radeva
ENCODING -1
SWIDTH 1030 0
DWIDTH 12 0
BBX 13 12 0 -3
BITMAP
FFF8
0230
3E30
2070
26F0
5F30
6130
6330
1EF0
0980
0400
03C0
ENDCHAR
STARTCHAR jhadeva_radeva.ss11
ENCODING -1
SWIDTH 1128 0
DWIDTH 14 0
BBX 15 9 0 0
BITMAP
F7FE
1100
1100
1100
7FF0
3318
0718
0D18
1918
ENDCHAR
STARTCHAR uni091D094D0928
ENCODING -1
SWIDTH 1321 0
DWIDTH 16 0
BBX 17 12 0 -3
BITMAP
FFFF80
020200
3E0200
300200
24FE00
5FF200
610200
630200
1E0200
080000
040000
03C000
ENDCHAR
STARTCHAR uni091D094D0928.ss11
ENCODING -1
SWIDTH 1128 0
DWIDTH 14 0
BBX 15 9 0 0
BITMAP
F7FE
1100
1100
1100
7FF0
3718
0D18
1D18
0D18
ENDCHAR
STARTCHAR uni091D094D092E
ENCODING -1
SWIDTH 1437 0
DWIDTH 17 0
BBX 18 12 0 -3
BITMAP
FFFFC0
021100
3E1100
201100
24FF00
5FF100
610100
630100
1E0100
080000
040000
03C000
ENDCHAR
STARTCHAR uni091D094D092E.ss11
ENCODING -1
SWIDTH 1362 0
DWIDTH 16 0
BBX 17 9 0 0
BITMAP
F7FF80
110300
110300
7FE300
311300
017F00
013300
010300
010300
ENDCHAR
STARTCHAR uni091D094D092F
ENCODING -1
SWIDTH 1405 0
DWIDTH 17 0
BBX 18 12 0 -3
BITMAP
FFFFC0
021100
3E1100
203100
24E300
5FBF00
610100
630100
1E0100
080000
040000
03C000
ENDCHAR
STARTCHAR uni091D094D092F.ss11
ENCODING -1
SWIDTH 1450 0
DWIDTH 17 0
BBX 18 9 0 0
BITMAP
F7FFC0
110180
110180
7FF180
311980
013980
012380
011F80
010180
ENDCHAR
STARTCHAR uni091D094D0930
ENCODING -1
SWIDTH 702 0
DWIDTH 8 0
BBX 11 12 0 -3
BITMAP
FFC0
0200
3E00
3060
26C0
5F00
6100
6320
1EE0
0980
0500
03C0
ENDCHAR
STARTCHAR nyadeva_radeva
ENCODING -1
SWIDTH 798 0
DWIDTH 10 0
BBX 11 11 0 -2
BITMAP
FFE0
0180
3180
6980
0F80
0D80
3D80
0380
0680
0C00
0800
ENDCHAR
STARTCHAR uni091E094D091A
ENCODING -1
SWIDTH 883 0
DWIDTH 11 0
BBX 11 13 1 -3
BITMAP
2000
D3E0
1980
9F80
7180
0180
FD80
1180
1180
0B80
0180
0180
0080
ENDCHAR
STARTCHAR uni091E094D091A094D092F
ENCODING -1
SWIDTH 1632 0
DWIDTH 20 0
BBX 21 9 0 0
BITMAP
FFFFF8
000260
07C660
6BEE60
0C8CE0
4C8FE0
3BF860
000060
000020
ENDCHAR
STARTCHAR uni091E094D091B
ENCODING -1
SWIDTH 1446 0
DWIDTH 17 0
BBX 19 9 0 0
BITMAP
FFFFE0
000200
01C600
6B0500
0DE480
4CC580
3B8380
008300
007E00
ENDCHAR
STARTCHAR uni091E094D091C
ENCODING -1
SWIDTH 892 0
DWIDTH 11 0
BBX 11 10 1 0
BITMAP
2000
73E0
0980
9F80
7980
0180
1F80
0980
8D80
7880
ENDCHAR
STARTCHAR uni091E094D091C094D091E
ENCODING -1
SWIDTH 883 0
DWIDTH 11 0
BBX 11 14 1 -4
BITMAP
2000
D3E0
1980
9F80
7180
0180
0180
3F80
1180
4980
7980
7980
0480
0200
ENDCHAR
STARTCHAR uni091E094D091C094D092F
ENCODING -1
SWIDTH 1229 0
DWIDTH 15 0
BBX 15 10 1 0
BITMAP
2000
7BFE
0898
9898
7B98
0718
0DF8
0418
4418
3C08
ENDCHAR
STARTCHAR uni091E094D0930
ENCODING -1
SWIDTH 470 0
DWIDTH 6 0
BBX 8 10 0 -1
BITMAP
FF
00
30
69
0F
0D
3B
06
0C
08
ENDCHAR
STARTCHAR uni091E094D0936
ENCODING -1
SWIDTH 1199 0
DWIDTH 14 0
BBX 15 10 0 0
BITMAP
0300
FF9E
02CC
20CC
68CC
0FCC
4DCC
382C
000C
000C
ENDCHAR
STARTCHAR uni091F094D091F
ENCODING -1
SWIDTH 708 0
DWIDTH 9 0
BBX 10 13 0 -4
BITMAP
FFC0
0400
3C00
6000
6100
2300
1E00
0400
3C00
6000
2100
3300
0C00
ENDCHAR
STARTCHAR uni091F094D091F094D092F
ENCODING -1
SWIDTH 1421 0
DWIDTH 17 0
BBX 18 13 0 -4
BITMAP
FFFFC0
040100
3FE100
601100
617300
236700
1E1D00
040100
3C0100
600000
210000
330000
0C0000
ENDCHAR
STARTCHAR uni091F094D0920
ENCODING -1
SWIDTH 708 0
DWIDTH 9 0
BBX 10 13 0 -4
BITMAP
FFC0
0400
3C00
6000
6100
2300
1E00
0400
3F00
6180
6180
3300
0E00
ENDCHAR
STARTCHAR uni091F094D0922
ENCODING -1
SWIDTH 708 0
DWIDTH 9 0
BBX 10 13 0 -4
BITMAP
FFC0
0400
3C00
6000
6100
2300
1E00
0400
3C00
6600
2D00
1700
0600
ENDCHAR
STARTCHAR uni091F094D0928
ENCODING -1
SWIDTH 708 0
DWIDTH 9 0
BBX 10 13 0 -4
BITMAP
FFC0
0400
3C00
6000
6100
2300
1F00
0300
3F00
3F00
1300
0300
0100
ENDCHAR
STARTCHAR uni091F094D092E
ENCODING -1
SWIDTH 990 0
DWIDTH 12 0
BBX 13 13 0 -4
BITMAP
FFF8
0420
3C20
6020
6120
2320
1E20
0C20
0C20
3FE0
1C20
0860
0020
ENDCHAR
STARTCHAR uni091F094D092F
ENCODING -1
SWIDTH 1431 0
DWIDTH 17 0
BBX 18 9 0 0
BITMAP
FFFFC0
040100
040100
3FF100
601100
607300
602700
231D00
1E0100
ENDCHAR
STARTCHAR uni091F094D0930
ENCODING -1
SWIDTH 698 0
DWIDTH 8 0
BBX 9 15 0 -6
BITMAP
FF80
0400
0400
3C00
6000
6000
6000
2300
1E00
0C00
0900
1880
0200
0100
0080
ENDCHAR
STARTCHAR uni091F094D0935
ENCODING -1
SWIDTH 708 0
DWIDTH 9 0
BBX 10 14 0 -5
BITMAP
FFC0
0400
3C00
6000
6100
2300
1F00
1300
3300
2300
2700
1F00
0300
0100
ENDCHAR
STARTCHAR uni0920094D0920
ENCODING -1
SWIDTH 804 0
DWIDTH 10 0
BBX 11 13 0 -4
BITMAP
FFE0
0400
3E00
6100
6180
2300
1E00
0400
3F00
6180
6180
3300
0E00
ENDCHAR
STARTCHAR uni0920094D0920094D092F
ENCODING -1
SWIDTH 1437 0
DWIDTH 17 0
BBX 18 13 0 -4
BITMAP
FFFFC0
040100
3FF100
611100
61F900
232300
1E1F00
040100
3F0100
618000
618000
330000
0E0000
ENDCHAR
STARTCHAR uni0920094D0928
ENCODING -1
SWIDTH 804 0
DWIDTH 10 0
BBX 11 13 0 -4
BITMAP
FFE0
0400
3E00
6100
6180
2300
1F00
0300
3F00
3F00
1300
0300
0100
ENDCHAR
STARTCHAR uni0920094D092E
ENCODING -1
SWIDTH 1016 0
DWIDTH 12 0
BBX 13 12 0 -3
BITMAP
FFF8
0420
3E20
6120
61A0
2320
1E20
0420
0420
1FE0
1C20
0820
ENDCHAR
STARTCHAR uni0920094D092F
ENCODING -1
SWIDTH 1467 0
DWIDTH 18 0
BBX 19 9 0 0
BITMAP
FFFFE0
040180
040180
3FF180
611980
61B980
61A380
230F80
1E0080
ENDCHAR
STARTCHAR uni0920094D0930
ENCODING -1
SWIDTH 814 0
DWIDTH 10 0
BBX 11 15 0 -6
BITMAP
FFE0
0400
0400
3E00
6100
6180
6180
2300
1E00
0C00
0900
1880
0200
0100
0080
ENDCHAR
STARTCHAR uni0921094D0915
ENCODING -1
SWIDTH 712 0
DWIDTH 9 0
BBX 11 15 -1 -6
BITMAP
FFE0
0100
1F00
1800
1F00
4580
1380
0E00
3380
7360
6620
6660
1EC0
0200
0200
ENDCHAR
STARTCHAR uni0921094D0918
ENCODING -1
SWIDTH 712 0
DWIDTH 9 0
BBX 11 13 -1 -4
BITMAP
FFE0
0100
1F00
1000
1F00
4580
7380
CF80
C180
3980
6380
2780
0C80
ENDCHAR
STARTCHAR uni0921094D091F
ENCODING -1
SWIDTH 712 0
DWIDTH 9 0
BBX 11 14 -1 -5
BITMAP
FFE0
0100
1F00
1000
1F00
4580
1380
0E00
0E00
1E00
3000
3080
1B80
0600
ENDCHAR
STARTCHAR uni0921094D0920
ENCODING -1
SWIDTH 712 0
DWIDTH 9 0
BBX 11 14 -1 -5
BITMAP
FFE0
0100
1F00
1000
1F00
4580
1380
0E00
0E00
1E80
3080
30C0
1980
0600
ENDCHAR
STARTCHAR uni0921094D0921
ENCODING -1
SWIDTH 712 0
DWIDTH 9 0
BBX 11 13 -1 -4
BITMAP
FFE0
0100
1F00
1000
1F00
4580
1380
1E00
1000
0F00
0180
1F00
0E00
ENDCHAR
STARTCHAR uni0921094D0921094D092F
ENCODING -1
SWIDTH 952 0
DWIDTH 11 0
BBX 14 13 -1 -4
BITMAP
FFFC
0130
1F30
1030
1F30
45B0
13B0
1E30
1070
0FF0
01B0
1F30
0E10
ENDCHAR
STARTCHAR uni0921094D0922
ENCODING -1
SWIDTH 712 0
DWIDTH 9 0
BBX 11 14 -1 -5
BITMAP
FFE0
0100
1F00
1000
1F00
4580
1380
0E00
0E00
1E00
3700
1680
0F80
0300
ENDCHAR
STARTCHAR uni0921094D0928
ENCODING -1
SWIDTH 712 0
DWIDTH 9 0
BBX 11 12 -1 -3
BITMAP
FFE0
0100
1F00
1800
1F00
4580
1380
0F00
0100
3F00
3900
1300
ENDCHAR
STARTCHAR uni0921094D092E
ENCODING -1
SWIDTH 994 0
DWIDTH 12 0
BBX 14 13 -1 -4
BITMAP
FFFC
0110
1F10
1810
1F10
4590
1390
0E10
0610
1FF0
0E10
0430
0010
ENDCHAR
STARTCHAR uni0921094D092F
ENCODING -1
SWIDTH 1395 0
DWIDTH 17 0
BBX 19 9 -1 0
BITMAP
FFFFE0
010180
1FF180
180980
123980
0FB380
009F80
118180
0F0080
ENDCHAR
STARTCHAR uni0921094D0930
ENCODING -1
SWIDTH 712 0
DWIDTH 9 0
BBX 11 15 -1 -6
BITMAP
FFE0
0100
1F00
1000
1200
0F80
0080
1180
0F00
0700
0480
0C40
0100
0080
0040
ENDCHAR
STARTCHAR uni0921094D0935
ENCODING -1
SWIDTH 712 0
DWIDTH 9 0
BBX 11 14 -1 -5
BITMAP
FFE0
0100
1F00
1800
1F00
4580
1380
0F00
1900
1100
1100
1300
0700
0100
ENDCHAR
STARTCHAR uni0922094D0922
ENCODING -1
SWIDTH 698 0
DWIDTH 8 0
BBX 9 13 0 -4
BITMAP
FF80
0400
3C00
6400
6D00
2700
0F00
0400
3C00
6600
2D00
1700
0600
ENDCHAR
STARTCHAR uni0922094D0922094D092F
ENCODING -1
SWIDTH 1461 0
DWIDTH 18 0
BBX 19 13 0 -4
BITMAP
FFFFE0
040180
3FF180
641980
6D3980
272380
0F1F80
040180
3C0080
660000
2D0000
170000
060000
ENDCHAR
STARTCHAR uni0922094D0926
ENCODING -1
SWIDTH 698 0
DWIDTH 8 0
BBX 9 15 0 -6
BITMAP
FF80
0400
3C00
6400
6D00
2700
0F00
0400
3C00
6000
2600
3F00
0E00
0000
0080
ENDCHAR
STARTCHAR uni0922094D0928
ENCODING -1
SWIDTH 698 0
DWIDTH 8 0
BBX 9 13 0 -4
BITMAP
FF80
0400
3C00
6400
6D00
2700
0F00
0300
3F00
3F00
1300
0300
0100
ENDCHAR
STARTCHAR uni0922094D092E
ENCODING -1
SWIDTH 980 0
DWIDTH 12 0
BBX 13 13 0 -4
BITMAP
FFF8
0460
3C60
6460
6D60
2760
0F60
0C60
0C60
3FE0
1C60
0860
0020
ENDCHAR
STARTCHAR uni0922094D092F
ENCODING -1
SWIDTH 1351 0
DWIDTH 16 0
BBX 17 9 0 0
BITMAP
FFFF80
040200
040200
3FE200
603200
66F600
2D4E00
253A00
0F0200
ENDCHAR
STARTCHAR uni0922094D0930
ENCODING -1
SWIDTH 698 0
DWIDTH 8 0
BBX 9 14 0 -5
BITMAP
FF80
0400
0400
3C00
6000
6600
2D00
2500
0F00
0E00
0D00
1880
0200
0100
ENDCHAR
STARTCHAR nnadeva_radeva
ENCODING -1
SWIDTH 889 0
DWIDTH 11 0
BBX 12 10 0 -1
BITMAP
FFF0
64C0
64C0
64C0
64C0
38C0
01C0
03C0
0640
0400
ENDCHAR
STARTCHAR nnadeva_radeva.ss11
ENCODING -1
SWIDTH 1030 0
DWIDTH 12 0
BBX 14 11 -1 -2
BITMAP
FFFC
0D98
0D98
3D98
1998
09B8
04F8
0258
0118
0080
0040
ENDCHAR
STARTCHAR uni0923094D0921
ENCODING -1
SWIDTH 1253 0
DWIDTH 15 0
BBX 16 9 0 0
BITMAP
FFFF
640C
647C
64C0
6458
383C
0006
008E
0078
ENDCHAR
STARTCHAR uni0923094D0921.ss11
ENCODING -1
SWIDTH 1287 0
DWIDTH 15 0
BBX 18 11 -1 -2
BITMAP
FFFFC0
0D8200
0DBE00
3DA000
19A400
099F00
048100
022300
011E00
008000
004000
ENDCHAR
STARTCHAR uni0923094D0930
ENCODING -1
SWIDTH 601 0
DWIDTH 7 0
BBX 10 10 0 -1
BITMAP
FF00
6400
6400
6400
6400
38C0
0180
0300
0600
0400
ENDCHAR
STARTCHAR tadeva_radeva
ENCODING -1
SWIDTH 705 0
DWIDTH 8 0
BBX 10 9 0 0
BITMAP
FFC0
0300
0300
7B00
4700
1F00
1300
0300
0300
ENDCHAR
STARTCHAR uni09240930092F
ENCODING -1
SWIDTH 1079 0
DWIDTH 13 0
BBX 14 9 0 0
BITMAP
FFFC
0110
0110
7B10
4630
1FF0
1010
0010
0010
ENDCHAR
STARTCHAR uni0924094D0915
ENCODING -1
SWIDTH 1291 0
DWIDTH 15 0
BBX 16 9 0 0
BITMAP
FFFF
0040
0270
0E6C
7C44
44CC
43DC
2040
1040
ENDCHAR
STARTCHAR uni0924094D09150930
ENCODING -1
SWIDTH 1301 0
DWIDTH 16 0
BBX 16 9 0 0
BITMAP
FFFF
0040
0250
076C
7C44
44C4
43DC
2340
1640
ENDCHAR
STARTCHAR uni0924094D0915094D092F
ENCODING -1
SWIDTH 1549 0
DWIDTH 19 0
BBX 20 9 0 0
BITMAP
FFFFF0
0040C0
0270C0
0E6CC0
7C44C0
44CCC0
43DDC0
204FC0
104040
ENDCHAR
STARTCHAR uni0924094D0915094D0935
ENCODING -1
SWIDTH 1559 0
DWIDTH 19 0
BBX 20 9 0 0
BITMAP
FFFFF0
0040C0
0270C0
0E6EC0
7C4CC0
44CCC0
43C7C0
2040C0
104040
ENDCHAR
STARTCHAR uni0924094D0916
ENCODING -1
SWIDTH 1338 0
DWIDTH 16 0
BBX 17 9 0 0
BITMAP
FFFF80
020200
031200
033A00
7F6200
662600
621E00
210200
108200
ENDCHAR
STARTCHAR uni0924094D09160930
ENCODING -1
SWIDTH 1338 0
DWIDTH 16 0
BBX 17 9 0 0
BITMAP
FFFF80
020200
031200
033A00
7F6200
662600
621E00
211A00
10B200
ENDCHAR
STARTCHAR uni0924094D0916094D0928
ENCODING -1
SWIDTH 1708 0
DWIDTH 21 0
BBX 22 9 0 0
BITMAP
FFFFFC
020030
031030
033830
7F67F0
662730
621C30
210030
108030
ENDCHAR
STARTCHAR uni0924094D0924
ENCODING -1
SWIDTH 816 0
DWIDTH 10 0
BBX 11 9 0 0
BITMAP
FFE0
0080
0080
0080
7F80
1080
1080
0980
0480
ENDCHAR
STARTCHAR uni0924094D0924094D
ENCODING -1
SWIDTH 488 0
DWIDTH 6 0
BBX 9 9 0 0
BITMAP
FF80
0000
0000
0000
7F80
1000
1000
0800
0400
ENDCHAR
STARTCHAR uni0924094D0924094D092F
ENCODING -1
SWIDTH 1150 0
DWIDTH 14 0
BBX 15 9 0 0
BITMAP
FFFE
0088
0088
0188
7F18
11F8
1008
0808
0408
ENDCHAR
STARTCHAR uni0924094D0924094D0935
ENCODING -1
SWIDTH 1056 0
DWIDTH 13 0
BBX 14 9 0 0
BITMAP
FFFC
0030
0030
03B0
7F30
1330
11F0
0830
0410
ENDCHAR
STARTCHAR uni0924094D0925
ENCODING -1
SWIDTH 1056 0
DWIDTH 13 0
BBX 14 10 0 0
BITMAP
0600
FD7C
0D30
0730
0330
7E30
6470
61F0
2030
1010
ENDCHAR
STARTCHAR uni0924094D0926094D092F
ENCODING -1
SWIDTH 1108 0
DWIDTH 13 0
BBX 14 10 0 -1
BITMAP
FFFC
0190
0F90
0C10
7F90
6790
6630
22F0
1010
0010
ENDCHAR
STARTCHAR uni0924094D0928
ENCODING -1
SWIDTH 890 0
DWIDTH 11 0
BBX 12 9 0 0
BITMAP
FFF0
00C0
00C0
00C0
7FC0
60C0
6FC0
26C0
1040
ENDCHAR
STARTCHAR uni0924094D0928094D092F
ENCODING -1
SWIDTH 1206 0
DWIDTH 14 0
BBX 16 9 0 0
BITMAP
FFFF
00CC
00CC
3FCC
611C
4FFC
2E0C
160C
000C
ENDCHAR
STARTCHAR uni0924094D092A
ENCODING -1
SWIDTH 902 0
DWIDTH 11 0
BBX 12 9 0 0
BITMAP
FFF0
0C40
0C40
0CC0
7CC0
63C0
6040
2040
1040
ENDCHAR
STARTCHAR uni0924094D092A0930
ENCODING -1
SWIDTH 1017 0
DWIDTH 12 0
BBX 13 9 0 0
BITMAP
FFF8
0620
0620
0620
7E60
61E0
41A0
2320
1220
ENDCHAR
STARTCHAR uni0924094D092A094D0932
ENCODING -1
SWIDTH 1411 0
DWIDTH 17 0
BBX 18 9 0 0
BITMAP
FFFFC0
0C0100
0C6100
0CD300
7C8F00
638900
604100
200100
100100
ENDCHAR
STARTCHAR uni0924094D092B
ENCODING -1
SWIDTH 1292 0
DWIDTH 16 0
BBX 16 9 0 0
BITMAP
FFFF
0C40
0C70
0CEC
7CC4
63C4
605C
2040
1040
ENDCHAR
STARTCHAR uni0924094D092E
ENCODING -1
SWIDTH 1038 0
DWIDTH 12 0
BBX 14 9 0 0
BITMAP
FFFC
0230
0230
0230
7FF0
6630
6030
2030
1030
ENDCHAR
STARTCHAR uni0924094D092E094D092F
ENCODING -1
SWIDTH 1362 0
DWIDTH 16 0
BBX 17 9 0 0
BITMAP
FFFF80
023300
023300
027300
7FC700
663F00
600300
200300
100300
ENDCHAR
STARTCHAR uni0924094D092F
ENCODING -1
SWIDTH 996 0
DWIDTH 12 0
BBX 13 9 0 0
BITMAP
FFF8
0220
0220
0620
7C60
67E0
6020
2020
1020
ENDCHAR
STARTCHAR uni0924094D0930
ENCODING -1
SWIDTH 377 0
DWIDTH 5 0
BBX 7 7 0 2
BITMAP
FE
00
00
7A
46
1C
10
ENDCHAR
STARTCHAR uni0924094D0932
ENCODING -1
SWIDTH 1121 0
DWIDTH 13 0
BBX 15 9 0 0
BITMAP
FFFE
0018
0218
0CB8
7CF8
64D8
6218
2018
1018
ENDCHAR
STARTCHAR uni0924094D0935
ENCODING -1
SWIDTH 902 0
DWIDTH 11 0
BBX 12 9 0 0
BITMAP
FFF0
0040
0240
0E40
7C40
6CC0
67C0
2040
1040
ENDCHAR
STARTCHAR uni0924094D0938
ENCODING -1
SWIDTH 1078 0
DWIDTH 13 0
BBX 14 9 0 0
BITMAP
FFFC
0210
0310
0330
7FF0
6610
6210
2110
1090
ENDCHAR
STARTCHAR uni0924094D0938094D0928
ENCODING -1
SWIDTH 1378 0
DWIDTH 17 0
BBX 18 9 0 0
BITMAP
FFFFC0
020300
030300
030300
7F7F00
66F300
620300
210300
108100
ENDCHAR
STARTCHAR uni0924094D0938094D092F
ENCODING -1
SWIDTH 1472 0
DWIDTH 18 0
BBX 19 9 0 0
BITMAP
FFFFE0
020980
031980
031980
7F3380
66FF80
620180
210180
108080
ENDCHAR
STARTCHAR uni0924094D0938094D0935
ENCODING -1
SWIDTH 1398 0
DWIDTH 17 0
BBX 18 9 0 0
BITMAP
FFFFC0
020100
030900
033900
7FF100
663300
621F00
210100
108100
ENDCHAR
STARTCHAR thadeva_radeva
ENCODING -1
SWIDTH 782 0
DWIDTH 9 0
BBX 9 10 1 0
BITMAP
4000
E780
9300
F300
3300
E300
C700
3F00
1B00
1300
ENDCHAR
STARTCHAR uni0925094D0928
ENCODING -1
SWIDTH 782 0
DWIDTH 9 0
BBX 9 11 1 -1
BITMAP
4000
E780
9300
F300
3300
E300
C700
3F00
1B00
3B00
1800
ENDCHAR
STARTCHAR uni0925094D092F
ENCODING -1
SWIDTH 1186 0
DWIDTH 14 0
BBX 14 10 1 0
BITMAP
4000
EFFC
9110
F190
3390
E230
C7F0
3C10
0010
0010
ENDCHAR
STARTCHAR uni0925094D0930
ENCODING -1
SWIDTH 454 0
DWIDTH 5 0
BBX 7 10 1 0
BITMAP
40
E0
90
F0
30
E2
C6
3C
18
10
ENDCHAR
STARTCHAR uni0925094D0935
ENCODING -1
SWIDTH 1102 0
DWIDTH 13 0
BBX 13 10 1 0
BITMAP
4000
EFF8
9020
F120
33A0
E620
C660
3DE0
0020
0020
ENDCHAR
STARTCHAR dadeva_radeva
ENCODING -1
SWIDTH 678 0
DWIDTH 8 0
BBX 10 12 0 -3
BITMAP
FF80
0400
0400
3C00
6000
6000
2600
2600
0E00
0600
0C00
0C40
ENDCHAR
STARTCHAR uni09260930092F
ENCODING -1
SWIDTH 854 0
DWIDTH 10 0
BBX 11 10 0 -1
BITMAP
FFE0
0C80
7C80
6080
7C80
3C80
6180
D780
8080
0080
ENDCHAR
STARTCHAR dadeva_uuvowelsigndeva
ENCODING -1
SWIDTH 678 0
DWIDTH 8 0
BBX 9 15 0 -6
BITMAP
FF80
0400
0400
3C00
6000
6000
2600
2600
0F00
0200
0100
0780
0400
0400
0380
ENDCHAR
STARTCHAR dadeva_rvocalicvowelsigndeva
ENCODING -1
SWIDTH 558 0
DWIDTH 7 0
BBX 8 12 0 -3
BITMAP
FF
04
04
3C
60
60
60
20
1C
18
18
0F
ENDCHAR
STARTCHAR uni0926094D0917
ENCODING -1
SWIDTH 678 0
DWIDTH 8 0
BBX 10 12 -1 -3
BITMAP
7FC0
0200
0200
1E00
3000
3000
3300
3300
3780
7100
F080
6000
ENDCHAR
STARTCHAR uni0926094D09170930
ENCODING -1
SWIDTH 678 0
DWIDTH 8 0
BBX 10 12 0 -3
BITMAP
FF80
0400
0400
3C00
6000
6000
2600
2600
2E00
2600
EC00
EC40
ENDCHAR
STARTCHAR uni0926094D0918
ENCODING -1
SWIDTH 872 0
DWIDTH 10 0
BBX 12 9 0 0
BITMAP
FFF0
0180
3F80
6C00
4980
3DC0
33C0
11C0
1F20
ENDCHAR
STARTCHAR uni0926094D0926
ENCODING -1
SWIDTH 634 0
DWIDTH 8 0
BBX 9 13 0 -4
BITMAP
FF80
0400
3C00
6000
6000
3C00
3000
2000
2600
1700
0F00
0100
0080
ENDCHAR
STARTCHAR uni0926094D0926094D092F
ENCODING -1
SWIDTH 984 0
DWIDTH 12 0
BBX 13 13 0 -4
BITMAP
FFF8
0420
3C20
6020
2020
3C20
2020
2620
1720
0E60
04E0
0160
0020
ENDCHAR
STARTCHAR uni0926094D0927
ENCODING -1
SWIDTH 882 0
DWIDTH 11 0
BBX 12 9 0 0
BITMAP
FFF0
0180
4F80
4800
6980
1DC0
33C0
3340
1E20
ENDCHAR
STARTCHAR uni0926094D09270943
ENCODING -1
SWIDTH 882 0
DWIDTH 11 0
BBX 13 13 0 -4
BITMAP
FFF0
0180
4F80
4800
2980
1DC0
33C0
3340
1E60
0060
00C0
0048
0038
ENDCHAR
STARTCHAR uni0926094D0927094D092F
ENCODING -1
SWIDTH 1064 0
DWIDTH 13 0
BBX 14 10 0 -1
BITMAP
FFFC
4130
4F30
7830
7B30
67B0
3C70
07F0
0030
0030
ENDCHAR
STARTCHAR uni0926094D0928
ENCODING -1
SWIDTH 678 0
DWIDTH 8 0
BBX 9 13 0 -4
BITMAP
FF80
0400
3C00
6000
6600
2600
0E00
0600
7D00
7C00
6400
0C00
0400
ENDCHAR
STARTCHAR uni0926094D0928.ss12
ENCODING -1
SWIDTH 788 0
DWIDTH 9 0
BBX 12 9 -1 0
BITMAP
FFF0
00C0
00C0
00C0
3FC0
3BC0
06C0
0EC0
06C0
ENDCHAR
STARTCHAR uni0926094D092C
ENCODING -1
SWIDTH 678 0
DWIDTH 8 0
BBX 9 10 0 -1
BITMAP
FF80
0400
3C00
6000
6600
2600
3E00
7200
2F00
1C00
ENDCHAR
STARTCHAR uni0926094D092C0930
ENCODING -1
SWIDTH 678 0
DWIDTH 8 0
BBX 9 12 0 -3
BITMAP
FF80
0400
3C00
6000
6600
2600
3E00
7200
2F00
1C00
1800
1800
ENDCHAR
STARTCHAR uni0926094D092D
ENCODING -1
SWIDTH 848 0
DWIDTH 10 0
BBX 11 11 0 -2
BITMAP
FFE0
0100
0F00
1800
1980
09C0
0380
7E80
0C40
1C00
0C00
ENDCHAR
STARTCHAR uni0926094D092D0930
ENCODING -1
SWIDTH 848 0
DWIDTH 10 0
BBX 11 12 0 -3
BITMAP
FFE0
0100
0F00
1800
1980
09C0
0380
7E80
0C40
1CC0
0D80
0100
ENDCHAR
STARTCHAR uni0926094D092D094D092F
ENCODING -1
SWIDTH 1054 0
DWIDTH 13 0
BBX 15 10 -1 -1
BITMAP
FFFE
0098
0F98
0C18
0598
7798
0E38
1BF8
1C18
0C18
ENDCHAR
STARTCHAR uni0926094D092E
ENCODING -1
SWIDTH 934 0
DWIDTH 11 0
BBX 12 10 0 -1
BITMAP
FFF0
0C40
7C40
4040
2440
0E40
0640
1FC0
0C40
0040
ENDCHAR
STARTCHAR uni0926094D092F
ENCODING -1
SWIDTH 854 0
DWIDTH 10 0
BBX 11 10 0 -1
BITMAP
FFE0
0C80
7C80
6080
7C80
3C80
2180
1780
0480
0080
ENDCHAR
STARTCHAR uni0926094D0930
ENCODING -1
SWIDTH 678 0
DWIDTH 8 0
BBX 9 14 0 -5
BITMAP
FF80
0400
0400
3C00
6000
6000
2600
2600
0F00
0E00
0D00
1880
0200
0100
ENDCHAR
STARTCHAR uni0926094D0935
ENCODING -1
SWIDTH 758 0
DWIDTH 9 0
BBX 10 9 0 0
BITMAP
FFC0
0200
1E00
3000
3300
7300
4700
4700
3C80
ENDCHAR
STARTCHAR uni0926094D09350930
ENCODING -1
SWIDTH 758 0
DWIDTH 9 0
BBX 10 11 0 -2
BITMAP
FFC0
0200
1E00
3000
3300
7300
4700
4700
3C80
1800
3000
ENDCHAR
STARTCHAR uni0926094D0935094D092F
ENCODING -1
SWIDTH 1104 0
DWIDTH 13 0
BBX 14 10 0 -1
BITMAP
FFFC
0190
3F90
6C10
6B90
6790
1C30
02F0
0010
0010
ENDCHAR
STARTCHAR dhadeva_radeva
ENCODING -1
SWIDTH 852 0
DWIDTH 10 0
BBX 10 11 1 0
BITMAP
2000
F800
DBC0
4100
3900
3100
2300
3700
0D00
1D00
1900
ENDCHAR
STARTCHAR uni0927094D0928
ENCODING -1
SWIDTH 1202 0
DWIDTH 14 0
BBX 14 11 1 0
BITMAP
2000
F800
DBFC
4018
3818
3018
23F8
3798
0C18
0018
0018
ENDCHAR
STARTCHAR uni0927094D0928094D092F
ENCODING -1
SWIDTH 1606 0
DWIDTH 19 0
BBX 19 11 1 0
BITMAP
200000
F80000
DBFFE0
400880
380C80
301C80
23F180
379F80
0C0080
000080
000080
ENDCHAR
STARTCHAR uni0927094D092F
ENCODING -1
SWIDTH 1196 0
DWIDTH 14 0
BBX 14 11 1 0
BITMAP
2000
F800
DFFC
4198
3198
6398
4238
67F8
1C18
0018
0018
ENDCHAR
STARTCHAR uni0927094D0930
ENCODING -1
SWIDTH 524 0
DWIDTH 6 0
BBX 8 11 1 0
BITMAP
20
F8
D8
40
38
30
23
36
0C
1C
18
ENDCHAR
STARTCHAR uni0927094D0935
ENCODING -1
SWIDTH 1112 0
DWIDTH 13 0
BBX 13 11 1 0
BITMAP
2000
F800
DFF8
4030
3130
63B0
4230
6670
1DF0
0030
0030
ENDCHAR
STARTCHAR uni0927094D09350930
ENCODING -1
SWIDTH 1112 0
DWIDTH 13 0
BBX 13 11 1 0
BITMAP
2000
F800
DFF8
4030
3130
63B0
4230
6670
1DF0
01B0
0330
ENDCHAR
STARTCHAR nadeva_radeva
ENCODING -1
SWIDTH 678 0
DWIDTH 8 0
BBX 10 9 -1 0
BITMAP
FFC0
0100
3F00
3F00
1B00
0700
0D00
1900
0100
ENDCHAR
STARTCHAR uni0928094D0915
ENCODING -1
SWIDTH 1367 0
DWIDTH 16 0
BBX 18 9 -1 0
BITMAP
FFFFC0
003000
00BC00
03BA00
3F3100
3B3300
01F700
003000
001000
ENDCHAR
STARTCHAR uni0928094D0915094D0938
ENCODING -1
SWIDTH 1771 0
DWIDTH 21 0
BBX 23 9 -1 0
BITMAP
FFFFFE
003188
00BD88
03BB98
3F37F8
3B3388
01F108
003088
001048
ENDCHAR
STARTCHAR uni0928094D091A
ENCODING -1
SWIDTH 821 0
DWIDTH 10 0
BBX 12 10 -1 -1
BITMAP
FFF0
0040
3E40
3940
0440
0C40
1CC0
35C0
0340
00C0
ENDCHAR
STARTCHAR uni0928094D0921
ENCODING -1
SWIDTH 1042 0
DWIDTH 13 0
BBX 15 9 -1 0
BITMAP
FFFE
0010
3FF0
3F00
1920
00F8
0008
0118
00F0
ENDCHAR
STARTCHAR uni0928094D0924
ENCODING -1
SWIDTH 1012 0
DWIDTH 12 0
BBX 14 9 -1 0
BITMAP
FFFC
0010
0010
0010
3FF0
3B10
0310
0110
0010
ENDCHAR
STARTCHAR uni0928094D09240930
ENCODING -1
SWIDTH 1001 0
DWIDTH 12 0
BBX 14 10 -1 -1
BITMAP
FFFC
0010
3E10
3910
03D0
0630
00F0
0190
0010
0010
ENDCHAR
STARTCHAR uni0928094D0924094D092F
ENCODING -1
SWIDTH 1346 0
DWIDTH 16 0
BBX 18 9 -1 0
BITMAP
FFFFC0
001100
001900
003100
3FE300
3B3F00
030100
010100
004100
ENDCHAR
STARTCHAR uni0928094D0924094D0938
ENCODING -1
SWIDTH 1428 0
DWIDTH 17 0
BBX 19 9 -1 0
BITMAP
FFFFE0
001880
001880
001980
3FFF80
3B3080
031080
010880
004480
ENDCHAR
STARTCHAR uni0928094D0925
ENCODING -1
SWIDTH 1112 0
DWIDTH 13 0
BBX 15 10 -1 0
BITMAP
0100
FF9E
024C
03CC
00CC
3F8C
391C
00FC
000C
000C
ENDCHAR
STARTCHAR uni0928094D0925094D092F
ENCODING -1
SWIDTH 1516 0
DWIDTH 18 0
BBX 20 10 -1 0
BITMAP
010000
FFBFF0
02C440
03C640
00CC40
3F98C0
39FFC0
000040
000040
000040
ENDCHAR
STARTCHAR uni0928094D0925094D0935
ENCODING -1
SWIDTH 1432 0
DWIDTH 17 0
BBX 19 10 -1 0
BITMAP
010000
FFBFE0
024080
03C480
00CE80
3F9880
39F980
000780
000080
000080
ENDCHAR
STARTCHAR uni0928094D0926
ENCODING -1
SWIDTH 1008 0
DWIDTH 12 0
BBX 14 11 -1 -2
BITMAP
FFFC
0020
0020
01E0
3F00
3B00
0120
0130
0070
0010
0008
ENDCHAR
STARTCHAR uni0928094D09260930
ENCODING -1
SWIDTH 1008 0
DWIDTH 12 0
BBX 15 12 -1 -3
BITMAP
FFFC
0020
0020
01E0
3F00
3B00
0120
0130
0070
0030
0060
0062
ENDCHAR
STARTCHAR uni0928094D0926094D0935
ENCODING -1
SWIDTH 1038 0
DWIDTH 12 0
BBX 15 9 -1 0
BITMAP
FFFE
0020
3FE0
3F00
1930
03B8
0678
0668
02C4
ENDCHAR
STARTCHAR uni0928094D0927
ENCODING -1
SWIDTH 1072 0
DWIDTH 13 0
BBX 15 11 -1 0
BITMAP
0300
0680
FFFE
0608
0388
0188
3F18
3938
0068
0008
0008
ENDCHAR
STARTCHAR uni0928094D09270930
ENCODING -1
SWIDTH 1072 0
DWIDTH 13 0
BBX 15 11 -1 0
BITMAP
0300
0680
FFFE
0608
0388
0188
3F18
3938
0068
00C8
0088
ENDCHAR
STARTCHAR uni0928094D0927094D092F
ENCODING -1
SWIDTH 1496 0
DWIDTH 18 0
BBX 20 11 -1 0
BITMAP
018000
034000
FEFFF0
030440
01C440
018C40
3F18C0
391FC0
00F040
000040
000040
ENDCHAR
STARTCHAR uni0928094D0927094D0935
ENCODING -1
SWIDTH 1412 0
DWIDTH 17 0
BBX 19 11 -1 0
BITMAP
018000
034000
FEFFE0
030080
01C480
019C80
3F1880
391980
00F780
000080
000080
ENDCHAR
STARTCHAR uni0928094D0928
ENCODING -1
SWIDTH 788 0
DWIDTH 9 0
BBX 12 9 -1 0
BITMAP
FFF0
00C0
00C0
00C0
3FC0
3BC0
06C0
0EC0
06C0
ENDCHAR
STARTCHAR uni0928094D0928094D092F
ENCODING -1
SWIDTH 1072 0
DWIDTH 13 0
BBX 15 9 -1 0
BITMAP
FFFE
0088
0088
0188
3F18
39F8
0308
0608
0608
ENDCHAR
STARTCHAR uni0928094D092A
ENCODING -1
SWIDTH 978 0
DWIDTH 12 0
BBX 14 9 -1 0
BITMAP
FFFC
0230
0230
0230
3F30
38F0
0030
0030
0010
ENDCHAR
STARTCHAR uni0928094D092A0930
ENCODING -1
SWIDTH 978 0
DWIDTH 12 0
BBX 14 9 -1 0
BITMAP
FFFC
0230
0230
0230
3F30
38F0
00F0
01B0
0310
ENDCHAR
STARTCHAR uni0928094D092B
ENCODING -1
SWIDTH 1368 0
DWIDTH 16 0
BBX 18 9 -1 0
BITMAP
FFFFC0
023000
023C00
023A00
3F3100
38F300
003700
003000
001000
ENDCHAR
STARTCHAR uni0928094D092D
ENCODING -1
SWIDTH 1073 0
DWIDTH 13 0
BBX 15 9 -1 0
BITMAP
FF3E
0088
0088
0088
3FF8
3988
0008
0008
0008
ENDCHAR
STARTCHAR uni0928094D092E
ENCODING -1
SWIDTH 1114 0
DWIDTH 13 0
BBX 15 9 -1 0
BITMAP
FFFE
008C
008C
008C
3FFC
3B8C
000C
000C
000C
ENDCHAR
STARTCHAR uni0928094D092E094D092F
ENCODING -1
SWIDTH 1438 0
DWIDTH 17 0
BBX 19 9 -1 0
BITMAP
FFFFE0
008880
008C80
009C80
3FF180
3B8F80
000080
000080
000080
ENDCHAR
STARTCHAR uni0928094D092F
ENCODING -1
SWIDTH 1032 0
DWIDTH 12 0
BBX 14 9 -1 0
BITMAP
FFFC
0198
0198
0398
3E38
39F8
0018
0018
0018
ENDCHAR
STARTCHAR uni0928094D0930
ENCODING -1
SWIDTH 350 0
DWIDTH 4 0
BBX 8 8 -1 1
BITMAP
FF
00
3E
3F
1B
06
0C
18
ENDCHAR
STARTCHAR uni0928094D0932
ENCODING -1
SWIDTH 1197 0
DWIDTH 14 0
BBX 16 9 -1 0
BITMAP
FFFF
0006
0086
036E
3F3E
3936
0086
0006
0006
ENDCHAR
STARTCHAR uni0928094D0935
ENCODING -1
SWIDTH 978 0
DWIDTH 12 0
BBX 14 9 -1 0
BITMAP
FFFC
0030
00B0
03B0
3F30
3B30
01F0
0030
0010
ENDCHAR
STARTCHAR uni0928094D0938094D091F
ENCODING -1
SWIDTH 1519 0
DWIDTH 18 0
BBX 20 9 -1 0
BITMAP
FFFFF0
008180
00C180
00C780
3FEC00
39BC00
008C00
004460
0023C0
ENDCHAR
STARTCHAR uni0928094D0939094D092F
ENCODING -1
SWIDTH 1361 0
DWIDTH 16 0
BBX 18 12 -1 -3
BITMAP
FFFFC0
001100
01F100
018100
3F0100
38E100
019100
011900
011300
009F00
000100
001100
ENDCHAR
STARTCHAR uni0929094D0930
ENCODING -1
SWIDTH 350 0
DWIDTH 4 0
BBX 8 12 -1 -3
BITMAP
FF
00
3E
3F
1B
06
0C
18
00
00
04
06
ENDCHAR
STARTCHAR padeva_radeva
ENCODING -1
SWIDTH 648 0
DWIDTH 8 0
BBX 9 9 0 0
BITMAP
FF80
6200
6200
6600
6600
1E00
1E00
3600
6200
ENDCHAR
STARTCHAR uni092A094D091F
ENCODING -1
SWIDTH 678 0
DWIDTH 8 0
BBX 9 10 0 -1
BITMAP
FF80
2200
2200
2200
2600
3C00
6000
6000
2300
1E00
ENDCHAR
STARTCHAR uni092A094D0920
ENCODING -1
SWIDTH 678 0
DWIDTH 8 0
BBX 9 10 0 -1
BITMAP
FF80
2200
2200
2200
2600
3E00
6300
6100
2300
1E00
ENDCHAR
STARTCHAR uni092A094D0924
ENCODING -1
SWIDTH 740 0
DWIDTH 9 0
BBX 10 10 0 -1
BITMAP
FFC0
3100
3100
3100
1300
7F00
6100
4100
2100
1000
ENDCHAR
STARTCHAR uni092A094D0924094D092F
ENCODING -1
SWIDTH 1094 0
DWIDTH 13 0
BBX 14 10 0 -1
BITMAP
FFFC
3110
3190
3310
1630
7FF0
6010
4010
2010
1000
ENDCHAR
STARTCHAR uni092A094D0928
ENCODING -1
SWIDTH 928 0
DWIDTH 11 0
BBX 12 9 0 0
BITMAP
FFF0
6040
6040
6040
6FC0
1E40
0040
0040
0040
ENDCHAR
STARTCHAR uni092A094D092E
ENCODING -1
SWIDTH 1044 0
DWIDTH 13 0
BBX 14 9 0 0
BITMAP
FFFC
6230
6230
6230
6FF0
1E30
0030
0030
0010
ENDCHAR
STARTCHAR uni092A094D092F
ENCODING -1
SWIDTH 1002 0
DWIDTH 12 0
BBX 13 9 0 0
BITMAP
FFF8
6220
6320
6620
6C60
1FE0
0020
0020
0020
ENDCHAR
STARTCHAR uni092A094D0930
ENCODING -1
SWIDTH 320 0
DWIDTH 4 0
BBX 7 9 0 0
BITMAP
FE
60
60
64
64
1C
18
30
60
ENDCHAR
STARTCHAR uni092A094D0930092A
ENCODING -1
SWIDTH 1018 0
DWIDTH 12 0
BBX 13 9 0 0
BITMAP
FFF8
6220
6220
6620
6660
1DE0
1820
3020
6020
ENDCHAR
STARTCHAR uni092A094D0932
ENCODING -1
SWIDTH 1157 0
DWIDTH 14 0
BBX 15 9 0 0
BITMAP
FFFE
6008
6308
66B8
6478
1CC8
0208
0108
0008
ENDCHAR
STARTCHAR uni092A094D0935
ENCODING -1
SWIDTH 938 0
DWIDTH 11 0
BBX 12 9 0 0
BITMAP
FFF0
6040
6240
6740
6440
1CC0
03C0
0040
0040
ENDCHAR
STARTCHAR uni092A094D0938
ENCODING -1
SWIDTH 1084 0
DWIDTH 13 0
BBX 14 9 0 0
BITMAP
FFFC
6210
6310
6330
6FF0
1E10
0210
0110
0090
ENDCHAR
STARTCHAR uni092B0930
ENCODING -1
SWIDTH 1038 0
DWIDTH 12 0
BBX 13 9 0 0
BITMAP
FFF8
6200
6380
6760
6620
1E60
1EE0
3600
6200
ENDCHAR
STARTCHAR uni092B094D092F
ENCODING -1
SWIDTH 1296 0
DWIDTH 16 0
BBX 17 9 0 0
BITMAP
FFFF80
620600
638600
676600
662600
1E6600
02EE00
027E00
020200
ENDCHAR
STARTCHAR uni092B094D0930
ENCODING -1
SWIDTH 628 0
DWIDTH 8 0
BBX 11 9 0 0
BITMAP
FFE0
6200
6380
6760
6600
1E00
1E00
3600
6200
ENDCHAR
STARTCHAR uni092C0930
ENCODING -1
SWIDTH 648 0
DWIDTH 8 0
BBX 9 9 0 0
BITMAP
FF80
0600
1600
7600
7600
6E00
3E00
1A00
3200
ENDCHAR
STARTCHAR uni092C094D091C
ENCODING -1
SWIDTH 1124 0
DWIDTH 13 0
BBX 15 9 0 0
BITMAP
FFFE
0018
7018
5018
4FF8
3D18
0098
0CD8
0398
ENDCHAR
STARTCHAR uni092C094D091C094D092F
ENCODING -1
SWIDTH 1428 0
DWIDTH 17 0
BBX 18 9 0 0
BITMAP
FFFFC0
001100
701900
503100
4FE300
3D3F00
008100
0CC100
038100
ENDCHAR
STARTCHAR uni092C094D0926
ENCODING -1
SWIDTH 1058 0
DWIDTH 13 0
BBX 14 11 0 -2
BITMAP
FFFC
0060
1060
63E0
7300
6600
1E60
0170
00F0
0010
0008
ENDCHAR
STARTCHAR uni092C094D0927
ENCODING -1
SWIDTH 1124 0
DWIDTH 13 0
BBX 15 11 0 0
BITMAP
0200
0680
FDBE
0418
1398
6318
7318
6778
1CD8
0018
0018
ENDCHAR
STARTCHAR uni092C094D0927094D0935
ENCODING -1
SWIDTH 1464 0
DWIDTH 18 0
BBX 19 11 0 0
BITMAP
010000
034000
FAFFE0
020180
118980
631D80
731180
673180
1CEF80
000180
000080
ENDCHAR
STARTCHAR uni092C094D092D
ENCODING -1
SWIDTH 1143 0
DWIDTH 14 0
BBX 15 9 0 0
BITMAP
FF3E
0098
1098
7098
73F8
6798
1E18
0018
0008
ENDCHAR
STARTCHAR uni092C094D092D0930
ENCODING -1
SWIDTH 1143 0
DWIDTH 14 0
BBX 15 9 0 0
BITMAP
FF3E
0098
1098
7098
73F8
6798
1E38
0078
00C8
ENDCHAR
STARTCHAR uni092C094D092F
ENCODING -1
SWIDTH 1132 0
DWIDTH 14 0
BBX 15 9 0 0
BITMAP
FFFE
0098
1198
7398
7338
67F8
1E18
0018
0008
ENDCHAR
STARTCHAR uni092C094D0930
ENCODING -1
SWIDTH 320 0
DWIDTH 4 0
BBX 7 9 0 0
BITMAP
FE
00
10
70
74
6E
3C
18
30
ENDCHAR
STARTCHAR uni092C094D0936
ENCODING -1
SWIDTH 1151 0
DWIDTH 14 0
BBX 15 10 0 0
BITMAP
0300
FEBE
0288
1188
6088
7788
6788
1C48
0008
0008
ENDCHAR
STARTCHAR uni092C094D0938
ENCODING -1
SWIDTH 1174 0
DWIDTH 14 0
BBX 15 9 0 0
BITMAP
FFFE
0108
1188
7198
77F8
6F08
3D08
0088
0048
ENDCHAR
STARTCHAR uni092C094D095B
ENCODING -1
SWIDTH 1118 0
DWIDTH 13 0
BBX 15 9 0 0
BITMAP
FFFE
0018
7018
5018
4FF8
3D18
0098
6CD8
6398
ENDCHAR
STARTCHAR bhadeva_radeva
ENCODING -1
SWIDTH 758 0
DWIDTH 9 0
BBX 9 10 1 0
BITMAP
C000
A780
A200
7200
3200
FE00
6600
0E00
1A00
3200
ENDCHAR
STARTCHAR uni092D0930092F
ENCODING -1
SWIDTH 1162 0
DWIDTH 14 0
BBX 14 10 1 0
BITMAP
C000
AFFC
A110
7110
3310
FE30
67F0
0C10
1810
3010
ENDCHAR
STARTCHAR uni092D094D0928
ENCODING -1
SWIDTH 1068 0
DWIDTH 13 0
BBX 13 10 1 0
BITMAP
C000
AFF8
A020
7020
3020
FFE0
6620
0020
0020
0020
ENDCHAR
STARTCHAR uni092D094D092F
ENCODING -1
SWIDTH 1162 0
DWIDTH 14 0
BBX 14 10 1 0
BITMAP
C000
AFFC
A110
7110
3310
FE30
63F0
0010
0010
0010
ENDCHAR
STARTCHAR uni092D094D0930
ENCODING -1
SWIDTH 430 0
DWIDTH 5 0
BBX 7 10 1 0
BITMAP
C0
A0
A0
70
30
FC
66
0C
18
30
ENDCHAR
STARTCHAR madeva_radeva
ENCODING -1
SWIDTH 784 0
DWIDTH 9 0
BBX 11 10 -1 -1
BITMAP
FFE0
08C0
08C0
08C0
3FC0
39C0
03C0
06C0
04C0
0400
ENDCHAR
STARTCHAR uni092E094D0926
ENCODING -1
SWIDTH 1020 0
DWIDTH 12 0
BBX 14 11 -1 -2
BITMAP
FFFC
0820
0820
09E0
3F00
3B00
0130
0130
0078
0010
0008
ENDCHAR
STARTCHAR uni092E094D092C
ENCODING -1
SWIDTH 1024 0
DWIDTH 12 0
BBX 14 9 -1 0
BITMAP
FFFC
0810
0890
09D0
3F10
3930
00F0
0010
0010
ENDCHAR
STARTCHAR uni092E094D092C0930
ENCODING -1
SWIDTH 1024 0
DWIDTH 12 0
BBX 14 9 -1 0
BITMAP
FFFC
0810
0890
09D0
3F90
3930
00F0
00D0
0190
ENDCHAR
STARTCHAR uni092E094D092C094D092F
ENCODING -1
SWIDTH 1478 0
DWIDTH 18 0
BBX 20 9 -1 0
BITMAP
FFFFF0
0804C0
0884C0
09CCC0
3F98C0
393FC0
00E0C0
0000C0
000040
ENDCHAR
STARTCHAR uni092E094D092D
ENCODING -1
SWIDTH 1069 0
DWIDTH 13 0
BBX 15 9 -1 0
BITMAP
FF3E
0888
0888
0888
3FF8
3988
0008
0008
0008
ENDCHAR
STARTCHAR uni092E094D092D0930
ENCODING -1
SWIDTH 1069 0
DWIDTH 13 0
BBX 15 9 -1 0
BITMAP
FF3E
0888
0888
0888
3FF8
3998
0038
0068
00C8
ENDCHAR
STARTCHAR uni092E094D092F
ENCODING -1
SWIDTH 1108 0
DWIDTH 13 0
BBX 15 9 -1 0
BITMAP
FFFE
08C8
08C8
09C8
3F18
38F8
0008
0008
0008
ENDCHAR
STARTCHAR uni092E094D0930
ENCODING -1
SWIDTH 436 0
DWIDTH 5 0
BBX 9 9 -1 0
BITMAP
FF80
0800
0800
0800
3F80
3980
0300
0600
0C00
ENDCHAR
STARTCHAR uni092E094D0932
ENCODING -1
SWIDTH 1243 0
DWIDTH 15 0
BBX 17 9 -1 0
BITMAP
FFFF80
080200
08C200
09A600
3F1E00
393200
008200
004200
000200
ENDCHAR
STARTCHAR uni092E094D0935
ENCODING -1
SWIDTH 1024 0
DWIDTH 12 0
BBX 14 9 -1 0
BITMAP
FFFC
0810
0890
09D0
3F10
3930
00F0
0010
0010
ENDCHAR
STARTCHAR uni092E094D0936
ENCODING -1
SWIDTH 1165 0
DWIDTH 14 0
BBX 16 10 -1 0
BITMAP
0180
FF4F
0944
08C4
0844
3FC4
39C4
0014
0004
0004
ENDCHAR
STARTCHAR uni092E094D0938
ENCODING -1
SWIDTH 1200 0
DWIDTH 14 0
BBX 16 9 -1 0
BITMAP
FFFF
08C6
0846
084E
3FFE
39C6
0086
0046
0026
ENDCHAR
STARTCHAR uni092E094D0939
ENCODING -1
SWIDTH 934 0
DWIDTH 11 0
BBX 13 12 -1 -3
BITMAP
FFF8
0860
09E0
0980
3F00
39C0
0310
0310
0130
0080
0040
0020
ENDCHAR
STARTCHAR uni092F0930
ENCODING -1
SWIDTH 732 0
DWIDTH 9 0
BBX 10 9 0 0
BITMAP
FFC0
1300
1300
3300
6300
3F00
0F00
1B00
3100
ENDCHAR
STARTCHAR uni092F094D0928
ENCODING -1
SWIDTH 732 0
DWIDTH 9 0
BBX 10 10 0 -1
BITMAP
FFC0
1300
1300
3300
6300
3F00
0F00
1B00
3100
3800
ENDCHAR
STARTCHAR uni092F094D092F
ENCODING -1
SWIDTH 1098 0
DWIDTH 13 0
BBX 14 9 0 0
BITMAP
FFFC
1110
1190
3310
6630
3FF0
0010
0010
0010
ENDCHAR
STARTCHAR uni092F094D0930
ENCODING -1
SWIDTH 404 0
DWIDTH 5 0
BBX 8 9 0 0
BITMAP
FF
10
10
30
62
3E
0C
18
30
ENDCHAR
STARTCHAR radeva_uvowelsigndeva
ENCODING -1
SWIDTH 832 0
DWIDTH 10 0
BBX 12 9 -1 0
BITMAP
FFF0
0800
0E00
0E80
3CC0
18C0
0980
0400
0200
ENDCHAR
STARTCHAR radeva_uuvowelsigndeva
ENCODING -1
SWIDTH 446 0
DWIDTH 5 0
BBX 9 12 -1 -3
BITMAP
FE00
0800
0C00
0C00
3C00
1800
0800
0400
1E00
3100
3080
1C00
ENDCHAR
STARTCHAR radeva_viramadeva
ENCODING -1
SWIDTH 446 0
DWIDTH 5 0
BBX 7 11 -1 -2
BITMAP
FE
08
0C
0C
3C
18
08
04
02
10
08
ENDCHAR
STARTCHAR uni0931094D092F
ENCODING -1
SWIDTH 1108 0
DWIDTH 13 0
BBX 15 10 -1 -1
BITMAP
FFFE
00C8
00C8
01C8
3718
1EF8
0008
0008
0C08
0C00
ENDCHAR
STARTCHAR uni0931094D0939
ENCODING -1
SWIDTH 924 0
DWIDTH 11 0
BBX 13 12 -1 -3
BITMAP
FFF8
0060
01E0
0100
3F00
1FC0
0330
0330
0D30
0C80
0040
0020
ENDCHAR
STARTCHAR uni09320930
ENCODING -1
SWIDTH 867 0
DWIDTH 10 0
BBX 11 10 0 -1
BITMAP
FFE0
00C0
10C0
65C0
67C0
26C0
11C0
03C0
06C0
0C00
ENDCHAR
STARTCHAR uni09320962.loclMAR
ENCODING -1
SWIDTH 919 0
DWIDTH 11 0
BBX 12 10 0 -1
BITMAP
FFF0
0300
1300
6680
64C0
20C0
1180
0300
0360
01C0
ENDCHAR
STARTCHAR uni09320963.loclMAR
ENCODING -1
SWIDTH 919 0
DWIDTH 11 0
BBX 12 11 0 -2
BITMAP
FFF0
0300
1300
6680
64C0
20C0
1180
0300
0180
0300
0360
ENDCHAR
STARTCHAR uni0932094D091A094D092F
ENCODING -1
SWIDTH 1406 0
DWIDTH 17 0
BBX 18 11 0 -2
BITMAP
FFFFC0
001100
131100
66B100
646300
203F00
17D100
019900
019900
00B000
006000
ENDCHAR
STARTCHAR uni0932094D0921
ENCODING -1
SWIDTH 1261 0
DWIDTH 15 0
BBX 16 9 0 0
BITMAP
FFFF
000C
137C
66C0
6458
203C
1002
00C6
003C
ENDCHAR
STARTCHAR uni0932094D0925
ENCODING -1
SWIDTH 1421 0
DWIDTH 17 0
BBX 18 10 0 0
BITMAP
006000
FFD3C0
00D900
127900
679900
647100
204300
103F00
000100
000100
ENDCHAR
STARTCHAR uni0932094D0925094D092F
ENCODING -1
SWIDTH 1825 0
DWIDTH 22 0
BBX 23 10 0 0
BITMAP
006000
FFD7FE
00D888
127888
6FB988
646318
203FF8
100008
000008
000008
ENDCHAR
STARTCHAR uni0932094D09260930
ENCODING -1
SWIDTH 1257 0
DWIDTH 15 0
BBX 17 12 0 -3
BITMAP
FFFF00
000800
130800
66F800
64C000
20C000
104800
004C00
001C00
000C00
001800
001880
ENDCHAR
STARTCHAR uni0932094D092D
ENCODING -1
SWIDTH 1322 0
DWIDTH 16 0
BBX 17 9 0 0
BITMAP
FFCF80
002200
132200
66A200
64FE00
206200
100200
000200
000200
ENDCHAR
STARTCHAR uni0932094D0930
ENCODING -1
SWIDTH 539 0
DWIDTH 6 0
BBX 9 10 0 -1
BITMAP
FF80
0000
1000
6580
6700
2600
1180
0300
0600
0C00
ENDCHAR
STARTCHAR uni0932094D0935094D0921
ENCODING -1
SWIDTH 1611 0
DWIDTH 19 0
BBX 20 9 0 0
BITMAP
FFFFF0
000040
1327C0
66F400
64C580
204FE0
103C20
000460
0003C0
ENDCHAR
STARTCHAR uni0932094D0939094D092F
ENCODING -1
SWIDTH 1610 0
DWIDTH 19 0
BBX 20 12 0 -3
BITMAP
FFFFF0
000660
137E60
66E060
644060
203860
106460
004660
0044E0
0027E0
000060
000460
ENDCHAR
STARTCHAR uni0932094D095B
ENCODING -1
SWIDTH 1317 0
DWIDTH 16 0
BBX 17 10 0 -1
BITMAP
FFFF80
000200
130200
668200
647E00
202200
101200
011A00
607200
600000
ENDCHAR
STARTCHAR lladeva_radeva
ENCODING -1
SWIDTH 1037 0
DWIDTH 12 0
BBX 13 11 0 -2
BITMAP
FFF8
0080
1180
7B40
6220
6660
3CE0
0000
0300
0280
0600
ENDCHAR
STARTCHAR uni0933094D0930
ENCODING -1
SWIDTH 1037 0
DWIDTH 12 0
BBX 13 14 0 -5
BITMAP
FFF8
0000
1180
7B40
6220
6660
1CE0
0000
0300
0280
0600
0080
0040
0020
ENDCHAR
STARTCHAR uni0934094D0930
ENCODING -1
SWIDTH 1037 0
DWIDTH 12 0
BBX 13 14 0 -5
BITMAP
FFF8
0000
1180
7B40
6220
6660
1CE0
0000
0300
0280
0600
0080
0040
0020
ENDCHAR
STARTCHAR vadeva_radeva
ENCODING -1
SWIDTH 648 0
DWIDTH 8 0
BBX 9 9 0 0
BITMAP
FF80
0600
1600
7600
6600
6600
3E00
1A00
3200
ENDCHAR
STARTCHAR uni0935094D0928
ENCODING -1
SWIDTH 648 0
DWIDTH 8 0
BBX 9 10 0 -1
BITMAP
FF80
0600
1600
7600
6600
6600
3E00
1E00
3200
3800
ENDCHAR
STARTCHAR uni0935094D092F
ENCODING -1
SWIDTH 1132 0
DWIDTH 14 0
BBX 15 9 0 0
BITMAP
FFFE
0098
1198
7398
6338
67F8
3C18
0018
0008
ENDCHAR
STARTCHAR uni0935094D0930
ENCODING -1
SWIDTH 320 0
DWIDTH 4 0
BBX 7 9 0 0
BITMAP
FE
00
10
70
64
66
3C
18
30
ENDCHAR
STARTCHAR uni0935094D0939
ENCODING -1
SWIDTH 921 0
DWIDTH 11 0
BBX 12 12 0 -3
BITMAP
FFF0
00C0
13C0
7300
6200
6780
3E60
0660
0260
0100
0080
0040
ENDCHAR
STARTCHAR shadeva_radeva
ENCODING -1
SWIDTH 755 0
DWIDTH 9 0
BBX 9 10 1 0
BITMAP
4000
D780
9200
D200
3200
3A00
6600
CE00
1A00
3200
ENDCHAR
STARTCHAR uni0936094D0915
ENCODING -1
SWIDTH 1477 0
DWIDTH 18 0
BBX 17 10 1 0
BITMAP
600000
DFFF80
D02000
D12800
73B200
3E2200
626300
C1EE00
002000
002000
ENDCHAR
STARTCHAR uni0936094D091A
ENCODING -1
SWIDTH 838 0
DWIDTH 10 0
BBX 10 13 1 -3
BITMAP
6000
D7C0
D100
5B00
3F00
3100
6100
D100
3100
7100
F300
4F00
0100
ENDCHAR
STARTCHAR uni0936094D091B
ENCODING -1
SWIDTH 1410 0
DWIDTH 17 0
BBX 17 10 1 0
BITMAP
600000
DFFF80
D00C00
D70C00
361A00
3FDA00
630B00
C30700
010E00
00F800
ENDCHAR
STARTCHAR uni0936094D091F
ENCODING -1
SWIDTH 1118 0
DWIDTH 13 0
BBX 14 10 1 0
BITMAP
6000
DFFC
D040
D040
73C0
3E00
6600
C600
0230
01E0
ENDCHAR
STARTCHAR uni0936094D0924
ENCODING -1
SWIDTH 1072 0
DWIDTH 13 0
BBX 13 10 1 0
BITMAP
4000
EFF8
9020
D020
7020
6FE0
E420
C420
8220
0120
ENDCHAR
STARTCHAR uni0936094D0928
ENCODING -1
SWIDTH 1088 0
DWIDTH 13 0
BBX 13 10 1 0
BITMAP
4000
A7F8
B020
D020
7020
6FE0
E720
C020
8020
0020
ENDCHAR
STARTCHAR uni0936094D092E
ENCODING -1
SWIDTH 1194 0
DWIDTH 14 0
BBX 14 10 1 0
BITMAP
4000
FFFC
9118
D118
7118
6FF8
E718
C018
8018
0018
ENDCHAR
STARTCHAR uni0936094D092F
ENCODING -1
SWIDTH 1182 0
DWIDTH 14 0
BBX 14 10 1 0
BITMAP
6000
DFFC
D110
D190
7310
3E30
63F0
C010
0010
0010
ENDCHAR
STARTCHAR uni0936094D0930
ENCODING -1
SWIDTH 427 0
DWIDTH 5 0
BBX 7 10 1 0
BITMAP
40
D0
90
D0
30
38
66
CC
18
30
ENDCHAR
STARTCHAR uni0936094D0930092F
ENCODING -1
SWIDTH 1182 0
DWIDTH 14 0
BBX 14 10 1 0
BITMAP
6000
DFFC
D110
D190
7310
3E30
67F0
CC10
1810
3010
ENDCHAR
STARTCHAR uni0936094D0932
ENCODING -1
SWIDTH 1307 0
DWIDTH 16 0
BBX 16 10 1 0
BITMAP
6000
DFFF
D00C
D10C
735C
3E7C
626C
C10C
008C
0004
ENDCHAR
STARTCHAR uni0936094D0935
ENCODING -1
SWIDTH 1088 0
DWIDTH 13 0
BBX 13 10 1 0
BITMAP
6000
DFF8
D020
D120
33A0
3E20
6260
C1E0
0020
0020
ENDCHAR
STARTCHAR uni0936094D0936
ENCODING -1
SWIDTH 1219 0
DWIDTH 15 0
BBX 15 10 1 0
BITMAP
4200
E73E
9698
D198
7098
6F98
E398
C058
8018
0008
ENDCHAR
STARTCHAR uni0936094D0958
ENCODING -1
SWIDTH 1477 0
DWIDTH 18 0
BBX 17 11 1 -1
BITMAP
600000
DFFF80
D02000
D12800
73B200
3E2200
626300
C1EE00
002000
022000
020000
ENDCHAR
STARTCHAR ssadeva_radeva
ENCODING -1
SWIDTH 648 0
DWIDTH 8 0
BBX 9 9 0 0
BITMAP
FF80
6200
6200
6600
6600
1E00
0E00
1E00
3200
ENDCHAR
STARTCHAR uni0937094D09150930
ENCODING -1
SWIDTH 1327 0
DWIDTH 16 0
BBX 17 10 0 -1
BITMAP
FFFF80
604000
525000
477400
646600
1CC600
03CC00
034000
024000
020000
ENDCHAR
STARTCHAR uni0937094D091F
ENCODING -1
SWIDTH 678 0
DWIDTH 8 0
BBX 9 10 0 -1
BITMAP
FF80
3200
2A00
2600
2600
3C00
6000
6000
2300
1E00
ENDCHAR
STARTCHAR uni0937094D091F094D092F
ENCODING -1
SWIDTH 1056 0
DWIDTH 13 0
BBX 14 10 0 -1
BITMAP
FFFC
3230
2A30
2670
27F0
3C30
6030
6030
2310
1E00
ENDCHAR
STARTCHAR uni0937094D091F094D0935
ENCODING -1
SWIDTH 678 0
DWIDTH 8 0
BBX 9 13 0 -4
BITMAP
FF80
3200
2A00
2600
2600
3C00
6000
6000
E300
DE00
8C00
5800
3000
ENDCHAR
STARTCHAR uni0937094D0920
ENCODING -1
SWIDTH 678 0
DWIDTH 8 0
BBX 9 10 0 -1
BITMAP
FF80
3200
2A00
2600
2600
3E00
6300
6100
2300
1E00
ENDCHAR
STARTCHAR uni0937094D0920094D092F
ENCODING -1
SWIDTH 1046 0
DWIDTH 13 0
BBX 14 10 0 -1
BITMAP
FFFC
3230
2A30
2670
27F0
3E30
6330
6130
2310
1E00
ENDCHAR
STARTCHAR uni0937094D092A0930
ENCODING -1
SWIDTH 1018 0
DWIDTH 12 0
BBX 13 9 0 0
BITMAP
FFF8
6620
7620
6620
6660
1DE0
01A0
0320
0220
ENDCHAR
STARTCHAR uni0937094D092E
ENCODING -1
SWIDTH 1044 0
DWIDTH 13 0
BBX 14 9 0 0
BITMAP
FFFC
6230
7230
6630
6FF0
1E30
0030
0030
0010
ENDCHAR
STARTCHAR uni0937094D092E094D092F
ENCODING -1
SWIDTH 1368 0
DWIDTH 16 0
BBX 18 9 0 0
BITMAP
FFFFC0
623300
723300
667300
6FC700
1E3F00
000300
000300
000300
ENDCHAR
STARTCHAR uni0937094D092F
ENCODING -1
SWIDTH 1002 0
DWIDTH 12 0
BBX 13 9 0 0
BITMAP
FFF8
6220
7320
6620
6C60
1FE0
0020
0020
0020
ENDCHAR
STARTCHAR uni0937094D0930
ENCODING -1
SWIDTH 320 0
DWIDTH 4 0
BBX 7 9 0 0
BITMAP
FE
60
70
64
64
1C
18
30
60
ENDCHAR
STARTCHAR sadeva_radeva
ENCODING -1
SWIDTH 962 0
DWIDTH 12 0
BBX 14 9 -1 0
BITMAP
FFFC
0830
0C30
0FB0
3C70
39F0
0930
0430
0210
ENDCHAR
STARTCHAR uni0938094D0915
ENCODING -1
SWIDTH 1548 0
DWIDTH 19 0
BBX 20 9 -1 0
BITMAP
FFFFF0
080400
0C2500
0CE6C0
3CC440
1BCC40
083DC0
040400
020400
ENDCHAR
STARTCHAR uni0938094D09150930
ENCODING -1
SWIDTH 1533 0
DWIDTH 18 0
BBX 20 9 -1 0
BITMAP
FFFFF0
080C00
0C2F00
0CEE80
3CCC40
1BCCC0
087DC0
043C00
026400
ENDCHAR
STARTCHAR uni0938094D0915094D0935
ENCODING -1
SWIDTH 1801 0
DWIDTH 22 0
BBX 24 9 -1 0
BITMAP
FFFFFF
080C0C
0C2F4C
0CEEEC
3CCC8C
1BCCCC
087C7C
040C0C
020404
ENDCHAR
STARTCHAR uni0938094D0916
ENCODING -1
SWIDTH 1540 0
DWIDTH 18 0
BBX 21 9 -1 0
BITMAP
FFFFF8
086060
0C2060
0C2760
3DE460
1BE460
0843E0
042060
021060
ENDCHAR
STARTCHAR uni0938094D091B
ENCODING -1
SWIDTH 1473 0
DWIDTH 18 0
BBX 20 9 -1 0
BITMAP
FFFFF0
080180
0CE180
0C8340
3CF340
1FE340
09E0C0
0461C0
021F00
ENDCHAR
STARTCHAR uni0938094D091C
ENCODING -1
SWIDTH 1166 0
DWIDTH 14 0
BBX 16 9 -1 0
BITMAP
FFFF
0804
0DF4
0F0C
3C04
187C
0A24
04F4
0244
ENDCHAR
STARTCHAR uni0938094D091F
ENCODING -1
SWIDTH 1179 0
DWIDTH 14 0
BBX 16 9 -1 0
BITMAP
FFFF
0818
0C18
0C78
3EC0
1BC0
08C0
0446
023C
ENDCHAR
STARTCHAR uni0938094D0924
ENCODING -1
SWIDTH 1178 0
DWIDTH 14 0
BBX 16 9 -1 0
BITMAP
FFFF
0804
0C04
0C04
3CFC
1BC4
08C4
0444
0204
ENDCHAR
STARTCHAR uni0938094D09240930
ENCODING -1
SWIDTH 1005 0
DWIDTH 12 0
BBX 14 9 -1 0
BITMAP
FFFC
0810
0FF0
0E70
3CD0
19B0
0970
04D0
0210
ENDCHAR
STARTCHAR uni0938094D0924094D092F
ENCODING -1
SWIDTH 1512 0
DWIDTH 18 0
BBX 20 9 -1 0
BITMAP
FFFFF0
080440
0C0640
0C0C40
3CF8C0
1BCFC0
08C040
044040
020040
ENDCHAR
STARTCHAR uni0938094D0924094D0930
ENCODING -1
SWIDTH 843 0
DWIDTH 10 0
BBX 14 9 -1 0
BITMAP
FFFC
0800
0C00
0CF0
3F88
1838
0820
0400
0200
ENDCHAR
STARTCHAR uni0938094D0924094D0930.loclMAR
ENCODING -1
SWIDTH 1054 0
DWIDTH 13 0
BBX 17 9 -1 0
BITMAP
FFFF80
080000
0C0000
0C0000
3CFB00
1BC700
08C000
044000
020000
ENDCHAR
STARTCHAR uni0938094D0924094D0935
ENCODING -1
SWIDTH 1418 0
DWIDTH 17 0
BBX 19 9 -1 0
BITMAP
FFFFE0
080080
0C0480
0C0E80
3CF880
1BC980
08C780
044080
020080
ENDCHAR
STARTCHAR uni0938094D0925
ENCODING -1
SWIDTH 1288 0
DWIDTH 15 0
BBX 18 10 -1 0
BITMAP
004000
FFE7C0
089300
0CF300
0C3300
3CE300
1BC700
083F00
040300
020300
ENDCHAR
STARTCHAR uni0938094D0925094D092F
ENCODING -1
SWIDTH 1692 0
DWIDTH 20 0
BBX 22 10 -1 0
BITMAP
004000
FFEFFC
089190
0CF190
0C3390
3CE630
1BFDF0
080010
040010
020010
ENDCHAR
STARTCHAR uni0938094D0926
ENCODING -1
SWIDTH 1174 0
DWIDTH 14 0
BBX 16 11 -1 -2
BITMAP
FFFF
0808
0C08
0C78
3CC0
1BC0
0848
044C
021C
0004
0002
ENDCHAR
STARTCHAR uni0938094D0928
ENCODING -1
SWIDTH 966 0
DWIDTH 12 0
BBX 14 9 -1 0
BITMAP
FFFC
0830
0C30
0FB0
3C70
39F0
09B0
05B0
0210
ENDCHAR
STARTCHAR uni0938094D092A0930
ENCODING -1
SWIDTH 1159 0
DWIDTH 14 0
BBX 16 9 -1 0
BITMAP
FFFF
08C4
0CC4
0CC4
3CCC
1BBC
0834
0464
02C4
ENDCHAR
STARTCHAR uni0938094D092B
ENCODING -1
SWIDTH 1549 0
DWIDTH 19 0
BBX 20 9 -1 0
BITMAP
FFFFF0
08C400
0CC500
0CC6C0
3CCC40
1BBC40
0805C0
040400
020400
ENDCHAR
STARTCHAR uni0938094D092C
ENCODING -1
SWIDTH 1144 0
DWIDTH 14 0
BBX 16 9 -1 0
BITMAP
FFFF
080C
0C0C
0CEC
3CEC
1BDC
087C
040C
0204
ENDCHAR
STARTCHAR uni0938094D092E
ENCODING -1
SWIDTH 1240 0
DWIDTH 15 0
BBX 17 9 -1 0
BITMAP
FFFF80
086200
0C6200
0C6200
3DFE00
1BC200
080200
040200
020200
ENDCHAR
STARTCHAR uni0938094D092E094D092F
ENCODING -1
SWIDTH 1564 0
DWIDTH 19 0
BBX 21 9 -1 0
BITMAP
FFFFF8
086220
0C6220
0C6620
3DFC60
1BC7E0
080020
040020
020020
ENDCHAR
STARTCHAR uni0938094D092F
ENCODING -1
SWIDTH 1218 0
DWIDTH 15 0
BBX 17 9 -1 0
BITMAP
FFFF80
082600
0C6600
0C6600
3CCE00
1BFE00
080600
040600
020200
ENDCHAR
STARTCHAR uni0938094D0930
ENCODING -1
SWIDTH 638 0
DWIDTH 8 0
BBX 11 9 -1 0
BITMAP
FFE0
0800
0C00
0FA0
3C60
19C0
0900
0400
0200
ENDCHAR
STARTCHAR uni0938094D0932
ENCODING -1
SWIDTH 1363 0
DWIDTH 16 0
BBX 18 9 -1 0
BITMAP
FFFFC0
080180
0C2180
0CDB80
3CCF80
1BCD80
082180
040180
020180
ENDCHAR
STARTCHAR uni0938094D0935
ENCODING -1
SWIDTH 1144 0
DWIDTH 14 0
BBX 16 9 -1 0
BITMAP
FFFF
080C
0C0C
0CEC
3FCC
18CC
087C
040C
0204
ENDCHAR
STARTCHAR uni0938094D0938
ENCODING -1
SWIDTH 1220 0
DWIDTH 15 0
BBX 17 9 -1 0
BITMAP
FFFF80
084600
0C4600
0C6600
3DDE00
1BC600
088600
040600
021200
ENDCHAR
STARTCHAR hadeva_radeva
ENCODING -1
SWIDTH 849 0
DWIDTH 10 0
BBX 10 12 1 -3
BITMAP
FFC0
0200
7E00
C000
C000
7E00
C500
CD00
4900
2100
1100
0100
ENDCHAR
STARTCHAR hadeva_uvowelsigndeva
ENCODING -1
SWIDTH 578 0
DWIDTH 7 0
BBX 8 16 0 -7
BITMAP
7F
0C
3C
60
20
38
64
66
26
10
08
14
14
86
46
3C
ENDCHAR
STARTCHAR hadeva_uuvowelsigndeva
ENCODING -1
SWIDTH 578 0
DWIDTH 7 0
BBX 8 14 0 -5
BITMAP
7F
0C
3C
60
20
38
64
66
26
30
F8
84
80
70
ENDCHAR
STARTCHAR hadeva_rvocalicvowelsigndeva
ENCODING -1
SWIDTH 748 0
DWIDTH 9 0
BBX 9 12 1 -3
BITMAP
FF80
1800
7800
C000
C000
7E00
CD00
C800
4900
2700
1000
0800
ENDCHAR
STARTCHAR uni0939094D0923
ENCODING -1
SWIDTH 929 0
DWIDTH 11 0
BBX 11 12 1 -3
BITMAP
FFE0
0100
7F00
C000
C000
7F00
D680
D680
4C80
2080
1080
0080
ENDCHAR
STARTCHAR uni0939094D0923.ss11
ENCODING -1
SWIDTH 1113 0
DWIDTH 13 0
BBX 13 12 1 -3
BITMAP
FFF8
0040
7FC0
C000
C000
7FC0
C6A0
DEB0
5CB0
21B0
1230
0130
ENDCHAR
STARTCHAR uni0939094D0928
ENCODING -1
SWIDTH 849 0
DWIDTH 10 0
BBX 10 12 1 -3
BITMAP
FFC0
0200
7E00
C000
C000
7E00
CF00
DD00
5D00
2500
1100
0100
ENDCHAR
STARTCHAR uni0939094D092E
ENCODING -1
SWIDTH 950 0
DWIDTH 11 0
BBX 11 12 1 -3
BITMAP
FFE0
0CC0
7CC0
C0C0
C0C0
70C0
CCC0
DFC0
5CC0
20C0
1000
0800
ENDCHAR
STARTCHAR uni0939094D092E094D092F
ENCODING -1
SWIDTH 1253 0
DWIDTH 15 0
BBX 15 12 1 -3
BITMAP
FFFE
1888
7888
C188
4318
73F8
CE08
CC08
4C08
2400
1000
0800
ENDCHAR
STARTCHAR uni0939094D092F
ENCODING -1
SWIDTH 991 0
DWIDTH 12 0
BBX 12 12 1 -3
BITMAP
FFF0
0440
7C40
C040
C040
7040
CC40
C440
4CC0
27C0
1040
0840
ENDCHAR
STARTCHAR uni0939094D0930
ENCODING -1
SWIDTH 498 0
DWIDTH 6 0
BBX 7 11 1 -2
BITMAP
FE
18
78
C0
C0
7E
CC
D8
40
20
10
ENDCHAR
STARTCHAR uni0939094D0932
ENCODING -1
SWIDTH 979 0
DWIDTH 12 0
BBX 12 11 1 -2
BITMAP
FFF0
0100
7F00
C000
C000
7E00
C100
DFC0
5A40
28C0
1400
ENDCHAR
STARTCHAR uni0939094D0935
ENCODING -1
SWIDTH 896 0
DWIDTH 11 0
BBX 11 12 1 -3
BITMAP
FFE0
0300
7F00
C000
C000
7F00
C180
DD80
5980
2F80
1180
0180
ENDCHAR
STARTCHAR qadeva_radeva
ENCODING -1
SWIDTH 1037 0
DWIDTH 12 0
BBX 13 12 0 -3
BITMAP
FFF8
0600
1780
7740
6620
6660
1EE0
1E00
3200
0000
0C00
0C00
ENDCHAR
STARTCHAR uni0958094D0924
ENCODING -1
SWIDTH 1319 0
DWIDTH 16 0
BBX 17 10 0 -1
BITMAP
FFFF80
060200
178200
774200
667E00
664200
1E4200
062200
221200
200000
ENDCHAR
STARTCHAR uni0958094D092B
ENCODING -1
SWIDTH 1705 0
DWIDTH 20 0
BBX 21 10 0 -1
BITMAP
FFFFF8
064600
17C780
774760
666620
661E60
1E06E0
060600
260200
200000
ENDCHAR
STARTCHAR uni0958094D092C
ENCODING -1
SWIDTH 1335 0
DWIDTH 16 0
BBX 17 10 0 -1
BITMAP
FFFF80
060200
179200
777A00
667200
662E00
1E1E00
060200
220200
200000
ENDCHAR
STARTCHAR uni0958094D092E
ENCODING -1
SWIDTH 1411 0
DWIDTH 17 0
BBX 18 10 0 -1
BITMAP
FFFFC0
063100
17B100
777100
66FF00
666100
1E0100
060100
220100
200000
ENDCHAR
STARTCHAR uni0958094D0930
ENCODING -1
SWIDTH 627 0
DWIDTH 8 0
BBX 11 12 0 -3
BITMAP
FFE0
0600
1780
7740
6600
6600
1E00
1E00
3200
0000
0C00
0C00
ENDCHAR
STARTCHAR uni0958094D0958
ENCODING -1
SWIDTH 1724 0
DWIDTH 21 0
BBX 21 10 0 -1
BITMAP
FFFFF8
060200
179280
777B20
666220
662630
1E1EE0
060200
222200
202000
ENDCHAR
STARTCHAR uni0958094D095E
ENCODING -1
SWIDTH 1705 0
DWIDTH 20 0
BBX 21 10 0 -1
BITMAP
FFFFF8
064600
17C780
774760
666620
661E60
1E06E0
062600
262200
200000
ENDCHAR
STARTCHAR khhadeva_radeva
ENCODING -1
SWIDTH 1084 0
DWIDTH 13 0
BBX 15 10 -1 -1
BITMAP
FFFE
0808
0C48
0CE8
3D88
1898
0878
0468
22C8
2000
ENDCHAR
STARTCHAR uni0959094D0924
ENCODING -1
SWIDTH 1443 0
DWIDTH 17 0
BBX 19 12 -1 -3
BITMAP
FFFFE0
080080
0C4080
0CE080
3D8F80
189880
087880
040080
020280
100000
180000
080000
ENDCHAR
STARTCHAR uni0959094D092E
ENCODING -1
SWIDTH 1570 0
DWIDTH 19 0
BBX 21 11 -1 -2
BITMAP
FFFFF8
080620
0C4620
0DE620
3D9FE0
189C20
087020
040020
020020
100000
180000
ENDCHAR
STARTCHAR uni0959094D092F
ENCODING -1
SWIDTH 1538 0
DWIDTH 18 0
BBX 21 12 -1 -3
BITMAP
FFFFF8
080660
0C4660
0CEE60
3D8CE0
189FE0
087060
040060
020060
100000
180000
080000
ENDCHAR
STARTCHAR uni0959094D0935
ENCODING -1
SWIDTH 1454 0
DWIDTH 17 0
BBX 20 12 -1 -3
BITMAP
FFFFF0
0800C0
0C44C0
0CEEC0
3D88C0
1899C0
0877C0
0400C0
0200C0
100000
180000
080000
ENDCHAR
STARTCHAR uni0959094D0936
ENCODING -1
SWIDTH 1587 0
DWIDTH 19 0
BBX 21 11 -1 -1
BITMAP
000C00
FFFA78
080A20
0C4620
0CC220
3D8E20
189E20
0870A0
040020
320020
300000
ENDCHAR
STARTCHAR uni0959094D0938
ENCODING -1
SWIDTH 1610 0
DWIDTH 19 0
BBX 21 12 -1 -3
BITMAP
FFFFF8
080630
0C4230
0CE270
3D9FF0
189E30
087430
040230
020130
100000
180000
080000
ENDCHAR
STARTCHAR ghhadeva_radeva
ENCODING -1
SWIDTH 768 0
DWIDTH 9 0
BBX 11 12 -1 -3
BITMAP
FFE0
0880
0880
0880
3880
1980
0380
0680
0C80
0000
0100
0100
ENDCHAR
STARTCHAR zadeva_radeva
ENCODING -1
SWIDTH 828 0
DWIDTH 10 0
BBX 11 13 0 -4
BITMAP
FFE0
0080
0080
0080
1F80
0880
0480
4480
3D80
0300
0600
1800
0800
ENDCHAR
STARTCHAR uni095B094D092F
ENCODING -1
SWIDTH 1132 0
DWIDTH 14 0
BBX 15 13 0 -4
BITMAP
FFFE
0098
0198
0398
1F38
09F8
0418
4418
3C08
0000
0000
1800
0800
ENDCHAR
STARTCHAR uni095B094D095B
ENCODING -1
SWIDTH 1328 0
DWIDTH 16 0
BBX 17 13 0 -4
BITMAP
FFFF80
000200
000200
000200
3FFE00
102200
081200
8D1200
38F200
000000
000000
106000
102000
ENDCHAR
STARTCHAR fadeva_radeva
ENCODING -1
SWIDTH 1038 0
DWIDTH 12 0
BBX 13 11 0 -2
BITMAP
FFF8
6200
6380
6760
6620
1E60
1EE0
3600
6200
1000
1800
ENDCHAR
STARTCHAR uni095E094D0924
ENCODING -1
SWIDTH 1290 0
DWIDTH 15 0
BBX 17 10 0 -1
BITMAP
FFFF80
620600
638600
676600
667E00
1EC600
024600
222600
321200
100000
ENDCHAR
STARTCHAR uni095E094D0938
ENCODING -1
SWIDTH 1452 0
DWIDTH 17 0
BBX 19 10 0 -1
BITMAP
FFFFE0
623180
639180
677380
66FF80
1E7180
022180
221180
320180
100000
ENDCHAR
STARTCHAR uni095E094D095B
ENCODING -1
SWIDTH 1506 0
DWIDTH 18 0
BBX 19 13 0 -4
BITMAP
FFFFE0
620080
638080
676080
661F80
1E0880
020480
224480
323C80
100000
001000
001800
000800
ENDCHAR
STARTCHAR uni095E094D095E
ENCODING -1
SWIDTH 1746 0
DWIDTH 21 0
BBX 22 10 0 -1
BITMAP
FFFFFC
622200
63A280
6763A0
662730
1E1E30
020260
220200
321200
101000
ENDCHAR
STARTCHAR yyadeva_radeva
ENCODING -1
SWIDTH 732 0
DWIDTH 9 0
BBX 10 12 0 -3
BITMAP
FFC0
1300
1300
3300
6300
3F00
0F00
1B00
3100
0000
0400
0400
ENDCHAR
STARTCHAR uni0915094D
ENCODING -1
SWIDTH 627 0
DWIDTH 8 0
BBX 11 9 0 0
BITMAP
FFE0
0600
1780
7740
6600
6600
3E00
0600
0200
ENDCHAR
STARTCHAR uni0916094D
ENCODING -1
SWIDTH 756 0
DWIDTH 9 0
BBX 13 9 -1 0
BITMAP
FFF8
0800
0C40
0CE0
3D80
1898
0870
0400
0200
ENDCHAR
STARTCHAR uni0917094D
ENCODING -1
SWIDTH 440 0
DWIDTH 5 0
BBX 7 6 -1 3
BITMAP
FE
08
08
08
38
18
ENDCHAR
STARTCHAR uni0918094D
ENCODING -1
SWIDTH 526 0
DWIDTH 6 0
BBX 9 8 0 1
BITMAP
FF80
7000
6000
2800
3C00
2080
3300
0E00
ENDCHAR
STARTCHAR uni0919094D
ENCODING -1
SWIDTH 832 0
DWIDTH 10 0
BBX 13 11 -1 -2
BITMAP
FFF8
0100
1F00
1820
1200
0F80
0080
1180
0F00
0000
0040
ENDCHAR
STARTCHAR uni091A094D
ENCODING -1
SWIDTH 510 0
DWIDTH 6 0
BBX 9 7 0 2
BITMAP
FF80
0000
FC00
7E00
1880
0980
0700
ENDCHAR
STARTCHAR uni091B094D
ENCODING -1
SWIDTH 994 0
DWIDTH 12 0
BBX 13 9 0 0
BITMAP
FFF8
0000
70C0
61A0
3DA0
38B0
3070
10E0
0F80
ENDCHAR
STARTCHAR uni091C094D
ENCODING -1
SWIDTH 500 0
DWIDTH 6 0
BBX 9 9 0 0
BITMAP
FF80
0000
0000
0000
1F80
0800
0400
4400
3C00
ENDCHAR
STARTCHAR uni091D094D
ENCODING -1
SWIDTH 702 0
DWIDTH 8 0
BBX 11 12 0 -3
BITMAP
FFC0
0200
3E00
3060
26C0
5F00
6100
6300
1E00
0800
0400
03C0
ENDCHAR
STARTCHAR uni091D094D.ss11
ENCODING -1
SWIDTH 769 0
DWIDTH 9 0
BBX 12 9 0 0
BITMAP
F7F0
1100
1100
1100
7FF0
3100
0100
0100
0100
ENDCHAR
STARTCHAR uni091E094D
ENCODING -1
SWIDTH 470 0
DWIDTH 6 0
BBX 8 7 0 2
BITMAP
FF
00
30
69
0F
0C
38
ENDCHAR
STARTCHAR uni091F094D
ENCODING -1
SWIDTH 698 0
DWIDTH 8 0
BBX 12 13 0 -4
BITMAP
FF80
0400
0400
3C00
6000
6000
6000
2300
1E00
0000
0040
0020
0010
ENDCHAR
STARTCHAR uni0920094D
ENCODING -1
SWIDTH 814 0
DWIDTH 10 0
BBX 11 11 0 -2
BITMAP
FFC0
0400
0400
3E00
6100
6180
6180
2300
1E00
0040
0020
ENDCHAR
STARTCHAR uni0921094D
ENCODING -1
SWIDTH 712 0
DWIDTH 9 0
BBX 11 11 -1 -2
BITMAP
FFE0
0100
1F00
1800
1200
0F80
0080
1180
0F00
0000
0040
ENDCHAR
STARTCHAR uni0922094D
ENCODING -1
SWIDTH 698 0
DWIDTH 8 0
BBX 12 13 0 -4
BITMAP
FF80
0400
0400
3C00
6000
6600
2D00
2500
0F00
0000
0040
0020
0010
ENDCHAR
STARTCHAR uni0923094D
ENCODING -1
SWIDTH 601 0
DWIDTH 7 0
BBX 8 6 0 3
BITMAP
FF
64
64
64
64
38
ENDCHAR
STARTCHAR uni0923094D.ss11
ENCODING -1
SWIDTH 615 0
DWIDTH 7 0
BBX 11 11 -1 -2
BITMAP
FFE0
0D80
0D80
3D80
1980
0980
0480
0200
0100
0080
0040
ENDCHAR
STARTCHAR uni0924094D
ENCODING -1
SWIDTH 334 0
DWIDTH 4 0
BBX 7 9 0 0
BITMAP
FE
00
00
00
7E
60
40
20
10
ENDCHAR
STARTCHAR uni0925094D
ENCODING -1
SWIDTH 454 0
DWIDTH 5 0
BBX 7 8 1 2
BITMAP
40
E0
90
F0
30
E2
C6
3C
ENDCHAR
STARTCHAR uni0926094D
ENCODING -1
SWIDTH 678 0
DWIDTH 8 0
BBX 9 13 0 -4
BITMAP
FF80
0400
0400
3C00
6000
6000
2600
2600
0E00
0200
0900
0400
0200
ENDCHAR
STARTCHAR uni0927094D
ENCODING -1
SWIDTH 524 0
DWIDTH 6 0
BBX 8 9 1 2
BITMAP
20
F8
D8
40
38
30
23
36
0C
ENDCHAR
STARTCHAR uni0928094D
ENCODING -1
SWIDTH 340 0
DWIDTH 4 0
BBX 8 6 -1 3
BITMAP
FF
00
00
00
3F
38
ENDCHAR
STARTCHAR uni0929094D
ENCODING -1
SWIDTH 340 0
DWIDTH 4 0
BBX 8 10 -1 -1
BITMAP
FF
00
00
00
3F
38
00
00
18
18
ENDCHAR
STARTCHAR uni092A094D
ENCODING -1
SWIDTH 320 0
DWIDTH 4 0
BBX 7 6 0 3
BITMAP
FE
60
60
64
64
1C
ENDCHAR
STARTCHAR uni092B094D
ENCODING -1
SWIDTH 628 0
DWIDTH 8 0
BBX 11 9 0 0
BITMAP
FFE0
6200
6380
6760
6600
1E00
0200
0200
0200
ENDCHAR
STARTCHAR uni092C094D
ENCODING -1
SWIDTH 320 0
DWIDTH 4 0
BBX 7 7 0 2
BITMAP
FE
00
10
70
74
6C
3C
ENDCHAR
STARTCHAR uni092D094D
ENCODING -1
SWIDTH 430 0
DWIDTH 5 0
BBX 6 7 1 3
BITMAP
C0
A0
A0
70
30
FC
60
ENDCHAR
STARTCHAR uni092D094D.init
ENCODING -1
SWIDTH 430 0
DWIDTH 5 0
BBX 6 7 1 3
BITMAP
C0
A0
A0
70
30
FC
60
ENDCHAR
STARTCHAR uni092E094D
ENCODING -1
SWIDTH 436 0
DWIDTH 5 0
BBX 9 6 -1 3
BITMAP
FF80
0800
0800
0800
3F80
3800
ENDCHAR
STARTCHAR uni092F094D
ENCODING -1
SWIDTH 404 0
DWIDTH 5 0
BBX 8 6 0 3
BITMAP
FF
10
10
30
62
3E
ENDCHAR
STARTCHAR uni0931094D
ENCODING -1
SWIDTH 396 0
DWIDTH 5 0
BBX 8 10 -1 -1
BITMAP
FF
00
00
00
3F
1E
00
00
0C
0C
ENDCHAR
STARTCHAR uni0932094D
ENCODING -1
SWIDTH 579 0
DWIDTH 7 0
BBX 9 7 0 2
BITMAP
FF80
0000
1300
6680
6400
2000
1000
ENDCHAR
STARTCHAR uni0932094D.halfform
ENCODING -1
SWIDTH 539 0
DWIDTH 6 0
BBX 9 7 0 2
BITMAP
FF80
0000
1000
6580
6700
2600
1000
ENDCHAR
STARTCHAR uni0932094D.loclMAR
ENCODING -1
SWIDTH 566 0
DWIDTH 7 0
BBX 9 7 0 2
BITMAP
FF80
0000
1300
6680
6400
2000
1000
ENDCHAR
STARTCHAR uni0933094D
ENCODING -1
SWIDTH 1037 0
DWIDTH 12 0
BBX 13 7 0 2
BITMAP
FFF8
0000
1180
7B40
6220
6660
1CE0
ENDCHAR
STARTCHAR uni0934094D
ENCODING -1
SWIDTH 1037 0
DWIDTH 12 0
BBX 13 11 0 -2
BITMAP
FFF8
0000
1180
7B40
6220
6660
1CE0
0000
0300
0280
0040
ENDCHAR
STARTCHAR uni0935094D
ENCODING -1
SWIDTH 320 0
DWIDTH 4 0
BBX 7 7 0 2
BITMAP
FE
00
10
70
64
64
3C
ENDCHAR
STARTCHAR uni0936094D
ENCODING -1
SWIDTH 440 0
DWIDTH 5 0
BBX 7 9 1 1
BITMAP
40
E0
90
90
70
7E
E0
C0
80
ENDCHAR
STARTCHAR uni0936094D.loclMAR
ENCODING -1
SWIDTH 520 0
DWIDTH 6 0
BBX 8 10 0 -1
BITMAP
FF
10
30
68
68
18
2C
38
1C
02
ENDCHAR
STARTCHAR uni0937094D
ENCODING -1
SWIDTH 320 0
DWIDTH 4 0
BBX 7 6 0 3
BITMAP
FE
60
70
64
64
1C
ENDCHAR
STARTCHAR uni0938094D
ENCODING -1
SWIDTH 481 0
DWIDTH 6 0
BBX 11 9 -1 0
BITMAP
FFE0
0800
0C00
0C00
3CC0
1B80
0800
0400
0200
ENDCHAR
STARTCHAR uni0939094D
ENCODING -1
SWIDTH 578 0
DWIDTH 7 0
BBX 7 14 1 -5
BITMAP
FE
18
78
C0
40
70
C8
CC
4C
20
10
48
20
10
ENDCHAR
STARTCHAR uni0958094D
ENCODING -1
SWIDTH 627 0
DWIDTH 8 0
BBX 11 10 0 -1
BITMAP
FFE0
0600
1780
7740
6600
6600
3E00
0600
2200
2000
ENDCHAR
STARTCHAR uni0959094D
ENCODING -1
SWIDTH 756 0
DWIDTH 9 0
BBX 13 11 -1 -2
BITMAP
FFF8
0800
0C40
0CE0
3D80
1898
0870
0400
0200
1000
1800
ENDCHAR
STARTCHAR uni095A094D
ENCODING -1
SWIDTH 440 0
DWIDTH 5 0
BBX 7 10 -1 -1
BITMAP
FE
08
08
08
38
18
00
00
18
18
ENDCHAR
STARTCHAR uni095B094D
ENCODING -1
SWIDTH 500 0
DWIDTH 6 0
BBX 9 13 0 -4
BITMAP
FF80
0000
0000
0000
1F80
0800
0400
4400
3C00
0000
0000
1800
0800
ENDCHAR
STARTCHAR uni095E094D
ENCODING -1
SWIDTH 628 0
DWIDTH 8 0
BBX 11 9 0 0
BITMAP
FFE0
6200
6380
6760
6600
1E00
0200
2200
2200
ENDCHAR
STARTCHAR uni095F094D
ENCODING -1
SWIDTH 404 0
DWIDTH 5 0
BBX 8 10 0 -1
BITMAP
FF
10
10
30
62
3E
00
00
20
20
ENDCHAR
STARTCHAR zero.dnom
ENCODING -1
SWIDTH 629 0
DWIDTH 8 0
BBX 6 5 1 -1
BITMAP
78
8C
8C
88
70
ENDCHAR
STARTCHAR one.dnom
ENCODING -1
SWIDTH 393 0
DWIDTH 5 0
BBX 3 5 1 -1
BITMAP
E0
40
40
40
E0
ENDCHAR
STARTCHAR two.dnom
ENCODING -1
SWIDTH 491 0
DWIDTH 6 0
BBX 4 5 1 -1
BITMAP
E0
30
20
40
F0
ENDCHAR
STARTCHAR three.dnom
ENCODING -1
SWIDTH 467 0
DWIDTH 6 0
BBX 4 7 1 -3
BITMAP
E0
20
20
60
30
20
80
ENDCHAR
STARTCHAR four.dnom
ENCODING -1
SWIDTH 569 0
DWIDTH 7 0
BBX 6 6 0 -2
BITMAP
08
18
28
48
FC
08
ENDCHAR
STARTCHAR five.dnom
ENCODING -1
SWIDTH 536 0
DWIDTH 6 0
BBX 4 8 1 -3
BITMAP
10
F0
80
C0
30
10
20
C0
ENDCHAR
STARTCHAR six.dnom
ENCODING -1
SWIDTH 617 0
DWIDTH 7 0
BBX 6 7 1 -1
BITMAP
10
60
50
88
8C
C8
70
ENDCHAR
STARTCHAR seven.dnom
ENCODING -1
SWIDTH 552 0
DWIDTH 7 0
BBX 5 6 1 -2
BITMAP
F8
00
10
00
20
40
ENDCHAR
STARTCHAR eight.dnom
ENCODING -1
SWIDTH 613 0
DWIDTH 7 0
BBX 6 7 1 -1
BITMAP
58
C8
70
78
8C
88
70
ENDCHAR
STARTCHAR nine.dnom
ENCODING -1
SWIDTH 607 0
DWIDTH 7 0
BBX 5 7 1 -3
BITMAP
70
88
88
C8
78
30
40
ENDCHAR
STARTCHAR zero.numr
ENCODING -1
SWIDTH 629 0
DWIDTH 8 0
BBX 6 5 1 5
BITMAP
38
88
8C
88
70
ENDCHAR
STARTCHAR one.numr
ENCODING -1
SWIDTH 427 0
DWIDTH 5 0
BBX 3 5 1 5
BITMAP
E0
40
40
40
E0
ENDCHAR
STARTCHAR two.numr
ENCODING -1
SWIDTH 491 0
DWIDTH 6 0
BBX 4 5 1 5
BITMAP
60
30
20
40
F0
ENDCHAR
STARTCHAR three.numr
ENCODING -1
SWIDTH 467 0
DWIDTH 6 0
BBX 4 7 1 3
BITMAP
E0
20
20
60
30
20
C0
ENDCHAR
STARTCHAR four.numr
ENCODING -1
SWIDTH 569 0
DWIDTH 7 0
BBX 6 7 0 3
BITMAP
08
18
28
48
FC
08
08
ENDCHAR
STARTCHAR five.numr
ENCODING -1
SWIDTH 536 0
DWIDTH 6 0
BBX 4 7 1 3
BITMAP
F0
80
C0
30
10
20
C0
ENDCHAR
STARTCHAR six.numr
ENCODING -1
SWIDTH 617 0
DWIDTH 7 0
BBX 6 7 1 5
BITMAP
10
60
40
98
8C
C8
70
ENDCHAR
STARTCHAR seven.numr
ENCODING -1
SWIDTH 552 0
DWIDTH 7 0
BBX 5 6 1 4
BITMAP
F8
00
10
00
20
40
ENDCHAR
STARTCHAR eight.numr
ENCODING -1
SWIDTH 613 0
DWIDTH 7 0
BBX 5 7 1 5
BITMAP
58
C8
70
78
88
88
70
ENDCHAR
STARTCHAR nine.numr
ENCODING -1
SWIDTH 607 0
DWIDTH 7 0
BBX 5 7 1 3
BITMAP
70
88
88
C8
68
10
40
ENDCHAR
STARTCHAR fivedeva.loclMAR
ENCODING -1
SWIDTH 904 0
DWIDTH 11 0
BBX 10 11 0 -1
BITMAP
1800
9C00
7800
0800
0400
0200
0100
0080
00C0
0040
0040
ENDCHAR
STARTCHAR eightdeva.loclMAR
ENCODING -1
SWIDTH 870 0
DWIDTH 10 0
BBX 8 9 1 0
BITMAP
03
06
1C
30
60
E0
60
61
1F
ENDCHAR
STARTCHAR ninedeva.loclMAR
ENCODING -1
SWIDTH 704 0
DWIDTH 8 0
BBX 6 12 1 -1
BITMAP
60
D0
90
90
70
20
00
00
08
04
04
04
ENDCHAR
STARTCHAR onedeva.ss11
ENCODING -1
SWIDTH 550 0
DWIDTH 7 0
BBX 4 10 1 0
BITMAP
40
E0
90
F0
30
70
60
20
10
30
ENDCHAR
STARTCHAR periodcentered.case
ENCODING -1
SWIDTH 339 0
DWIDTH 4 0
BBX 2 1 1 4
BITMAP
C0
ENDCHAR
STARTCHAR bullet.case
ENCODING -1
SWIDTH 508 0
DWIDTH 6 0
BBX 4 4 1 2
BITMAP
70
F0
F0
40
ENDCHAR
STARTCHAR exclamdown.case
ENCODING -1
SWIDTH 349 0
DWIDTH 4 0
BBX 2 10 1 0
BITMAP
40
C0
00
00
40
40
40
C0
C0
C0
ENDCHAR
STARTCHAR numbersign.case
ENCODING -1
SWIDTH 780 0
DWIDTH 9 0
BBX 8 7 1 1
BITMAP
02
10
7F
20
08
40
90
ENDCHAR
STARTCHAR questiondown.case
ENCODING -1
SWIDTH 414 0
DWIDTH 5 0
BBX 4 10 0 0
BITMAP
20
30
00
00
30
20
40
80
C0
70
ENDCHAR
STARTCHAR periodcentered.deva
ENCODING -1
SWIDTH 339 0
DWIDTH 4 0
BBX 2 2 1 4
BITMAP
40
C0
ENDCHAR
STARTCHAR colon.deva
ENCODING -1
SWIDTH 327 0
DWIDTH 4 0
BBX 2 6 1 0
BITMAP
C0
40
00
00
40
C0
ENDCHAR
STARTCHAR comma.deva
ENCODING -1
SWIDTH 300 0
DWIDTH 4 0
BBX 2 3 1 -2
BITMAP
C0
40
80
ENDCHAR
STARTCHAR ellipsis.deva
ENCODING -1
SWIDTH 1269 0
DWIDTH 15 0
BBX 11 2 2 0
BITMAP
C620
C620
ENDCHAR
STARTCHAR exclam.deva
ENCODING -1
SWIDTH 443 0
DWIDTH 5 0
BBX 2 9 2 0
BITMAP
C0
C0
40
40
40
40
00
40
C0
ENDCHAR
STARTCHAR period.deva
ENCODING -1
SWIDTH 327 0
DWIDTH 4 0
BBX 2 2 1 0
BITMAP
40
C0
ENDCHAR
STARTCHAR question.deva
ENCODING -1
SWIDTH 664 0
DWIDTH 8 0
BBX 5 10 2 0
BITMAP
20
F8
08
18
30
20
20
00
20
20
ENDCHAR
STARTCHAR quotedbl.deva
ENCODING -1
SWIDTH 658 0
DWIDTH 8 0
BBX 5 5 2 5
BITMAP
80
D8
D8
50
50
ENDCHAR
STARTCHAR quotesingle.deva
ENCODING -1
SWIDTH 438 0
DWIDTH 5 0
BBX 2 5 2 5
BITMAP
80
C0
C0
40
40
ENDCHAR
STARTCHAR semicolon.deva
ENCODING -1
SWIDTH 300 0
DWIDTH 4 0
BBX 2 8 1 -2
BITMAP
C0
00
00
00
00
C0
40
80
ENDCHAR
STARTCHAR parenleft.deva
ENCODING -1
SWIDTH 527 0
DWIDTH 6 0
BBX 4 13 2 -2
BITMAP
10
20
40
C0
C0
C0
C0
C0
C0
40
40
20
10
ENDCHAR
STARTCHAR parenright.deva
ENCODING -1
SWIDTH 497 0
DWIDTH 6 0
BBX 4 13 1 -2
BITMAP
80
40
20
30
30
10
10
10
30
30
20
60
C0
ENDCHAR
STARTCHAR emdash.case
ENCODING -1
SWIDTH 1039 0
DWIDTH 12 0
BBX 1 1 11 4
BITMAP
00
ENDCHAR
STARTCHAR endash.case
ENCODING -1
SWIDTH 719 0
DWIDTH 9 0
BBX 1 1 7 4
BITMAP
00
ENDCHAR
STARTCHAR hyphen.case
ENCODING -1
SWIDTH 513 0
DWIDTH 6 0
BBX 4 1 1 4
BITMAP
F0
ENDCHAR
STARTCHAR softhyphen.case
ENCODING -1
SWIDTH 513 0
DWIDTH 6 0
BBX 4 1 1 4
BITMAP
F0
ENDCHAR
STARTCHAR hyphen.deva
ENCODING -1
SWIDTH 578 0
DWIDTH 7 0
BBX 5 2 1 4
BITMAP
F8
78
ENDCHAR
STARTCHAR softhyphen.deva
ENCODING -1
SWIDTH 578 0
DWIDTH 7 0
BBX 5 2 1 4
BITMAP
F8
78
ENDCHAR
STARTCHAR guillemotleft.case
ENCODING -1
SWIDTH 669 0
DWIDTH 8 0
BBX 6 5 1 2
BITMAP
20
48
D8
48
24
ENDCHAR
STARTCHAR guillemotright.case
ENCODING -1
SWIDTH 669 0
DWIDTH 8 0
BBX 6 5 1 2
BITMAP
10
48
6C
48
90
ENDCHAR
STARTCHAR guilsinglleft.case
ENCODING -1
SWIDTH 409 0
DWIDTH 5 0
BBX 3 5 1 2
BITMAP
20
40
C0
40
20
ENDCHAR
STARTCHAR guilsinglright.case
ENCODING -1
SWIDTH 409 0
DWIDTH 5 0
BBX 3 5 1 2
BITMAP
80
40
60
40
80
ENDCHAR
STARTCHAR quotedblleft.deva
ENCODING -1
SWIDTH 740 0
DWIDTH 9 0
BBX 5 4 2 6
BITMAP
40
48
D8
48
ENDCHAR
STARTCHAR quotedblright.deva
ENCODING -1
SWIDTH 740 0
DWIDTH 9 0
BBX 6 4 2 6
BITMAP
48
6C
48
90
ENDCHAR
STARTCHAR quoteleft.deva
ENCODING -1
SWIDTH 480 0
DWIDTH 6 0
BBX 2 4 2 6
BITMAP
40
40
C0
40
ENDCHAR
STARTCHAR quoteright.deva
ENCODING -1
SWIDTH 480 0
DWIDTH 6 0
BBX 3 4 2 6
BITMAP
40
60
40
80
ENDCHAR
STARTCHAR space.deva
ENCODING -1
SWIDTH 379 0
DWIDTH 5 0
BBX 1 1 0 0
BITMAP
00
ENDCHAR
STARTCHAR uni00A0.deva
ENCODING -1
SWIDTH 379 0
DWIDTH 5 0
BBX 1 1 0 0
BITMAP
00
ENDCHAR
STARTCHAR uni20B9.deva
ENCODING -1
SWIDTH 709 0
DWIDTH 9 0
BBX 7 9 1 0
BITMAP
20
10
FE
18
78
30
10
08
04
ENDCHAR
STARTCHAR approxequal.case
ENCODING -1
SWIDTH 615 0
DWIDTH 7 0
BBX 6 4 1 3
BITMAP
E4
18
C0
10
ENDCHAR
STARTCHAR asciitilde.case
ENCODING -1
SWIDTH 615 0
DWIDTH 7 0
BBX 6 2 1 4
BITMAP
E4
38
ENDCHAR
STARTCHAR bulletoperator.case
ENCODING -1
SWIDTH 339 0
DWIDTH 4 0
BBX 2 2 1 4
BITMAP
C0
C0
ENDCHAR
STARTCHAR divide.case
ENCODING -1
SWIDTH 527 0
DWIDTH 6 0
BBX 2 6 2 2
BITMAP
C0
C0
00
00
40
C0
ENDCHAR
STARTCHAR equal.case
ENCODING -1
SWIDTH 527 0
DWIDTH 6 0
BBX 1 1 5 4
BITMAP
00
ENDCHAR
STARTCHAR greater.case
ENCODING -1
SWIDTH 471 0
DWIDTH 6 0
BBX 4 6 1 2
BITMAP
80
C0
70
10
40
80
ENDCHAR
STARTCHAR greaterequal.case
ENCODING -1
SWIDTH 507 0
DWIDTH 6 0
BBX 6 7 0 0
BITMAP
70
18
08
10
40
00
FC
ENDCHAR
STARTCHAR infinity.case
ENCODING -1
SWIDTH 987 0
DWIDTH 12 0
BBX 10 4 1 3
BITMAP
7B80
8CC0
8CC0
F680
ENDCHAR
STARTCHAR less.case
ENCODING -1
SWIDTH 471 0
DWIDTH 6 0
BBX 4 6 1 2
BITMAP
10
20
80
C0
60
10
ENDCHAR
STARTCHAR lessequal.case
ENCODING -1
SWIDTH 507 0
DWIDTH 6 0
BBX 6 8 0 0
BITMAP
08
10
40
60
38
08
00
FC
ENDCHAR
STARTCHAR logicalnot.case
ENCODING -1
SWIDTH 578 0
DWIDTH 7 0
BBX 1 3 5 2
BITMAP
80
80
80
ENDCHAR
STARTCHAR minus.case
ENCODING -1
SWIDTH 527 0
DWIDTH 6 0
BBX 1 1 5 4
BITMAP
00
ENDCHAR
STARTCHAR multiply.case
ENCODING -1
SWIDTH 509 0
DWIDTH 6 0
BBX 4 4 1 3
BITMAP
90
60
60
90
ENDCHAR
STARTCHAR notequal.case
ENCODING -1
SWIDTH 527 0
DWIDTH 6 0
BBX 4 7 1 1
BITMAP
10
00
20
00
40
00
80
ENDCHAR
STARTCHAR plus.case
ENCODING -1
SWIDTH 528 0
DWIDTH 6 0
BBX 1 1 5 2
BITMAP
00
ENDCHAR
STARTCHAR plusminus.case
ENCODING -1
SWIDTH 527 0
DWIDTH 6 0
BBX 6 1 0 0
BITMAP
FC
ENDCHAR
STARTCHAR arrowup.case
ENCODING -1
SWIDTH 584 0
DWIDTH 7 0
BBX 5 8 1 1
BITMAP
20
20
70
A8
20
20
70
50
ENDCHAR
STARTCHAR uni2197.case
ENCODING -1
SWIDTH 666 0
DWIDTH 8 0
BBX 7 6 0 2
BITMAP
06
0E
06
1A
F2
10
ENDCHAR
STARTCHAR arrowright.case
ENCODING -1
SWIDTH 762 0
DWIDTH 9 0
BBX 7 6 1 2
BITMAP
08
0C
66
66
8C
08
ENDCHAR
STARTCHAR uni2198.case
ENCODING -1
SWIDTH 666 0
DWIDTH 8 0
BBX 7 5 0 1
BITMAP
F2
12
0E
0E
0E
ENDCHAR
STARTCHAR arrowdown.case
ENCODING -1
SWIDTH 584 0
DWIDTH 7 0
BBX 5 7 1 1
BITMAP
50
20
20
20
F8
70
20
ENDCHAR
STARTCHAR uni2199.case
ENCODING -1
SWIDTH 666 0
DWIDTH 8 0
BBX 7 5 1 1
BITMAP
9E
90
E0
E0
E0
ENDCHAR
STARTCHAR arrowleft.case
ENCODING -1
SWIDTH 762 0
DWIDTH 9 0
BBX 7 5 1 2
BITMAP
60
CC
CC
62
20
ENDCHAR
STARTCHAR uni2196.case
ENCODING -1
SWIDTH 665 0
DWIDTH 8 0
BBX 7 6 1 2
BITMAP
C0
E0
C0
B0
9E
10
ENDCHAR
STARTCHAR uni2194.case
ENCODING -1
SWIDTH 1118 0
DWIDTH 13 0
BBX 12 6 1 2
BITMAP
0080
6040
CC60
C770
6840
2080
ENDCHAR
STARTCHAR arrowupdn.case
ENCODING -1
SWIDTH 584 0
DWIDTH 7 0
BBX 5 13 1 -2
BITMAP
20
70
F8
20
20
60
30
20
20
F8
70
20
20
ENDCHAR
STARTCHAR ampersand.case
ENCODING -1
SWIDTH 860 0
DWIDTH 10 0
BBX 9 10 1 0
BITMAP
0800
2C00
6400
6800
7000
7100
B900
9E00
8600
FB80
ENDCHAR
STARTCHAR asciicircum.case
ENCODING -1
SWIDTH 597 0
DWIDTH 7 0
BBX 6 5 1 3
BITMAP
30
50
18
88
0C
ENDCHAR
STARTCHAR dieresis.case
ENCODING -1
SWIDTH 633 0
DWIDTH 8 0
BBX 5 2 1 8
BITMAP
C8
88
ENDCHAR
STARTCHAR hungarumlaut.case
ENCODING -1
SWIDTH 590 0
DWIDTH 7 0
BBX 6 3 0 8
BITMAP
64
44
88
ENDCHAR
STARTCHAR macron.case
ENCODING -1
SWIDTH 600 0
DWIDTH 7 0
BBX 5 1 1 9
BITMAP
F8
ENDCHAR
STARTCHAR uni09460945
ENCODING -1
SWIDTH 0 0
DWIDTH 0 0
BBX 17 5 -15 10
BITMAP
802080
403080
3F9180
004F00
002000
ENDCHAR
STARTCHAR uni09460901
ENCODING -1
SWIDTH 0 0
DWIDTH 0 0
BBX 17 6 -15 10
BITMAP
000400
802480
403080
3F9180
004F00
002000
ENDCHAR
STARTCHAR uni09470945
ENCODING -1
SWIDTH 0 0
DWIDTH 0 0
BBX 12 5 -10 10
BITMAP
0410
C610
F230
09E0
0400
ENDCHAR
STARTCHAR evowelsigndeva_candraBindudeva
ENCODING -1
SWIDTH 0 0
DWIDTH 0 0
BBX 12 6 -10 10
BITMAP
0080
0490
C610
F230
09E0
0400
ENDCHAR
STARTCHAR evowelsigndeva_anusvaradeva
ENCODING -1
SWIDTH 0 0
DWIDTH 0 0
BBX 8 4 -10 10
BITMAP
C0
F1
09
04
ENDCHAR
STARTCHAR uni09470930094D0902
ENCODING -1
SWIDTH 0 0
DWIDTH 0 0
BBX 10 6 -10 9
BITMAP
0780
C640
F480
0CC0
0640
0100
ENDCHAR
STARTCHAR uni09480945
ENCODING -1
SWIDTH 0 0
DWIDTH 0 0
BBX 14 6 -10 9
BITMAP
E100
0984
E48C
1278
0500
0280
ENDCHAR
STARTCHAR aivowelsigndeva_candraBindudeva
ENCODING -1
SWIDTH 0 0
DWIDTH 0 0
BBX 14 7 -10 9
BITMAP
0020
E120
0984
E48C
1278
0500
0280
ENDCHAR
STARTCHAR aivowelsigndeva_anusvaradeva
ENCODING -1
SWIDTH 0 0
DWIDTH 0 0
BBX 10 6 -10 9
BITMAP
E000
08C0
E4C0
1200
0500
0280
ENDCHAR
STARTCHAR uni09480930094D0902
ENCODING -1
SWIDTH 0 0
DWIDTH 0 0
BBX 12 6 -10 9
BITMAP
E1E0
0910
E720
1330
0510
0280
ENDCHAR
STARTCHAR nuktadeva_uvowelsigndeva
ENCODING -1
SWIDTH 0 0
DWIDTH 0 0
BBX 7 5 -7 -6
BITMAP
50
54
86
46
3C
ENDCHAR
STARTCHAR nuktadeva_uuvowelsigndeva
ENCODING -1
SWIDTH 0 0
DWIDTH 0 0
BBX 7 5 -6 -6
BITMAP
88
BC
62
20
18
ENDCHAR
STARTCHAR nuktadeva_rvocalicvowelsigndeva
ENCODING -1
SWIDTH 0 0
DWIDTH 0 0
BBX 7 5 -6 -6
BITMAP
90
B8
30
20
1E
ENDCHAR
STARTCHAR uni093C0944
ENCODING -1
SWIDTH 0 0
DWIDTH 0 0
BBX 8 6 -9 -7
BITMAP
C8
5C
10
1C
10
0F
ENDCHAR
STARTCHAR nuktadeva_lvocalicvowelsigndeva
ENCODING -1
SWIDTH 0 0
DWIDTH 0 0
BBX 11 8 -9 -9
BITMAP
8980
3F40
3260
1060
08C0
0580
00A0
0060
ENDCHAR
STARTCHAR uni093C0963
ENCODING -1
SWIDTH 0 0
DWIDTH 0 0
BBX 12 9 -9 -10
BITMAP
9900
3F40
3260
10E0
0980
0180
01C0
0100
00F0
ENDCHAR
STARTCHAR uni093C094D0930
ENCODING -1
SWIDTH 0 0
DWIDTH 0 0
BBX 6 6 -6 -5
BITMAP
40
60
D0
C4
30
10
ENDCHAR
STARTCHAR uni093C094D09300941
ENCODING -1
SWIDTH 0 0
DWIDTH 0 0
BBX 9 9 -9 -8
BITMAP
0800
0C00
DA00
5880
0600
0500
2180
0980
0700
ENDCHAR
STARTCHAR uni093C094D09300942
ENCODING -1
SWIDTH 0 0
DWIDTH 0 0
BBX 10 9 -9 -8
BITMAP
0800
0C00
DA00
5880
0600
0F80
0840
0800
0700
ENDCHAR
STARTCHAR uni093C0956
ENCODING -1
SWIDTH 0 0
DWIDTH 0 0
BBX 8 2 -9 -3
BITMAP
C3
4F
ENDCHAR
STARTCHAR uni093C0957
ENCODING -1
SWIDTH 0 0
DWIDTH 0 0
BBX 8 5 -9 -6
BITMAP
C3
4F
00
1F
0E
ENDCHAR
STARTCHAR uni0930094D
ENCODING -1
SWIDTH 0 0
DWIDTH 0 0
BBX 6 6 -6 9
BITMAP
78
C4
C0
C0
40
20
ENDCHAR
STARTCHAR uni0930094D0945
ENCODING -1
SWIDTH 0 0
DWIDTH 0 0
BBX 8 9 -7 9
BITMAP
C2
C3
46
1C
30
78
60
20
10
ENDCHAR
STARTCHAR uni0930094D0901
ENCODING -1
SWIDTH 0 0
DWIDTH 0 0
BBX 8 10 -7 9
BITMAP
10
DA
C3
46
1C
30
78
60
20
10
ENDCHAR
STARTCHAR uni0930094D0902
ENCODING -1
SWIDTH 0 0
DWIDTH 0 0
BBX 6 6 -6 9
BITMAP
78
C4
C8
C8
40
20
ENDCHAR
STARTCHAR uni094D0930
ENCODING -1
SWIDTH 0 0
DWIDTH 0 0
BBX 5 3 -6 -3
BITMAP
60
D0
88
ENDCHAR
STARTCHAR uni094D09300941
ENCODING -1
SWIDTH 0 0
DWIDTH 0 0
BBX 7 8 -7 -8
BITMAP
30
68
44
18
14
86
6E
1C
ENDCHAR
STARTCHAR uni094D09300942
ENCODING -1
SWIDTH 0 0
DWIDTH 0 0
BBX 7 8 -6 -8
BITMAP
60
D0
88
30
78
C2
40
30
ENDCHAR
STARTCHAR uni094D0930094D
ENCODING -1
SWIDTH 0 0
DWIDTH 0 0
BBX 6 6 -6 -6
BITMAP
60
D0
88
20
08
04
ENDCHAR
STARTCHAR uni0930094D.low
ENCODING -1
SWIDTH 0 0
DWIDTH 0 0
BBX 4 5 -6 9
BITMAP
60
F0
C0
40
20
ENDCHAR
STARTCHAR viramadeva.raPos
ENCODING -1
SWIDTH 0 0
DWIDTH 0 0
BBX 3 3 -3 -5
BITMAP
80
40
20
ENDCHAR
STARTCHAR rdeva.leg
ENCODING -1
SWIDTH 648 0
DWIDTH 8 0
BBX 5 4 1 0
BITMAP
18
30
60
C0
ENDCHAR
STARTCHAR rdeva.legshort
ENCODING -1
SWIDTH 648 0
DWIDTH 8 0
BBX 3 3 3 1
BITMAP
60
C0
80
ENDCHAR
STARTCHAR raEyelashdeva
ENCODING -1
SWIDTH 396 0
DWIDTH 5 0
BBX 8 6 -1 3
BITMAP
FF
00
00
00
3F
1E
ENDCHAR
STARTCHAR hacek
ENCODING -1
SWIDTH 270 0
DWIDTH 3 0
BBX 2 3 1 7
BITMAP
C0
80
80
ENDCHAR
ENDFONT
